<?xml version="1.0" standalone="no"?><!DOCTYPE svg PUBLIC "-//W3C//DTD SVG 1.1//EN" "http://www.w3.org/Graphics/SVG/1.1/DTD/svg11.dtd"><svg t="1730195919855" class="icon" viewBox="0 0 1024 1024" version="1.1" xmlns="http://www.w3.org/2000/svg" p-id="12386" xmlns:xlink="http://www.w3.org/1999/xlink" width="200" height="200"><path d="M512 928c229.76 0 416-186.24 416-416S741.76 96 512 96 96 282.24 96 512s186.24 416 416 416z" fill="#007CC5" p-id="12387"></path><path d="M865.92 293.408H158.08C231.312 174.816 362.56 96 512 96c149.808 0 280.672 78.816 353.92 197.408z" fill="#AEE3F9" p-id="12388"></path><path d="M283.36 293.376l19.696-35.312h366.56v35.312H283.36z" fill="#EAF6FF" p-id="12389"></path><path d="M738.032 258.064l14.128 35.312h-82.528V258.08h68.4z" fill="#C6E6FB" p-id="12390"></path><path d="M688.96 225.76l49.056 32.32H303.056l75.104-32.32h310.784z" fill="#F7FBFF" p-id="12391"></path><path d="M242.848 381.888l194.048-88.48H283.36l-40.512 88.48z" fill="#7DD7F3" p-id="12392"></path><path d="M669.632 293.408v137.92l-153.92 69.52V293.408h153.92z" fill="#42C4F1" p-id="12393"></path><path d="M752.16 293.408l34.944 84.016-117.472 53.92v-137.936h82.528z" fill="#358DCE" p-id="12394"></path><path d="M242.848 381.92l272.864 118.944-123.792 79.936-95.168-79.936-53.92-118.96z" fill="#7DD7F3" p-id="12395"></path><path d="M787.104 377.408l-99.632 110.784-171.76 12.64 271.392-123.424z" fill="#0070AE" p-id="12396"></path><path d="M624.272 680.768L512 627.616l3.712-126.768 108.56 179.92z" fill="#2CA8DD" p-id="12397"></path><path d="M688.224 617.216l-0.752-128.992-171.76 12.64 108.56 179.92 63.936-63.568z" fill="#358DCE" p-id="12398"></path><path d="M391.92 580.784l-18.224 114.128L512 725.024v-97.408L391.92 580.8z" fill="#AEE3F9" p-id="12399"></path><path d="M624.272 680.752L512 724.992v-97.392l112.272 53.152z" fill="#29B1E4" p-id="12400"></path><path d="M523.888 840.272l100.384-159.488L512 725.024l11.888 115.248z" fill="#0070AE" p-id="12401"></path><path d="M373.696 694.912l150.192 145.344L512 725.04l-138.304-30.112z" fill="#7DD7F6" p-id="12402"></path><path d="M436.896 293.408h78.816v207.44l-272.864-118.96 194.048-88.48z" fill="#AEE3F9" p-id="12403"></path><path d="M391.92 580.768l123.792-79.92L512 627.616l-120.08-46.848z" fill="#A0DEF6" p-id="12404"></path></svg>