<?xml version="1.0" standalone="no"?><!DOCTYPE svg PUBLIC "-//W3C//DTD SVG 1.1//EN" "http://www.w3.org/Graphics/SVG/1.1/DTD/svg11.dtd"><svg t="1730195568501" class="icon" viewBox="0 0 1024 1024" version="1.1" xmlns="http://www.w3.org/2000/svg" p-id="1491" xmlns:xlink="http://www.w3.org/1999/xlink" width="200" height="200"><path d="M329.12 110c50.128-50.112 132.208-50.944 182.32-0.816l100.64 100.64a128.32 128.32 0 0 1 0 181.472l-74.24 74.24a25.664 25.664 0 0 1-36.304 0L328.32 292.32c-50.112-50.128-49.28-132.208 0.816-182.32z" fill="#4FA7C7" p-id="1492"></path><path d="M206.224 302.4c0-20.768 25.12-31.2 39.84-16.48l219.2 219.2c9.104 9.104 9.104 23.872 0 32.992l-219.2 219.2c-14.72 14.688-39.84 4.288-39.84-16.512V302.4z" fill="#5568A7" p-id="1493"></path><path d="M332.432 930c-50.112-50.112-50.928-132.192-0.816-182.304l324.192-324.208c35.488-35.456 51.152-67.632 56.112-113.824l120.432 120.432a129.504 129.504 0 0 1 0 183.136l-317.6 317.6c-50.112 50.112-132.192 49.28-182.304-0.832z" fill="#75C6A7" p-id="1494"></path></svg>