<?xml version="1.0" standalone="no"?><!DOCTYPE svg PUBLIC "-//W3C//DTD SVG 1.1//EN" "http://www.w3.org/Graphics/SVG/1.1/DTD/svg11.dtd"><svg t="1730337882496" class="icon" viewBox="0 0 1024 1024" version="1.1" xmlns="http://www.w3.org/2000/svg" p-id="2536" xmlns:xlink="http://www.w3.org/1999/xlink" width="200" height="200"><path d="M512 960.512C264.192 960.512 63.488 759.808 63.488 512S264.192 63.488 512 63.488 960.512 264.192 960.512 512 759.808 960.512 512 960.512z m0-825.344C305.152 135.168 135.168 305.152 135.168 512S305.152 888.832 512 888.832 888.832 718.848 888.832 512 718.848 135.168 512 135.168z" fill="#008373" p-id="2537"></path><path d="M358.4 788.48c-24.576 0-49.152-14.336-79.872-43.008-129.024-129.024-129.024-337.92 0-464.896s337.92-129.024 464.896 0c32.768 32.768 47.104 61.44 43.008 88.064-6.144 40.96-49.152 63.488-102.4 92.16-43.008 22.528-92.16 49.152-133.12 90.112-40.96 40.96-67.584 90.112-90.112 133.12-28.672 53.248-51.2 96.256-92.16 102.4-4.096 2.048-6.144 2.048-10.24 2.048zM512 223.232c-73.728 0-147.456 28.672-202.752 83.968-112.64 112.64-112.64 294.912 0 407.552 22.528 22.528 40.96 32.768 53.248 32.768 20.48-2.048 40.96-40.96 61.44-81.92 22.528-43.008 53.248-98.304 98.304-143.36 45.056-45.056 100.352-73.728 143.36-98.304 40.96-22.528 79.872-43.008 81.92-61.44 2.048-12.288-8.192-30.72-32.768-53.248-55.296-57.344-129.024-86.016-202.752-86.016z" fill="#1AA69D" p-id="2538"></path><path d="M614.4 411.648c-38.912 20.48-81.92 47.104-118.784 83.968-36.864 36.864-61.44 79.872-83.968 118.784-26.624-24.576-43.008-61.44-43.008-102.4 0-79.872 63.488-143.36 143.36-143.36 40.96 0 77.824 16.384 102.4 43.008z" fill="#008373" p-id="2539"></path><path d="M364.544 696.32c-8.192-6.144-14.336-12.288-20.48-18.432-92.16-92.16-92.16-241.664 0-331.776 45.056-45.056 104.448-69.632 165.888-69.632s122.88 24.576 165.888 69.632c6.144 6.144 12.288 12.288 18.432 20.48l-30.72 24.576c-4.096-6.144-10.24-12.288-14.336-16.384-36.864-36.864-86.016-57.344-137.216-57.344s-100.352 20.48-137.216 57.344c-75.776 75.776-75.776 198.656 0 274.432 4.096 4.096 10.24 10.24 16.384 14.336L364.544 696.32z" fill="#1AA69D" p-id="2540"></path></svg>