<?xml version="1.0" standalone="no"?><!DOCTYPE svg PUBLIC "-//W3C//DTD SVG 1.1//EN" "http://www.w3.org/Graphics/SVG/1.1/DTD/svg11.dtd"><svg t="1730337929546" class="icon" viewBox="0 0 1024 1024" version="1.1" xmlns="http://www.w3.org/2000/svg" p-id="3594" xmlns:xlink="http://www.w3.org/1999/xlink" width="200" height="200"><path d="M58.026667 712.021333h39.936v101.717334h123.562666v-101.717334h39.936V955.733333h-39.936v-107.861333H97.962667V955.733333H58.026667v-243.712z m251.221333 0h89.088c39.594667 0 69.290667 10.922667 89.770667 32.768 19.456 20.48 29.354667 50.176 29.354666 89.088 0 38.570667-9.898667 68.266667-29.354666 89.088-20.48 21.845333-50.176 32.768-89.770667 32.768H309.248v-243.712z m39.936 34.133334v175.445333h41.642667c30.378667 0 52.565333-7.168 66.56-21.162667 13.653333-14.336 20.48-36.522667 20.48-66.56 0-30.72-6.826667-53.248-20.48-66.901333-13.994667-13.994667-36.181333-20.821333-66.56-20.821333h-41.642667z m205.824-34.133334h166.229333v34.133334h-126.293333v67.584H714.069333v34.133333H594.944V955.733333H555.008v-243.712z m284.672-4.778666c28.672 0 51.2 5.802667 67.242667 17.749333 17.066667 12.629333 26.965333 32.426667 29.354666 59.050667h-39.594666c-3.413333-15.018667-9.898667-25.941333-18.773334-32.426667-8.874667-6.826667-22.528-9.898667-40.277333-9.898667-15.36 0-26.965333 2.048-35.157333 6.485334-10.24 5.12-15.018667 13.653333-15.018667 25.258666 0 10.24 5.461333 18.773333 17.066667 24.917334 5.12 2.730667 19.114667 7.850667 41.642666 15.018666 33.109333 10.24 54.272 18.432 63.829334 23.893334 21.162667 12.629333 31.744 30.037333 31.744 52.565333 0 21.845333-8.533333 39.253333-25.6 51.882667-17.066667 12.288-41.301333 18.773333-72.362667 18.773333-30.037333 0-53.589333-5.802667-70.314667-17.408-20.48-14.336-31.744-36.864-33.450666-67.925333h39.594666c2.730667 18.432 9.216 31.744 19.797334 39.594666 9.557333 6.826667 24.234667 10.581333 44.373333 10.581334 17.749333 0 32.085333-3.072 42.325333-8.874667 10.24-6.144 15.701333-13.994667 15.701334-24.234667 0-12.970667-7.850667-23.210667-22.869334-30.72-4.778667-2.389333-20.48-7.850667-47.445333-16.042666-30.037333-9.557333-48.810667-16.384-55.978667-20.48a53.930667 53.930667 0 0 1-27.989333-49.152c0-21.504 8.874667-38.570667 27.306667-50.858667 17.066667-11.946667 38.570667-17.749333 64.853333-17.749333zM670.378667 416.085333c1.2288-7.304533 2.525867-14.336 3.754666-20.8896l2.730667-14.677333 1.024-6.621867 6.690133 1.6384c10.4448 2.525867 20.8896 5.461333 31.1296 8.055467 11.264 2.935467 22.7328 6.007467 34.269867 8.874667l2.935467-5.5296-0.273067 6.144c10.922667 2.730667 21.981867 5.051733 33.041067 7.099733 7.714133 1.4336 15.291733 2.048 22.528 2.048 45.602133 0 82.397867-25.873067 101.034666-70.929067 15.428267-37.205333 17.885867-77.550933 8.328534-130.730666a240.162133 240.162133 0 0 0-16.930134-56.866134c-1.501867-3.2768-4.437333-8.669867-7.509333-8.669866-1.706667 0-5.256533 1.024-12.151467 8.465066-10.6496 11.400533-22.1184 23.005867-35.703466 30.242134l-2.525867 1.2288c-7.509333 4.096-12.151467 6.417067-13.380267 8.874666-1.2288 2.730667-0.4096 8.874667 0.8192 18.2272 3.959467 26.0096-0.8192 52.701867-15.018666 84.1728l-14.199467 31.197867 5.802667-92.433067c-11.264 3.4816-14.336 12.424533-18.158934 23.3472a60.552533 60.552533 0 0 1-7.509333 16.7936l-2.730667 4.096-14.609066-5.12 10.0352-38.912a23.825067 23.825067 0 0 0-4.437334 3.2768 57.821867 57.821867 0 0 0-8.942933 12.288c-1.297067 2.048-2.730667 4.3008-4.164267 6.3488l-3.618133 5.188267-15.018667-10.171733 3.754667-5.12c2.048-2.935467 4.164267-6.212267 6.075733-9.762134 5.051733-8.465067 10.24-17.134933 18.568534-22.3232a43.758933 43.758933 0 0 1 14.267733-5.393066 18.0224 18.0224 0 0 1-8.192-3.072l-9.557333-6.417067 14.199466-6.007467-11.127466-2.048-9.8304-19.2512 6.144-2.730666c2.048-0.750933 4.096-1.8432 6.212266-2.8672 4.778667-2.2528 9.8304-4.5056 15.018667-6.007467a54.272 54.272 0 0 1 12.765867-1.8432c-12.970667-24.9856-27.989333-35.976533-55.978667-42.5984l-5.051733-1.2288 0.2048-5.188267c-0.8192-10.308267-57.412267-56.866133-87.517867-65.536a122.88 122.88 0 0 0-34.884267-4.573866c-53.930667 0-113.4592 26.692267-139.605333 61.0304h64.170667l-36.386134 12.014933a257.706667 257.706667 0 0 1-50.7904 11.127467 58.1632 58.1632 0 0 0-38.638933 19.456 594.875733 594.875733 0 0 1-3.208533 3.618133l7.236266-0.341333a257.911467 257.911467 0 0 1 21.2992-0.4096l41.096534 1.911466-40.413867 6.144c-24.712533 3.822933-40.004267 14.199467-48.3328 32.768l-10.4448 23.688534v-31.9488l-2.8672 3.072L353.621333 204.8l-5.597866-1.6384-12.288 14.609067c-14.336 17.749333-27.716267 38.912-41.915734 66.218666-2.935467 5.7344-2.321067 17.749333 1.2288 24.7808 5.870933 10.922667 13.994667 21.2992 21.9136 31.197867l5.256534 6.826667 39.7312-46.6944 2.730666 12.356266a20.343467 20.343467 0 0 1-3.003733 16.1792c-3.072 5.7344-6.417067 11.605333-9.557333 17.134934-7.099733 12.629333-14.677333 25.873067-20.8896 39.1168-7.7824 15.906133-6.280533 22.9376 7.509333 35.498666 16.930133 15.36 37.205333 17.8176 58.914133 7.304534 6.826667-3.345067 13.789867-7.031467 20.6848-10.376534 18.773333-9.693867 38.434133-19.797333 59.118934-25.6 20.0704-5.597867 24.234667-15.36 24.029866-27.989333 0-29.764267-2.048-59.938133-4.369066-88.064-1.911467-24.576-3.959467-50.244267 4.983466-75.502933l3.822934-10.513067 7.099733 8.669867a24.576 24.576 0 0 1 4.983467 11.195733c1.4336 10.308267 2.935467 20.48 4.573866 30.788267 2.730667 18.8416 5.461333 38.229333 8.6016 57.344 6.075733 37.205333 3.549867 70.0416-7.509333 100.488533-2.321067 5.9392-8.8064 15.018667-16.725333 16.110933-28.194133 3.8912-52.224 16.930133-77.550934 30.583467l-8.738133 4.778667c-20.6848 10.922667-36.386133 15.906133-50.9952 15.906133-20.8896 0-39.936-10.308267-63.146667-34.747733-7.099733-7.441067-14.609067-17.954133-8.328533-33.041067 6.690133-16.384 3.345067-30.856533-10.4448-46.762667-5.870933-6.826667-11.0592-14.472533-16.110933-21.7088l-2.048-2.935466c-11.741867-17.339733-12.970667-35.362133-3.549867-52.292267l4.369067-7.645867a553.642667 553.642667 0 0 1 31.3344-51.882666c9.0112-12.834133 19.6608-24.849067 29.696-36.4544 1.2288-1.365333 2.2528-2.730667 3.549866-4.096a201.5232 201.5232 0 0 0-34.269866 7.031466c-88.814933 25.8048-150.664533 109.9776-146.909867 199.748267 1.8432 46.967467 16.725333 90.794667 43.690667 130.525867 17.544533 25.8048 20.48 51.473067 9.147733 83.285333a32.768 32.768 0 0 1-1.4336 4.164267c-0.8192 2.730667-1.706667 5.393067-2.935467 8.055466-1.2288 3.140267-2.525867 7.509333-0.682666 11.195734 1.706667 3.072 5.256533 4.5056 7.7824 5.3248 20.6848 5.461333 43.690667 9.966933 72.0896 14.7456a11.127467 11.127467 0 0 0 2.525866 0.2048c2.525867 0 6.485333 0 8.738134-11.400534a154.965333 154.965333 0 0 1 8.6016-26.282666 255.317333 255.317333 0 0 0 14.813866-53.725867c1.092267-8.533333 0.8192-17.2032 0.682667-26.282667-0.273067-3.959467-0.273067-8.055467-0.273067-12.219733v-5.597867l14.677334-1.2288 1.8432 3.959467c0.2048 0.4096 0.682667 1.024 0.8192 1.4336 1.297067 1.8432 2.730667 4.573867 2.730666 7.850667 0 4.778667 0.8192 8.260267 2.935467 10.376533 2.321067 2.4576 6.894933 3.4816 13.789867 3.4816h0.682666c9.966933-0.2048 20.002133 0 30.037334 0h17.544533c19.456 0 30.5152-3.2768 33.860267-20.0704 0.8192-3.6864 3.959467-4.9152 5.461333-5.597867l1.2288-0.4096 9.0112-4.9152v58.914134l-5.051733 1.024a102.468267 102.468267 0 0 1-6.485334 1.024c-3.549867 0.682667-6.690133 1.024-8.942933 2.048-3.822933 1.911467-7.509333 4.164267-11.332267 6.690133-3.754667 2.2528-7.714133 4.778667-11.8784 6.826667-2.730667 1.365333-6.280533 3.6864-7.304533 7.031466-0.887467 2.4576-0.2048 5.5296 1.8432 8.874667l1.297067 2.2528c9.557333 16.384 19.387733 33.314133 31.5392 47.581867 4.573867 5.393067 10.0352 8.260267 15.701333 8.260266 7.031467 0 14.336-4.096 20.616533-11.605333 5.666133-6.826667 12.356267-13.448533 21.777067-21.7088 6.075733-5.12 12.4928-10.308267 18.773333-15.018667 12.151467-9.557333 23.893333-18.432 32.768-29.422933 32.085333-38.434133 46.8992-85.4016 57.344-126.1568 1.4336-5.393067 0.6144-7.850667-6.144-11.605333a153.463467 153.463467 0 0 1-21.7088-15.906134c-2.730667-2.2528-5.597867-4.778667-8.533333-6.826666l-4.778667-3.6864 10.6496-14.336 4.983467 3.413333c9.8304 6.5536 20.6848 11.537067 31.9488 16.452267 18.432 8.123733 37.205333 16.5888 52.087467 33.314133a64.375467 64.375467 0 0 0 10.4448 9.352533 30.5152 30.5152 0 0 1-2.935467-16.9984c0.477867-6.826667 1.365333-13.653333 2.4576-20.343466l-0.477867-0.477867 0.6144-0.477867zM400.930133 145.408c-3.6864 4.096-7.509333 8.055467-11.195733 12.014933v0.887467a60.893867 60.893867 0 0 1 17.339733-13.1072h-2.525866l-3.618134 0.2048z m514.6624-32.221867a40.277333 40.277333 0 0 1 19.114667 25.258667c7.5776 29.218133 15.223467 58.709333 19.0464 88.610133 1.365333 11.0592 2.048 22.050133 2.048 33.041067 0.068267 32.085333-6.007467 62.122667-18.363733 89.770667-23.7568 53.316267-71.8848 83.968-132.027734 83.968a183.637333 183.637333 0 0 1-18.432-1.024c-3.072-0.477867-5.597867-0.477867-7.714133-0.477867-7.714133 0-11.8784 1.501867-15.701333 14.062933-7.918933 26.897067-39.253333 48.605867-69.768534 48.605867a62.190933 62.190933 0 0 1-42.5984-16.725333 247.330133 247.330133 0 0 0-11.0592-9.693867c2.730667 7.236267 5.188267 14.472533 7.509334 21.845333 3.345067 11.400533 5.188267 23.210667 6.826666 34.4064 1.092267 6.826667 1.911467 13.653333 2.594134 20.48 1.024 8.874667 2.048 18.158933 3.754666 27.0336 3.140267 17.2032 0.8192 30.651733-7.099733 39.936-7.9872 9.284267-20.48 13.858133-37.819733 13.448534a828.689067 828.689067 0 0 1-50.7904-3.345067c-8.192-0.6144-16.520533-1.365333-24.849067-1.8432h-1.706667a487.560533 487.560533 0 0 1-11.4688 9.762133c-9.8304 8.055467-19.2512 15.701333-25.941333 24.9856-12.561067 17.2032-31.1296 27.306667-49.902933 27.306667a51.2 51.2 0 0 1-18.8416-3.618133 56.456533 56.456533 0 0 1-20.8896-14.813867c-16.520533-18.568533-29.013333-40.072533-41.3696-62.2592-8.3968-15.018667-7.918933-29.354667 1.024-41.301333H350.890667c-1.6384 3.8912-3.549867 7.645867-5.188267 11.332266a330.5472 330.5472 0 0 0-13.789867 32.699734c-2.525867 7.031467-3.549867 14.472533-4.778666 22.3232-0.682667 4.369067-1.501867 8.669867-2.321067 12.970666-4.642133 21.572267-14.677333 30.242133-35.976533 31.061334-2.2528 0-4.369067 0.2048-6.690134 0.2048-18.6368 0-37.4784-2.730667-57.617066-8.465067a307.677867 307.677867 0 0 1-41.3696-15.018667 27.648 27.648 0 0 1-15.018667-13.653333c-4.642133-7.9872-5.188267-18.090667-1.365333-29.832533 1.092267-2.935467 2.116267-5.802667 3.208533-8.260267-4.232533-2.048-8.6016-4.096-12.765867-6.212267-13.380267-6.417067-26.350933-12.629333-38.229333-20.8896a102.4 102.4 0 0 1-1.501867-1.024l-0.2048-0.136533a80.008533 80.008533 0 0 1-34.816-51.063467 82.602667 82.602667 0 0 1-1.706666-12.4928c-0.682667-12.014933 7.099733-23.825067 9.352533-27.101866 3.754667-5.393067 8.8064-9.762133 13.380267-14.062934 3.413333-2.935467 6.485333-5.802667 9.216-8.874666a54.4768 54.4768 0 0 0 14.199466-41.3696 741.034667 741.034667 0 0 1-0.682666-52.565334c0-5.393067 0.273067-10.513067 0.273066-15.496533a91.818667 91.818667 0 0 0-9.557333-3.754667c-10.103467-3.6864-19.729067-7.441067-24.917333-15.018666a137.4208 137.4208 0 0 1-23.415467-56.5248 35.771733 35.771733 0 0 1 3.754667-21.162667c10.6496-23.210667 40.7552-44.509867 68.539733-50.517333l6.894933-1.501867 5.461334 62.6688c39.048533-67.447467 102.6048-107.52 193.877333-122.4704a56.797867 56.797867 0 0 0 33.245867-16.725333c13.380267-13.653333 28.398933-28.945067 52.0192-32.494934 1.911467-0.2048 5.870933-5.12 7.918933-7.850666 0.887467-1.2288 1.911467-2.2528 2.730667-3.2768C486.468267 25.6 542.446933 0 608.938667 0h0.546133c10.24 0 20.753067 0.546133 31.402667 1.774933a109.226667 109.226667 0 0 1 43.554133 15.496534c12.424533 7.099733 24.302933 16.042667 36.522667 25.736533 7.7824 6.212267 15.906133 12.219733 23.893333 18.0224 15.018667 11.127467 30.446933 22.7328 44.6464 35.362133 11.946667 10.513067 22.186667 22.7328 33.245867 35.771734 3.959467 4.778667 8.192 9.557333 12.561066 14.472533 0.6144-0.682667 1.2288-1.024 1.8432-1.6384 5.666133-4.983467 11.946667-10.581333 17.134934-16.7936a47.581867 47.581867 0 0 0 3.959466-5.188267c6.894933-8.874667 14.677333-18.773333 29.2864-18.773333a58.709333 58.709333 0 0 1 28.0576 9.0112z m13.448534 84.104534l-0.068267-0.341334a262.621867 262.621867 0 0 0-17.6128-59.392c-3.140267-7.168-6.690133-11.195733-10.786133-12.356266a29.422933 29.422933 0 0 1 10.922666 13.9264c7.5776 16.930133 13.585067 36.6592 17.544534 58.1632zM670.3104 31.402667a109.021867 109.021867 0 0 0-19.592533-8.533334 131.754667 131.754667 0 0 0-0.546134-0.341333c5.802667 1.706667 12.6976 4.778667 20.138667 8.874667zM188.962133 619.7248c0.341333 1.365333 0.887467 2.730667 1.365334 3.822933a21.981867 21.981867 0 0 0 11.741866 10.4448c-7.9872-2.2528-12.561067-7.3728-13.1072-14.336zM102.673067 509.5424c3.618133 19.319467 23.620267 41.984 44.2368 53.589333-20.6848-10.8544-42.120533-35.0208-44.2368-53.589333zM182.6816 546.133333a3110.775467 3110.775467 0 0 0-17.885867-35.157333c-5.051733-9.762133-10.103467-19.182933-14.7456-28.0576a89.361067 89.361067 0 0 1-5.256533-9.762133c-0.8192 0.682667-1.4336 1.024-2.2528 1.6384-7.509333 5.802667-15.906133 12.288-23.415467 19.2512a15.5648 15.5648 0 0 0-4.232533 11.195733c1.911467 21.0944 35.771733 52.906667 56.661333 53.111467 2.935467 0 7.918933-2.730667 10.922667-6.007467A12.014933 12.014933 0 0 0 182.613333 546.133333z m-62.122667-227.396266a43.281067 43.281067 0 0 1-6.826666-7.509334c1.365333 3.549867 2.935467 6.144 4.778666 7.714134a54.818133 54.818133 0 0 0 2.048-0.2048z m-8.533333-74.888534c-3.959467 13.653333-7.7824 26.624-10.4448 39.867734-6.144-18.158933-4.027733-27.716267 10.4448-39.867734z m457.796267 350.481067h22.528c8.6016 0 15.496533 0 21.981866-0.2048 5.666133 0 9.4208-1.365333 11.537067-3.6864 2.2528-2.730667 2.8672-7.236267 2.048-13.448533-1.2288-8.260267-1.8432-16.520533-2.730667-24.576-0.8192-8.738133-1.6384-17.6128-2.935466-26.282667a301.738667 301.738667 0 0 0-5.188267-26.077867l-47.240533 94.276267zM682.666667 232.106667c-16.315733 13.789867-32.290133 27.4432-48.128 41.028266-0.750933-0.682667-1.365333-1.4336-2.2528-2.048L648.533333 247.671467c-8.8064-10.103467-11.810133-9.079467-16.930133 7.236266l-7.3728-10.103466-8.465067 4.573866c-0.682667-1.501867-1.4336-2.525867-1.297066-2.935466 14.7456-30.9248 25.463467-40.209067 47.3088-41.642667 0.2048 14.199467 9.762133 26.624 20.957866 27.2384zM552.277333 204.8l-4.3008-14.1312c-3.413333-11.605333-2.2528-21.777067 4.096-30.173867 7.168-10.0352 20.616533-16.930133 39.662934-20.0704L614.4 136.533333l-16.861867 13.9264a242.619733 242.619733 0 0 1-8.738133 6.826667 96.4608 96.4608 0 0 0-13.858133 12.219733c-3.822933 4.096-6.7584 9.216-9.898667 14.472534l-4.778667 8.055466L552.277333 204.8z" fill="#333333" p-id="3595"></path></svg>