<?xml version="1.0" standalone="no"?><!DOCTYPE svg PUBLIC "-//W3C//DTD SVG 1.1//EN" "http://www.w3.org/Graphics/SVG/1.1/DTD/svg11.dtd"><svg t="1730195809961" class="icon" viewBox="0 0 1137 1024" version="1.1" xmlns="http://www.w3.org/2000/svg" p-id="7413" xmlns:xlink="http://www.w3.org/1999/xlink" width="222.0703125" height="200"><path d="M679.022364 801.666844v219.420445h53.869227v-100.84352l11.113813 0.208213v100.636445h54.4768V801.666844h-54.4768v81.410276h-11.113813V801.666844zM865.526898 801.666844h-52.46976v219.420445h52.46976zM874.11712 801.666844l41.449244 219.420445h62.558436l41.449244-219.420445h-55.696497l-13.729565 93.886009c-1.143467 3.595378-5.008498 3.595378-5.699129 0l-13.7216-93.889422zM1134.861653 801.666844H1030.712889v219.420445h104.149902v-57.536285l-57.910613-0.493795v-24.665885h27.588835v-57.120995H1076.952178v-22.069476h57.910613z" p-id="7414"></path><path d="M572.44672 136.251164c-8.772267-24.024178-310.522311-141.334756-314.379378-128.455111-55.409778 14.444089-77.960533 78.308693-116.076089 118.761245l-84.642702-4.848071C20.063573 169.657458 0.497209 218.646756 13.819449 269.563449c47.788942 64.746382 103.264711 119.842133 137.841778 201.170489 2.732942 38.334009 165.910756 4.019769 200.886044-3.568071-47.777564 34.200462-89.383822 87.210667-71.504782 239.889066 16.32256 71.695929 27.488711 151.745422 172.259555 232.834845 19.057778 10.673493 58.489742 22.991076 82.873458 31.96928 23.318756 10.695111 50.586738 15.091484 127.510756-8.434347 44.514418-19.186347 92.575289-30.745031 136.135111-49.884729l-52.35712 2.4576c-72.09984 1.567858-127.761067 6.946133-144.930133-13.198222l-66.3552-114.551467 38.684444-75.138844c53.539271 5.490916 71.310222 48.908516 118.499556 65.442702l55.620266-41.204622c161.553067 95.363982 225.826133-60.438756 244.246756-181.782756-1.964942-49.370453-106.896498 15.485156-100.53632-7.600355 2.465564-53.069369-40.793884-122.504533-68.744534-176.605867l32.347023-125.166933c14.677333-13.073067-67.948089-152.302933-135.418311-169.665422-59.198578-15.234844-148.434489 59.725369-148.434489 59.725368z" fill="#FDEE21" p-id="7415"></path><path d="M837.844764 402.261333c0.580267 13.443982 0.514276 29.794987 1.813618 39.992889-0.223004 7.780124-6.055253 8.065707-10.881706 9.695005l31.4368 11.514311c6.241849 10.501689 11.258311 21.005653 16.324835 31.50848 5.876622 25.836658 1.490489 26.575076-2.417778 28.479715-11.408498 0.116053-22.784 0.137671-33.40288-2.120817 4.755911 2.511076 5.802667 4.340622 6.306703 7.55712 0.927289 5.930098-2.891093 14.0288-9.178454 21.83168 9.296782 5.158684 26.248533 10.205867 38.843734 14.997048l14.358755-31.963591c-6.5024-46.956089-26.220089-90.236018-53.202489-131.492977zM896.519964 559.763911c17.435307 7.266987 41.5232 5.137067 74.920392-12.075235 4.967538-3.531662 9.592604-1.419947 0.705422 4.389546-43.804444 39.306809-64.770276 19.643733-75.624676 7.685689z" fill="#C8C037" p-id="7416"></path><path d="M974.787698 542.537956c5.180302 9.918009 2.042311 17.982578 0.302649 26.358897-5.407858 42.60864-18.685724 76.294827-44.73856 111.495396-84.739413 136.237511-170.2912 50.991787-238.500978-4.488533l-28.214613 70.698097c-1.497316 6.196338-7.725511 11.022791 36.337208 30.421903l44.887609-31.706454c171.190044 130.2528 292.499911-182.317511 229.922134-202.774755zM712.495787 664.280178c-11.548444 0.823751-45.920711 12.512142-47.45216 19.280782l15.817386-23.565653zM690.036053 519.816533c2.116267 0 12.274347 2.727253 11.184356 2.120818-1.558756-0.868124-0.172942 14.24384 3.023075 22.117262l-12.393813 26.965334c23.739733-27.378347 61.278436-25.556764 96.126293-29.086151l-16.625208-10.30144c2.888818-9.632427-0.512-17.2544-2.116267-25.449814zM748.36992 438.624711c-25.471431 7.808569-49.852871 20.565333-66.22208 47.75936 12.488249-44.822756 15.033458-43.12064 19.065742-45.335893 17.466027-7.810844 31.769031-2.942293 47.156338-2.423467z" fill="#C8C037" p-id="7417"></path><path d="M612.348587 963.982222c-30.799644 33.985422-99.521422-2.571378-156.592356-21.208178-145.021156-92.216889-173.351822-179.029333-175.320178-264.192-7.455858-121.992533 30.0032-192.876089 77.384818-209.658311-31.357156 60.448996-45.9776 168.96-31.4368 249.6512 11.73504 44.891022 11.978524 120.604444 87.090062 161.132089 36.780942 20.706418 26.81856 36.827591 51.690383 56.221014 27.255467 21.252551 103.24992 41.457209 147.182933 28.055324zM658.36032 400.201956c-52.144356-73.945316-125.485511-101.702542-208.190578-104.735858 16.575147-5.403307 33.150293-8.217031 49.72544-16.208782 4.059591-4.264391 2.732942-11.769173 1.209458-19.390009-79.610311-20.7872-129.854578-46.478222-193.456356-70.293049l171.702045 41.204622c115.950933 4.405476 105.993102 33.031964 179.017955 169.426489z" fill="#FCF6A0" p-id="7418"></path><path d="M714.191076 364.544c-38.536533-55.011556-75.912533-121.776356-126.646045-164.238222-122.4704-55.277796-243.620978-96.331093-385.604267-133.688889l45.314276-58.272427c150.664533 34.391609 292.181333 91.941547 418.941156 186.811734 21.447111 54.226489 35.748978 108.524658 47.983502 169.380977zM791.878542 267.332267S770.275556 218.864071 759.755662 200.35584c-24.400782-27.040427-36.738844-77.430329-86.713458-101.173476 15.806009 4.268942 26.624-0.816924 58.891378 28.435343l50.822258 96.408462z" fill="#FCF6A0" p-id="7419"></path><path d="M818.752853 351.300267c4.983467-41.993102 14.444089-109.351822 3.586276-135.964445-30.208-40.532196-60.632178-82.427449-91.067733-121.321244-5.040356-4.691058-8.669867-11.058062-12.640712-16.024462 42.791822 11.086507 87.4496 40.839396 147.672178 158.299022z" fill="#FCF6A0" p-id="7420"></path><path d="M638.847431 356.260978c-17.043911-13.4144-32.233244-60.859733-58.0608-70.724267-23.904711-2.000213-32.671289-9.520924-64.106951-3.116373 11.401671-5.711644 22.166187-13.023004 34.285796-16.935822 8.210204-1.937636 15.909547 0.209351 23.742008 1.29024 1.934222-0.914773 3.201707-2.051413 2.729529-3.769458-31.643876-19.554987-96.558649-19.833742-140.379022-30.99648 50.857529 1.702116 107.128604-1.117298 145.351111 11.138844 30.734791 27.277084 40.718791 78.6432 56.439467 113.113316zM732.042809 127.461831c7.05536 0.640569 45.026418 60.703858 46.810453 70.698098 3.157333 21.847609 10.945422 46.339413 13.038934 69.198507-6.253227-21.92384-13.068516-43.846542-21.588196-65.770383-2.491733-6.037049-8.788196-19.685831-26.290631-38.990506-8.148764-13.606684-9.908907-24.301796-11.969422-35.134578zM860.714098 454.599111H844.470044l17.955272 4.712676zM749.871787 438.3744c-16.336213-2.008178-33.097956-2.275556-49.434169 1.316409-6.658276 8.942933-7.1168 18.040604-10.027236 26.447644 19.858773-21.886293 27.739022-23.22432 59.461405-27.762915zM972.671431 551.332978c-9.090844 7.255609-9.998791 14.084551-36.878791 22.268586-19.601636 4.635307-30.674489-3.221049-39.901867-13.785315 13.98784 4.007253 16.224711 14.574933 53.731556 2.727253zM891.206542 555.872711c-6.542222 17.990542-13.595307 36.171093-20.706418 53.020445-16.933547 19.858773-9.716622 8.542436-35.065173 39.386453 8.111218-12.51328 18.659556-24.537316 24.182329-37.569422 3.879822-8.58112 8.708551-17.68448 10.846436-25.308729-6.721991-3.356444-20.48-3.621547-22.345956-2.417778-22.535964 13.292658-26.602382 27.360142-39.888213 41.057849 9.629013-15.394133 17.855147-32.196836 29.019022-46.052693 1.272036-1.797689 9.536853-2.145849 14.619307-3.207396-7.896178-1.353956-22.512071-4.191573-23.688534-4.064142-14.702364 3.533938-22.941013 16.339627-33.855715 24.844515 7.957618-11.48928 15.287182-23.451876 25.391786-33.327786 0.998969-1.160533 28.311324 1.232213 42.466418 6.880142l0.279893 5.632 8.037263 3.242667 6.045013-15.148374zM712.859876 664.337067c-3.627236-1.240178-35.669333-5.360071-35.669334-4.39296-12.302791 8.756338-14.168747 17.133796-13.903644 24.389404 20.466347-20.135253 19.704036-20.192142 49.574115-19.996444zM688.522809 519.520711s23.12192-3.371236 22.67136-1.211733c-1.674809 8.021333 2.830791 27.571769 3.325724 24.844515l-12.997973 10.604089c27.222471-13.687467 55.87968-10.93632 84.941938-13.027555 0 0-24.470187-6.756124-22.974009-6.968889 5.459058-0.773689-1.452942-25.520356-3.325725-26.055111 4.655787-1.575822 9.202347-2.7648 13.904783-3.938987-34.993493-9.157973-55.227733-3.761493-85.547236 15.754809z" p-id="7421"></path><path d="M888.635164 536.7808l-5.138204 2.574791c-0.729316-15.0528-16.897138-13.949156-30.531129-14.087964l-11.184355-2.726116c3.39968 3.147093 13.913884 2.901333 9.672248 9.695005-3.568071 1.908053-5.211022 10.092089-7.254471 16.966542l-6.046151 0.302649c10.68032 4.174507 20.588089 7.832462 32.344747 12.724906l6.95296 1.060409 16.625209-8.937244z" p-id="7422"></path><path d="M735.376498 526.631822c-2.602098-5.148444-15.694507-4.416853-18.517334-1.086578-2.292622 2.706773-0.142222 20.072676 2.798934 17.144036 4.251876-3.7376 9.804231-5.300907 16.475022-4.999396 0.840818-3.208533 0.54272-6.671929-0.755484-11.058062zM860.930276 552.504889c1.231076-0.899982 3.834311-9.606258 2.992355-12.211769-1.719182-6.147413-13.894542-4.85376-13.894542-4.85376-2.9696 1.747627-5.572836 11.332267-4.487396 14.495289 0.517689 2.676053 13.436018 3.529387 15.389583 2.57024z" fill="#FFFFFF" p-id="7423"></path><path d="M340.317298 852.923733l7.691378 0.752071c45.590756 22.385778 120.661333 55.577031 229.341866 37.741227l17.053014 26.833351c-47.862898 23.258453-99.341653 17.906347-147.581156 19.53792zM274.860942 675.953778l22.838614 95.878258c61.144178 38.221369 165.592178 81.999644 252.654933 78.466844l-19.239822-44.145778c-181.737244-38.593422-197.108622-87.381333-256.250311-130.207289zM331.692942 479.561956c11.1616 74.299164 26.063076 130.628267 90.669511 177.811911 39.599218 28.478578 78.906027 56.836551 126.714311 80.24064 0 0-4.190436 21.812338-7.694791 21.423217-142.279111-15.803733-246.442667-133.779911-259.060622-187.665066 12.220871-41.334329 29.752889-67.152782 49.368178-91.810702zM400.084764 437.464178c18.959929 82.347804 64.167253 165.751467 109.101512 241.413689 16.470471 20.89984 20.781511 30.122667 46.168746 42.847573 34.315378 10.865778 58.579627 8.091876 83.48672 6.458027-6.824391-12.631609-12.889884-25.834382-20.726898-37.705956-55.771591-44.105956-29.996373-84.263822-15.182506-109.688604-31.011271-7.835876-72.100978-24.490667-77.761422-46.396303-9.101084-70.85056-4.479431-93.326222 4.629617-129.718044-41.995378 8.854187-84.548267 17.628729-129.718044 32.790756z" p-id="7424"></path><path d="M246.029653 0.065991c-13.801244 9.016889-27.099591 21.909049-41.403733 36.562489-23.71584 24.547556-39.480889 48.493227-63.619982 66.245973-4.827591 4.163129-18.375111 10.866916-35.407645 11.861334-8.024747 0.400498-13.251698 1.728284-27.995022-0.12288-13.002524-7.040569-25.355378-2.462151-37.410133 11.958044-13.220978 19.011129-29.963378 55.110542-36.92544 77.835378-14.347378 57.954987 22.233316 105.705244 57.314418 142.506667 31.209244 30.487893 49.200924 49.54112 62.014577 77.490631 9.701831 18.128213 16.889173 43.006862 24.670436 60.450133 2.80576 5.5296 2.223218 5.501156 9.775787 7.168 16.307769 3.480462 38.929067 3.507769 59.067733 5.238329 8.713102 0.121742 20.679111-0.202524 32.017067-1.384676 15.621689-2.94912 33.977458-5.840213 49.361351-11.1616 15.033458-3.701191 28.427378-8.828018 40.501475-13.546382-1.557618 5.28384-13.059413 10.370844-17.371591 17.068942-40.925867 58.584178-52.136391 110.71488-45.011627 192.967111 4.030009 36.456676 12.397227 66.679467 25.022009 101.258809 5.776498 15.824213 18.070187 40.884907 29.850738 57.531734 35.032178 49.50016 113.404587 113.065529 222.503822 137.534577 19.033884 2.60096 40.635733 1.214009 60.950756-4.197262 53.847609-16.32256 163.589689-54.926222 163.589689-54.926222s-97.414258 8.05888-142.0288 3.647716c-10.327609-1.615644-21.7088-2.162916-28.904107-9.201209-1.207182-1.558756-5.592178-10.390187-2.760249-10.469831 3.862756-0.108089 14.952676-4.7104 32.073956-6.237298-36.554524-3.935573-36.033422-3.888924-38.701511-10.5472-4.149476-10.336711-10.501689-24.464498-17.040498-36.826454 16.063147 1.353956 51.627804 3.350756 63.697351-9.105635 0 0-21.045476 2.430293-39.643591 0.249173-6.265742-0.735004-16.942649-4.545422-20.150045-5.723022-8.349013-3.251769-15.223467-4.262116-16.825457-6.382933-2.899058-7.378489-4.864-9.859982-8.362667-19.746134-4.74112-13.088996-5.116587-27.690098-6.018844-41.054435 12.166258 14.995911 27.66848 27.619556 48.191715 34.065066 0.262827-0.554098 26.624 11.460836 45.768249 5.282703l3.968569-1.281138c0 0.354987-12.683947 1.111609-17.33632-1.191253-38.933618-16.548978-44.794311-31.034027-51.080533-38.228196l-16.812943-25.182436c5.114311-10.194489 8.004267-10.582471 14.779734-10.676906 20.491378 2.275556 29.408142 4.027733 41.877049 1.019449 8.426382 17.339733 10.703076 34.781867 29.883733 47.402097 63.904427 18.969031 77.789867-5.633138 93.267058-27.37152 45.979876 33.744213 120.832 44.149191 172.817066 0.584818 66.08896-76.47232 87.012693-197.028978 81.152-203.912533-8.25344-14.002631-19.082809-28.443307-28.381866-26.447645-33.143467 9.047609-45.3632 25.861689-78.205156 22.027378 3.91168-0.221867 10.489173-0.32768 10.539236-0.700871 2.530418-27.807289-0.203662-41.263787-1.424498-43.573475-9.965796-21.978453-23.051378-45.108338-32.17408-62.441245-2.350649-3.596516-9.25696-30.908871-20.830436-41.698418-4.962987-4.237084-17.11104-15.412338-17.11104-15.412337l-1.029689 11.8784s4.749084 0.7168 6.557014 8.074808c6.851698 27.894898 41.741653 93.8496 44.302791 97.010347 12.365369 19.962311 1.256107 44.828444 10.657564 58.781013 0.903396 1.77152 19.17952-0.155876 33.344854 0.714525 23.293724-5.009636 22.311822-15.275804 42.432284-16.818631 13.554347-1.038791 14.913991 24.416711 14.73536 26.391893-2.525867 28.107662-11.076267 60.788053-24.161849 90.633102-27.206542 52.417422-57.673956 99.494116-100.886755 106.059094-52.708693 9.210311-80.098418-13.833102-108.671431-28.507023l-10.930632 9.322952c-37.133653 36.977778-81.224818 33.694151-99.258595-14.621583-8.977067-18.742613-20.675698-30.230756-30.692693-46.307555l-53.120569 38.260053c-4.421404 9.068089-9.858844 23.369956-16.463645 39.344356-4.590933 11.104711-8.442311 30.179556-8.192 46.029937-6.808462 11.599644 23.586133 58.643342 42.791822 87.258454 5.667271 8.442311 16.246329 23.1936 16.600178 24.112924 3.808142 9.879324 12.150329 18.601529 12.65664 19.665351 35.654542 46.503253-44.977493 35.794489-61.630009 32.984178-32.854471-5.233778-64.991004-18.957653-95.197866-37.308871a386.025244 386.025244 0 0 1-5.239467-3.240391c-35.896889-22.603093-68.926578-51.521991-97.011484-80.125725-16.745813-18.962204-32.690631-57.829831-44.467769-85.384533-17.650347-66.248249-42.980693-181.077333 25.636409-268.094578 4.349724-4.974364 9.043058-13.255111 13.038933-14.893511 20.386702-13.789867 42.524444-23.187911 66.330169-28.40576l-2.402987-15.43168c-11.88864 2.701084-51.920213 17.343147-63.238827 23.471218-25.739947 7.461547-47.090347 15.253049-79.894755 23.466667-10.663253 1.303893-21.153564 1.327787-31.378773-0.06144-23.598649-3.206258-63.822507-0.341333-66.388196-2.726116-15.978951-22.283378-20.353707-62.209138-34.933191-83.576604l-0.171805-0.212765-0.185457-0.202524c-8.4992-11.423289-18.405831-20.741689-28.162276-30.435556C62.181831 331.662222 32.278756 298.097778 23.906987 262.530844c-2.104889-10.501689-7.525262-21.378844-4.644409-52.451555l0.053475-0.152462 0.0512-0.151325c8.405902-29.028124 22.080853-52.690489 45.290383-76.405191 24.152747 0.38912 48.059733 0.920462 66.681742 4.477156 8.543573 1.429049 26.309973 3.750116 44.660053 10.585884 46.446364 17.302187 107.815822 45.748907 107.815822 45.748907-46.066347-25.299627-97.57696-58.157511-130.104889-64.78848-4.840107-0.684942-7.814258-2.893369-9.251271-6.747022 48.923307-28.744818 57.873067-62.588018 90.051698-92.940516 14.705778-6.401138 20.440178-9.668836 32.935253-11.027342 115.564089 18.272711 188.3136 64.301511 245.8624 95.079538 23.35744 12.702151 44.589511 22.307271 64.8704 33.875057 17.77664 5.848178 71.418311 46.34624 87.118507 68.181334 15.948231 33.672533 27.591111 70.045013 38.212267 105.143182 7.615147 35.697778 14.29504 50.178276 14.29504 50.178275s-6.472818-29.858702-5.393067-35.223324c6.709476 2.507662 22.573511 7.461547 29.149867 6.691271 0 0-29.375147-15.184782-33.223111-28.603733-12.352853-43.062613-24.740978-110.098204-28.080356-113.593458-9.415111-11.844267-48.671858-41.888427-72.751787-55.785244-9.109049-5.256533-14.032213-8.517404-14.415644-10.829369 7.691378-7.771022 17.191822-18.050844 25.710364-24.582827 8.165831-6.261191 15.600071-13.32224 26.980125-17.547947 50.020124-22.528 78.621582 8.667591 85.408427 2.350649 0 0-10.761102-12.334649-5.981298-10.303715 4.89472 2.651022 20.847502 5.777636 22.598542 7.405795 18.230613 14.260907 65.892124 66.382507 94.618738 121.378134 6.899484 13.471289 9.704107 22.341404 6.504675 38.562702-3.208533 16.236089-5.691164 25.164231-9.190969 36.007253-3.160747 7.248782-21.046613 56.875236-20.977208 63.542613-3.603342 27.229298 11.678151 61.318258 11.678151 61.318258 0.144498-9.253547-0.568889-14.183538 0.269653-20.800853l1.028551-11.824925s-0.651947-3.144818-0.534755-4.391822c0.777102-8.177209 2.783004-15.051662 3.371235-19.734755 5.743502-35.561244 15.726364-61.161244 27.050667-92.367076 3.365547-7.875698 7.768747-12.255004 7.543466-18.251093 0.185458-10.640498-9.334329-24.921884-16.214471-38.869902-6.940444-14.097067-15.234844-29.812053-26.123377-46.375823-24.826311-35.698916-45.988978-63.630222-84.741689-81.11104-10.843022-4.758187-53.509689-9.409422-68.243911-6.64576-17.874489 3.723947-33.245867 7.395556-45.499734 15.243947-19.285333 12.34944-34.440533 31.469796-52.212622 42.734933-39.3216-19.661938-58.299733-34.377956-61.838222-36.406613-23.369956-12.522382-51.427556-27.05408-81.6128-40.834844-14.472533-13.49632-104.3456-45.776213-186.641067-52.214898z m502.9888 733.400178c-24.234667-18.944-44.635022-38.445511-58.083555-58.527289-4.389547 23.617991-20.325262 40.438898-32.640569 56.983324-2.450773 3.879822-4.217742 9.170489 7.85408 26.031218 3.254044 4.491947 15.026631 5.259947 22.974009 4.846934-8.086187-6.111004-20.386702-12.57472-22.368711-18.177138 14.222222 9.682489 27.393138 12.466631 39.296569 10.906738 2.719289-0.306062 6.098489-3.190329 8.709688-7.629938 5.306596-11.400533 9.460622-14.145991 13.659023-17.214578l9.673386 12.118471z" p-id="7425"></path></svg>