<?xml version="1.0" standalone="no"?><!DOCTYPE svg PUBLIC "-//W3C//DTD SVG 1.1//EN" "http://www.w3.org/Graphics/SVG/1.1/DTD/svg11.dtd"><svg t="1730338015714" class="icon" viewBox="0 0 1024 1024" version="1.1" xmlns="http://www.w3.org/2000/svg" p-id="5419" xmlns:xlink="http://www.w3.org/1999/xlink" width="200" height="200"><path d="M0 0m320 0l384 0q320 0 320 320l0 384q0 320-320 320l-384 0q-320 0-320-320l0-384q0-320 320-320Z" fill="#4D4D4D" p-id="5420"></path><path d="M845.84 580.64l-63.28-275.52a50.24 50.24 0 0 0-32-34.48L461.04 181.44a33.44 33.44 0 0 0-12.24-1.44 54.96 54.96 0 0 0-33.84 12L208 385.04a49.36 49.36 0 0 0-13.6 44.64l67.6 294.96a50.56 50.56 0 0 0 32 34.56l270.48 83.36a33.68 33.68 0 0 0 12.24 1.44 54.8 54.8 0 0 0 33.92-12L832 626.08a50.4 50.4 0 0 0 13.84-45.44zM491.28 246.88l198.48 61.12c8 2.24 8 5.84 0 8l-104 24a28 28 0 0 1-24.48-7.2l-72.64-78.4c-6.72-6.4-5.28-9.68 2.64-7.52z m123.68 356.16c2.16 8-2.88 12.24-10.8 10.08l-214.32-66.24c-8-2.16-9.44-8.64-3.6-14.32l164-152.56c5.84-5.76 12.32-3.6 14.4 4.24zM261.76 408.72l174.16-161.84a14.8 14.8 0 0 1 20.88 1.12L544 341.84a14.8 14.8 0 0 1-0.64 20.88l-174.4 161.84a14.8 14.8 0 0 1-20.88-0.72L261.04 429.68a14.88 14.88 0 0 1 0.72-20.96zM304 665.6l-45.76-202.16c-2.16-8 1.44-9.44 6.48-3.6l72.64 78.4a28.72 28.72 0 0 1 5.84 25.2l-32 102.16c-1.92 7.84-5.52 7.84-7.2 0z m254.88 117.92l-227.36-69.76a15.2 15.2 0 0 1-10.08-18.64L360 572.8a15.04 15.04 0 0 1 18.64-10.08l226.96 69.76a15.12 15.12 0 0 1 10.4 18.64l-38.48 122.32a15.2 15.2 0 0 1-18.64 10.08zM760 618.08L608 759.12c-5.76 5.76-8.64 3.52-6.48-4.32l31.6-102.16a26.56 26.56 0 0 1 18.72-17.28l104-24c8.8-1.84 10.16 1.76 4.16 6.72z m16.56-30.16l-124.88 28.72a14.8 14.8 0 0 1-18-10.72l-53.2-232a14.72 14.72 0 0 1 10.8-17.92L716.4 328a14.72 14.72 0 0 1 18 10.72l53.2 232a14.08 14.08 0 0 1-10.8 17.2z" fill="#FFFFFF" p-id="5421"></path></svg>