<?xml version="1.0" standalone="no"?><!DOCTYPE svg PUBLIC "-//W3C//DTD SVG 1.1//EN" "http://www.w3.org/Graphics/SVG/1.1/DTD/svg11.dtd"><svg t="1730338069967" class="icon" viewBox="0 0 1024 1024" version="1.1" xmlns="http://www.w3.org/2000/svg" p-id="6430" xmlns:xlink="http://www.w3.org/1999/xlink" width="200" height="200"><path d="M524.780168 401.297267c50.609464-1.022413 85.882727-25.560335 111.954269-65.434459 20.448268-31.694816 28.627576-66.456872 28.627576-103.774962 0-17.892235 2.044827-34.762056 14.313788-49.075844 19.425855-22.493095 54.699118-29.138782 78.214626-13.291374 21.981889 14.824995 28.116369 48.564637 14.824995 72.591352-10.224134 18.403442-27.605162 26.582749-45.497397 34.25085-46.519811 18.914648-80.259453 51.120671-100.707722 96.106861-5.623274 12.780168-8.179307 27.605162-10.224134 41.407744-4.60086 31.183609-23.515509 38.340503-44.986191 41.407743-34.25085 5.112067-65.945666 16.358615-94.573241 36.295676-18.403442 12.780168-33.228436 29.649989-48.564637 46.008604-2.556034 2.556034-4.60086 5.112067-7.668101 7.668101-14.824995 14.313788-29.138782 16.869821-47.542224 8.179307-7.156894-3.06724-13.802581-6.645687-20.448268-10.224134-23.004302-13.291374-48.053431-13.291374-73.613766-10.735341-28.627576 3.06724-54.699118 12.268961-78.725834 28.116369-6.645687 4.60086-13.802581 9.201721-20.448268 13.802581-26.071542 17.892235-64.412045 9.712927-78.725833-18.403441-10.735341-20.959475-9.712927-44.98619 11.246547-65.434459 13.802581-13.802581 30.161196-22.493095 51.120671-21.470682 9.201721 0.511207 17.381028 3.578447 24.537922 9.712928 15.336201 12.780168 31.183609 25.049129 49.587051 31.694816 53.165498 18.914648 104.797375 19.425855 150.294773-17.892235 33.228436-27.093956 51.120671-63.389632 45.497397-106.330996-5.112067-40.896537-25.560335-75.147386-59.299979-99.685308-10.735341-7.668101-22.493095-14.313788-34.762056-19.937062-19.937062-9.201721-32.206023-24.026715-32.717229-46.008604-0.511207-24.026715 10.224134-42.941364 30.672402-55.210324 29.138782-17.892235 61.344805-10.224134 78.214627 17.892235 5.623274 9.712927 7.668101 20.448268 4.60086 31.694816-10.224134 41.407743-10.224134 82.815487 8.179308 122.68961 18.914648 41.407743 51.631878 62.878425 96.618068 63.389632zM494.618972 639.519593c-51.631878 2.044827-86.905141 29.649989-111.954269 72.591353-10.224134 17.381028-18.914648 36.295676-21.470682 56.232738-2.044827 16.358615-1.53362 32.717229-3.578447 49.075844-1.53362 10.735341-3.06724 21.981889-8.179308 31.694816-13.291374 25.560335-51.631878 37.829296-75.658593 26.582749-29.649989-13.291374-37.31809-50.098258-22.493095-77.70342 8.179307-15.336201 21.981889-24.026715 37.31809-30.161195 31.183609-11.757754 58.277565-29.649989 80.259453-55.210325 19.425855-23.004302 34.25085-48.053431 37.31809-79.23704 2.044827-20.448268 9.201721-38.340503 31.694816-44.474984 8.179307-2.556034 16.869821-4.089654 25.560336-5.623274 35.273263-6.134481 67.479286-19.425855 94.573241-42.941363 15.336201-12.780168 28.627576-28.116369 42.430157-42.430157 16.358615-16.869821 31.183609-19.937062 52.654291-9.712927 11.246548 5.623274 22.493095 12.268961 34.250849 15.847407 24.026715 7.668101 48.564637 6.134481 73.10256 1.533621 30.161196-6.134481 56.743945-19.425855 81.793073-37.829297 27.093956-19.937062 66.456872-12.268961 80.77066 15.847408 11.757754 23.004302 7.668101 51.631878-16.869821 71.057733-10.735341 8.690514-21.981889 14.313788-35.78447 15.847408-17.381028 2.044827-30.161196-6.134481-42.941363-16.358615-44.474984-35.273263-94.573241-45.497397-149.783566-29.649989-50.098258 14.313788-92.528414 70.035319-87.416347 125.75685 3.06724 33.739643 17.892235 63.389632 41.407743 87.927554 14.313788 14.824995 31.183609 25.560335 50.098258 34.25085 20.959475 9.201721 35.78447 23.515509 35.784469 48.053431 0 25.560335-12.780168 44.474984-35.273263 57.255151-26.071542 14.824995-59.811185 4.60086-73.613766-19.937062-5.623274-10.224134-7.668101-20.959475-4.60086-32.717229 8.179307-30.672403 9.712927-61.344805 2.556033-92.017208-7.668101-31.183609-22.493095-58.277565-49.587051-76.681006-19.425855-12.780168-40.38533-16.869821-62.367218-16.869822z" p-id="6431"></path><path d="M531.425855 340.974875c-42.941364 3.06724-76.681006-42.941364-60.322392-87.416347 6.645687-18.403442 19.937062-30.672403 34.25085-42.430157 12.268961-10.224134 25.049129-20.448268 32.717229-35.273263 10.735341-19.937062 9.712927-39.362917-2.044827-58.277565-4.60086-7.156894-9.201721-14.824995-15.336201-20.448268C496.663799 75.658593 509.443966 38.85171 532.448268 24.537922c25.560335-15.336201 56.232738-4.089654 64.412046 21.470682 6.134481 18.914648-0.511207 34.762056-13.802581 49.075844-9.712927 10.735341-19.937062 21.470682-27.605163 33.739643-13.291374 21.470682-8.179307 53.165498 12.780168 72.080146 5.623274 5.112067 10.735341 11.246548 16.869821 15.847408 25.560335 19.425855 28.627576 56.232738 13.291375 83.8379-12.268961 20.959475-38.340503 42.430157-66.968079 40.38533zM555.963777 760.675584c0 27.093956-10.735341 45.497397-28.627576 60.833598-8.690514 7.156894-17.381028 14.313788-25.560335 21.981889-12.268961 11.246548-20.448268 25.049129-23.515509 41.407743-2.556034 14.313788 2.556034 27.605162 9.712928 39.362917 4.089654 7.156894 9.201721 13.802581 14.824994 19.425855 19.425855 18.914648 15.336201 44.98619 0.511207 61.856011-12.268961 14.313788-28.116369 21.981889-47.542224 16.869822-38.85171-11.246548-38.340503-53.676704-18.914648-73.10256 7.156894-7.156894 13.802581-14.824995 20.959475-22.493095 24.026715-26.582749 21.981889-62.878425-4.089654-87.416347-5.623274-5.112067-10.735341-10.735341-16.358615-15.336201-28.627576-23.004302-27.093956-62.367219-10.73534-86.905141 18.403442-28.116369 44.474984-41.91895 78.214626-36.295676 28.627576 4.089654 52.143084 31.183609 51.120671 59.811185zM369.373328 395.673993c2.044827 40.896537-42.941364 87.927554-98.662895 71.057733-21.981889-6.645687-38.340503-28.116369-40.38533-50.609465-1.022413-13.802581-2.044827-27.605162-4.089654-41.407743-4.60086-30.161196-27.093956-48.053431-57.766358-46.519811-10.735341 0.511207-21.981889 2.556034-32.717229 4.600861-21.470682 4.60086-44.98619-13.291374-47.031017-35.78447-2.556034-32.717229 25.049129-59.299978 57.255151-54.187911 18.403442 3.06724 30.161196 14.313788 34.25085 37.31809 1.53362 9.201721 4.089654 17.892235 6.13448 26.582749 6.134481 24.026715 34.25085 40.38533 62.878425 34.762056 13.802581-2.556034 27.093956-7.156894 40.896537-10.224134 43.963777-8.690514 79.748247 19.425855 79.23704 64.412045zM653.604259 645.142867c-2.556034-47.031017 53.165498-92.017208 105.308582-68.501699 18.914648 8.690514 30.161196 24.026715 33.228436 44.986191 1.53362 14.313788 2.044827 28.627576 4.089653 42.941363 4.60086 29.138782 23.515509 47.542224 54.187912 47.031018 11.246548 0 22.493095-1.53362 33.739642-3.578447 24.537922-5.112067 39.874123 7.668101 47.031018 23.004301 8.179307 17.381028 2.044827 41.407743-13.291375 53.676705-13.802581 11.246548-29.138782 16.869821-46.51981 10.735341-13.802581-4.60086-23.515509-13.802581-26.582749-28.627576-2.044827-10.735341-3.578447-21.470682-7.156894-31.694816-8.690514-28.116369-33.739643-43.45257-64.412045-38.340503-13.802581 2.044827-26.582749 6.645687-39.874124 10.224134-42.430157 13.291374-81.281867-18.914648-79.748246-61.856012zM210.388041 696.774745c-29.138782 1.53362-51.120671 16.869821-61.856011 42.941364-5.623274 13.802581-11.757754 27.605162-19.937062 39.874123-9.712927 14.824995-33.739643 19.937062-50.609464 13.802581-16.358615-6.134481-27.605162-22.493095-26.582749-40.38533 1.53362-23.515509 20.448268-48.564637 47.542224-47.031017 11.757754 0.511207 23.515509 2.044827 35.273263 3.578447 30.161196 4.60086 53.165498-5.112067 66.968079-31.694816 7.668101-14.313788 12.268961-30.672403 16.358614-47.031018 10.224134-40.38533 53.676704-66.456872 93.550828-55.210324 28.627576 8.179307 47.542224 37.31809 43.963777 67.479285-3.578447 32.717229-24.537922 57.766358-56.232738 66.968079-18.403442 5.112067-36.295676 1.53362-54.187911-5.623273-10.735341-3.578447-22.493095-5.112067-34.25085-7.668101zM921.987781 335.351601c-11.757754-1.53362-24.026715-3.578447-35.78447-5.112067-33.228436-4.089654-59.811185 13.291374-72.080146 47.031018-3.578447 10.224134-6.645687 20.959475-8.690514 31.694816-6.134481 27.605162-23.515509 44.474984-49.587051 53.676704-20.448268 7.156894-40.896537 6.645687-59.811185-5.623274-19.425855-12.268961-27.605162-30.672403-28.116369-52.654291-0.511207-42.430157 34.25085-77.192213 76.681007-76.681006 9.712927 0 19.425855 3.578447 28.627576 6.645687 18.914648 6.134481 37.31809 11.246548 57.255151 5.623274 20.959475-5.623274 35.273263-18.914648 43.45257-38.85171 5.112067-12.268961 9.712927-24.537922 16.358615-35.273263 15.847408-25.560335 54.187911-27.605162 72.591353-4.60086 12.780168 16.358615 10.735341 41.91895-5.112067 58.788771-9.201721 10.224134-20.448268 16.358615-35.78447 15.336201zM674.052527 941.131552c0-14.824995 12.780168-27.093956 27.605162-27.093956 11.757754 0 23.004302 10.735341 22.493095 21.981889-0.511207 16.358615-12.268961 27.093956-27.093955 28.116369-11.246548 0.511207-23.515509-9.712927-23.004302-23.004302zM219.589762 960.0462c-13.802581-0.511207-23.515509-10.735341-22.493095-23.515508 0.511207-14.824995 13.802581-26.071542 29.138782-25.560336 12.268961 0.511207 21.470682 10.224134 20.959476 22.493095-0.511207 14.824995-13.291374 27.093956-27.605163 26.582749zM298.315595 104.286169c0-14.824995 12.268961-27.093956 27.605163-27.093956 12.268961 0 23.004302 10.224134 23.004302 21.981889 0 14.824995-13.291374 27.605162-28.627576 27.093955-11.757754 0-21.981889-10.224134-21.981889-21.981888zM1017.583436 530.121358c0 14.824995-12.780168 26.582749-28.116369 26.582749-12.268961 0-22.493095-10.735341-22.493096-23.004302 0.511207-14.313788 13.802581-26.582749 28.627576-26.582749 13.291374 1.022413 22.493095 10.224134 21.981889 23.004302zM32.488107 484.112754c12.780168 0 23.004302 9.712927 23.515508 22.493095 0.511207 13.802581-12.780168 26.071542-27.605162 26.582749-12.780168 0-22.493095-8.690514-23.004302-20.959475-0.511207-15.847408 11.246548-28.116369 27.093956-28.116369zM798.275757 129.846504c-13.291374 0-22.493095-9.201721-22.493095-21.981888 0-14.824995 12.780168-27.093956 28.116369-26.582749 12.780168 0.511207 21.981889 9.712927 21.981889 21.981888-0.511207 15.336201-11.757754 26.582749-27.605163 26.582749z" p-id="6432"></path></svg>