<?xml version="1.0" standalone="no"?><!DOCTYPE svg PUBLIC "-//W3C//DTD SVG 1.1//EN" "http://www.w3.org/Graphics/SVG/1.1/DTD/svg11.dtd"><svg t="1730338129286" class="icon" viewBox="0 0 1024 1024" version="1.1" xmlns="http://www.w3.org/2000/svg" p-id="7437" xmlns:xlink="http://www.w3.org/1999/xlink" width="200" height="200"><path d="M192 384V160a32 32 0 0 1 32-32h384v160a64 64 0 0 0 64 64h160v32h64V270a32 32 0 0 0-9-23L713 74a32 32 0 0 0-23-9H192a64 64 0 0 0-64 64v255z m480-256l160 160H704a32 32 0 0 1-32-32zM832 832v32a32 32 0 0 1-32 32H224a32 32 0 0 1-32-32v-32h-64v64a64 64 0 0 0 64 64h640a64 64 0 0 0 64-64v-64z" fill="#727484" p-id="7438"></path><path d="M394 523h-43v141h44q25 0 38-23t11-49q0-42-17-58t-33-11zM632 613q-9-6-23-6h-58v58h55q17 0 26-8t9-24q0-14-9-20z" fill="#4D9FFE" p-id="7439"></path><path d="M64 383v448h896V383z m213 256q0 34-17 51t-50 17q-48 0-63-28-9-16-9-59h42q0 28 4 38t22 13q16 0 21-10t4-22V486h45z m194 23q-23 39-71 39h-93V486h95q49 0 71 36t17 67q-1 43-19 73z m210 0a60 60 0 0 1-14 20q-11 10-22 14t-46 5h-91V486h105q35 0 53 19t14 36q0 20-10 32t-17 12q18 7 26 22t7 31a62 62 0 0 1-5 24z m77-16q14 22 41 22t31-10q12-10 17-30h45q-7 37-30 57t-64 22q-45 0-71-28t-28-84q0-55 29-85t71-28q44 0 71 26t23 50h-46q-4-16-11-23t-37-14q-21 0-35 15t-19 60q1 30 13 50z" fill="#4D9FFE" p-id="7440"></path><path d="M627 565q9-6 9-18t-8-18-25-5h-52v47h53q15-1 23-6z" fill="#4D9FFE" p-id="7441"></path></svg>