<?xml version="1.0" standalone="no"?><!DOCTYPE svg PUBLIC "-//W3C//DTD SVG 1.1//EN" "http://www.w3.org/Graphics/SVG/1.1/DTD/svg11.dtd"><svg t="1730338349785" class="icon" viewBox="0 0 1024 1024" version="1.1" xmlns="http://www.w3.org/2000/svg" p-id="10271" xmlns:xlink="http://www.w3.org/1999/xlink" width="200" height="200"><path d="M0 0m56.888889 0l910.222222 0q56.888889 0 56.888889 56.888889l0 910.222222q0 56.888889-56.888889 56.888889l-910.222222 0q-56.888889 0-56.888889-56.888889l0-910.222222q0-56.888889 56.888889-56.888889Z" fill="#4679FF" fill-opacity=".1" p-id="10272"></path><path d="M830.293333 372.54637c9.813333 4.484741 15.909926 12.657778 19.105186 23.134815 1.697185 5.56563 1.374815 8.210963-5.30963 7.537778-3.792593-0.379259-7.68-0.398222-11.472593 0-6.229333 0.663704-10.05037-0.625778-13.027555-7.262815-4.171852-9.320296-24.452741-11.52-31.924148-4.494222-5.973333 5.622519-4.712296 14.961778 2.749629 19.2 6.456889 3.65037 13.776593 4.864 20.859259 6.646518 8.969481 2.266074 17.540741 5.376 25.827556 9.604741 23.314963 11.899259 21.371259 47.255704 1.479111 60.017778-17.313185 11.102815-51.465481 11.690667-68.835555 0.474074-8.855704-5.69837-14.449778-13.75763-17.417482-23.74163-1.479111-4.987259-1.071407-8.315259 5.594074-7.23437 2.389333 0.379259 4.901926 0.056889 7.35763 0.056889 3.280593 0 6.561185 0.113778 9.832296-0.028445 2.806519-0.123259 4.001185 0.900741 5.281185 3.640889 6.428444 13.738667 26.04563 19.190519 39.016297 11.19763 8.495407-5.233778 8.324741-17.351111-0.417186-23.011556-4.807111-3.128889-10.164148-4.721778-15.597037-6.068148l-5.451851-1.327407a158.293333 158.293333 0 0 1-2.711704-0.673185c-7.367111-1.934222-14.601481-4.133926-21.371259-7.68-12.496593-6.523259-19.124148-16.327111-18.394075-30.767408 0.70163-13.729185 6.959407-24.158815 19.380149-29.658074 18.299259-8.097185 37.195852-7.888593 55.447703 0.436148z m-534.006518-3.072c7.10163 3.631407 9.092741 14.648889 13.293037 22.442667 11.614815 21.522963 23.201185 43.064889 34.797037 64.597333l1.28-0.284444v-72.846222c0.075852-15.113481 1.166222-14.91437 18.659555-15.104 5.707852-0.056889 7.272296 1.412741 7.234371 7.149037-0.284444 36.911407-0.284444 73.822815 0 110.743703 0.037926 5.95437-1.621333 6.921481-7.556741 7.917037-19.730963 3.280593-30.283852-4.683852-38.115555-22.59437-10.552889-24.177778-24.073481-47.075556-37.186371-72.182518-0.237037 3.811556-0.493037 6.011259-0.502518 8.220444-0.028444 26.330074-0.151704 52.650667 0.094814 78.980741 0.056889 5.290667-0.692148 7.499852-6.855111 7.405037-17.208889-0.256-18.299259 0-18.356148-14.819556v-3.166815c0-33.659259 0.123259-67.318519-0.142222-100.968296-0.037926-5.347556 1.403259-6.949926 6.750815-6.656 8.978963 0.512 19.437037-2.49363 26.605037 1.166222z m-52.318815 0.568889c3.565037 4.086519 1.137778 13.406815 1.185185 20.41363 0.075852 13.558519 0.018963 27.117037 0.018963 40.675555l-0.06637 27.249778c-0.009481 9.083259 0.018963 18.176 0.189629 27.249778 0.123259 6.011259-0.910222 9.178074-7.869629 8.210963-6.674963-0.929185-15.416889 2.825481-19.674074-1.450667-4.247704-4.266667-1.232593-12.894815-1.270519-19.598222-0.151704-32.540444 0.037926-65.080889-0.180148-97.621333-0.028444-5.091556 0.976593-7.49037 6.637037-6.826667 7.205926 0.872296 16.877037-3.081481 21.029926 1.697185z m246.234074 30.58726l0.265482 0.521481 0.616296 1.109333c0.284444 0.540444 0.483556 1.014519 0.32237 1.251556-3.944296 5.831111-11.282963 5.195852-16.687407 8.362667-1.98163 1.156741-4.408889 2.152296-6.011259-1.185186a30.113185 30.113185 0 0 0-4.446815-6.750814c-8.201481-9.367704-18.384593-14.762667-31.070815-12.306963-14.411852 2.797037-23.210667 12.373333-27.818667 25.818074-7.585185 22.186667 4.209778 46.411852 25.296593 52.366222 14.724741 4.16237 32.673185-4.702815 38.447407-18.75437 1.128296-2.730667 1.308444-4.086519-2.152296-3.934815-0.815407 0.037926-1.640296 0.018963-2.465185 0-19.181037-0.436148-19.181037-0.436148-23.277037-19.958519 17.351111 0 33.98163 0.170667 50.621629-0.104296 4.79763-0.075852 5.859556 1.564444 5.906963 6.068148 0.284444 28.681481-23.201185 57.192296-50.289777 60.653037-30.435556 3.896889-57.931852-14.866963-65.649778-44.781037-9.102222-35.271111 9.566815-70.191407 42.439111-79.42637 25.514667-7.158519 55.438222 6.921481 65.953185 31.051852zM122.842074 369.588148c2.635852 2.133333 2.465185 6.267259 1.98163 10.68563l-0.341334 2.958222a35.584 35.584 0 0 0-0.293926 5.707852c0.227556 4.323556 0.037926 8.666074 0.037926 14.364444l74.287408-35.053037c0 8.552296-0.293926 16.118519 0.104296 23.665778 0.284444 5.366519-3.792593 6.001778-7.035259 7.556741-21.750519 10.420148-43.548444 20.745481-66.455704 31.639703 17.957926 8.599704 34.49363 18.526815 52.356741 24.519112 18.356148 6.162963 24.519111 16.763259 21.029926 34.607407-0.151704 0.796444-0.227556 1.60237-0.493037 3.460741l-73.794371-34.759111c0 10.458074-0.199111 20.005926 0.094815 29.563259 0.123259 4.171852-1.024 5.376-5.376 5.470815-22.215111 0.493037-22.091852 0.644741-22.262518-21.380741-0.075852-8.912593 3.384889-19.607704-1.365334-26.216296-4.370963-6.087111-14.848-7.841185-22.613333-11.548445-1.915259-0.910222-3.754667-1.98163-6.33363-3.346963 7.632593-5.499259 15.872-8.609185 23.798519-11.975111 5.489778-2.341926 6.864593-5.357037 6.684444-10.81837l-0.142222-8.533334 0.056889-17.095111c-0.009481-2.844444-0.056889-5.688889-0.161185-8.533333-0.199111-5.243259 1.611852-6.542222 6.485333-6.181926 6.750815 0.483556 15.597037-2.11437 19.749926 1.242074z m415.744-1.298963c17.180444 0.407704 34.379852-0.161185 51.560296 0.322371 23.533037 0.673185 39.717926 16.820148 38.921482 38.134518a33.659259 33.659259 0 0 1-6.637037 18.820741c-1.34637 1.85837-3.252148 3.242667-0.369778 5.888 12.183704 11.178667 14.838519 24.907852 8.666074 39.841185-6.33363 15.322074-19.911111 21.352296-35.223704 22.167704-19.323259 1.033481-38.731852 0.113778-58.102518 0.38874-4.361481 0.06637-4.835556-1.886815-4.882963-4.645925v-1.441186c0.075852-18.972444 0.037926-37.944889 0.037926-56.926814 0-18.697481 0.161185-37.404444-0.104296-56.101926-0.075852-4.759704 0.796444-6.580148 6.134518-6.447408z m153.524148-7.054222l63.459556 132.513185c-8.89363 0-16.744296-0.227556-24.566519 0.094815-4.645926 0.180148-5.138963-3.375407-6.447407-6.07763-10.733037-22.091852-21.333333-44.231111-32.388741-67.195259-10.894222 22.632296-21.617778 44.411259-31.781926 66.446222-2.417778 5.233778-5.167407 7.338667-10.941629 6.855111-6.447407-0.530963-12.980148-0.123259-20.527408-0.123259L692.110222 361.244444z m258.133334 7.044741c5.726815-0.06637 6.599111 1.972148 6.561185 6.959407-0.104296 15.995259 0.085333 15.995259-16.156445 15.995259-15.018667 0-30.046815 0.18963-45.056-0.113777-4.664889-0.094815-5.878519 1.270519-5.840592 5.840592 0.227556 22.784 0.237037 45.577481 0 68.361482-0.047407 4.598519 1.204148 5.897481 5.850074 5.831111 18.289778-0.265481 36.598519 0.085333 54.878815-0.227556 5.091556-0.085333 6.362074 1.355852 6.352592 6.352593-0.037926 16.469333 0.18963 16.469333-16.687407 16.469333-23.476148 0-46.961778-0.18963-70.447408 0.142222-5.546667 0.075852-6.788741-1.649778-6.703407-6.855111 0.293926-18.716444 0.113778-37.44237 0.113778-56.158815 0-18.716444 0.161185-37.451852-0.104297-56.158814-0.06637-4.759704 0.83437-6.485333 6.144-6.428445 27.022222 0.303407 54.063407 0.32237 81.095112 0zM692.242963 459.216593c9.348741-0.018963 16.298667 7.082667 16.146963 16.51674-0.151704 9.310815-7.452444 16.384-16.64 16.118519-8.580741-0.265481-16.118519-7.774815-16.203852-16.175408-0.094815-8.741926 7.717926-16.431407 16.696889-16.459851z m-115.474963-17.891556c-15.445333 0.284444-16.469333 0.303407-16.535704 13.463704l-0.009481 3.034074c0 3.802074 0.06637 7.604148-0.018963 11.396741-0.047407 2.180741 0.350815 3.621926 3.053037 3.584 9.291852-0.151704 18.62163 0.436148 27.83763-0.398223 8.580741-0.786963 13.444741-6.769778 13.596444-14.573037 0.170667-8.476444-3.565037-13.558519-12.468148-15.407407-5.006222-1.042963-10.287407-0.777481-15.454815-1.099852z m380.09363-15.122963c-0.180148 14.980741 0.075852 15.976296-13.169778 16.042667h-17.730371c-8.163556 0-16.327111-0.170667-24.481185 0.075852-3.745185 0.113778-5.044148-0.739556-5.205333-4.835556-0.663704-17.066667-0.853333-18.119111 13.956741-18.185481h3.166815c11.96563 0 23.940741 0.227556 35.896888-0.104297 5.394963-0.151704 7.642074 0.967111 7.566223 7.006815z m-381.487408-36.939852c-14.108444-0.18963-15.075556-0.151704-15.141926 12.183704v2.939259c0 4.077037-0.028444 8.154074 0 12.231111 0.018963 1.801481-0.44563 4.143407 2.531556 3.982223 8.941037-0.474074 17.967407 1.327407 26.832592-1.40326 7.329185-2.275556 10.477037-7.111111 10.477037-14.525629 0-7.604148-3.868444-12.041481-10.903703-14.279111-4.532148-1.422222-9.197037-1.061926-13.795556-1.128297zM458.012444 569.457778c3.877926 0 5.906963 0.654222 6.068149 5.157926 0.06637 1.573926-0.123259 3.318519-0.350815 5.101037l-0.360297 2.683259c-0.568889 4.437333-0.862815 8.647111 2.133334 10.420148 5.489778 3.242667 14.26963 1.21363 21.617778 1.403259 3.726222 0.094815 7.442963 0.113778 11.150222 0 4.209778-0.142222 7.168 0.616296 7.300741 5.717334 0.151704 5.252741-2.863407 5.764741-7.054223 5.717333-10.30637-0.113778-20.622222-0.037926-32.170666-0.037926 6.267259 18.289778 16.516741 32.929185 32.483555 42.808889 8.305778 5.138963 8.00237 9.253926 2.275556 15.274667h-2.465185c-18.185481-7.68-28.596148-22.954667-39.253334-39.461926-9.908148 17.502815-20.138667 33.327407-40.06874 39.461926h-4.949334c-3.802074-6.371556-2.588444-9.927111 4.598519-14.089482 16.611556-9.595259 26.168889-24.661333 30.776889-43.994074-10.998519 0-20.868741-0.056889-30.738963 0.037926-4.02963 0.028444-7.168-0.094815-7.111111-5.537185 0.06637-5.110519 2.654815-5.992296 6.968888-5.916445 7.424 0.142222 14.980741-0.777481 22.262519 0.237037 9.91763 1.365333 12.022519-3.631407 12.069926-11.406222 0.018963-2.816 0.18963-5.641481 0-8.438518-0.218074-3.470222 0.919704-5.12 4.816592-5.129482z m-136.087703-0.066371c8.087704 0.094815 5.707852 5.613037 5.404444 9.225482-2.389333 29.297778 11.757037 51.048296 34.228148 67.868444 8.173037 6.106074 8.760889 10.277926 3.233186 17.218371h-2.474667c-20.830815-8.647111-30.435556-27.316148-40.922074-43.501037-7.850667 19.304296-20.280889 34.891852-40.865185 43.501037h-2.484149c-5.518222-7.49037-3.39437-11.757037 4.503704-17.123556 24.111407-16.365037 34.484148-39.822222 33.28-68.314074-0.170667-4.133926-1.573926-8.969481 6.096593-8.874667z m382.397629 26.728297c16.896 0.379259 33.820444 0.398222 50.716445 0 6.627556-0.161185 8.846222 2.076444 8.315259 8.305777-0.436148 5.195852-0.06637 10.439111-0.094815 15.663408-0.047407 16.734815-6.949926 22.063407-24.007111 19.000889-3.508148-0.625778-4.977778-1.782519-5.063111-5.281185-0.094815-3.944296 2.180741-4.266667 5.394963-4.740741 11.406222-1.678222 14.421333-6.912 12.117333-18.242371-0.976593-4.788148-3.972741-4.077037-7.177481-4.304592-36.977778-2.683259-39.300741-0.312889-37.025185 35.792592 0.44563 7.054222 2.778074 9.955556 10.37274 9.604741 11.52-0.540444 23.087407-0.284444 34.635852-0.094815 7.35763 0.123259 13.37837-1.251556 13.842963-9.86074 0.265481-5.025185 3.252148-5.935407 7.471408-5.527704 3.858963 0.379259 3.925333 2.218667 3.46074 4.209778l-0.474074 1.801481a8.334222 8.334222 0 0 0-0.227555 1.137778c-1.706667 15.796148-3.811556 17.654519-19.806815 17.711407-7.016296 0.018963-14.023111 0-21.029926 0-8.656593 0-17.332148-0.256-25.979259 0.075852-8.789333 0.331852-13.018074-3.185778-12.913778-11.946666 0.18963-15.265185 0.284444-30.53037-0.06637-45.795556-0.132741-5.650963 1.450667-7.651556 7.537777-7.509333z m-143.663407 0.094815c23.533037 0.094815 47.056593 0.085333 70.58963 0 3.887407 0 6.115556 0.843852 6.125037 5.328592 0 4.778667-2.901333 4.996741-6.418963 4.987259l-15.691852 0.066371c-2.607407-0.009481-5.224296-0.037926-7.841185-0.113778-4.911407-0.132741-6.352593 1.991111-6.466371 6.504296-0.113778 4.266667 2.161778 4.778667 4.968297 4.835556h1.441185c7.016296 0 14.051556-0.293926 21.048889 0.142222 3.318519 0.199111 8.732444-2.853926 9.054814 4.352 0.312889 7.063704-4.854519 4.93037-8.476444 5.101037-4.93037 0.237037-10.002963 0.682667-14.829037-0.075852-11.102815-1.744593-13.985185 2.465185-13.492148 13.018074 0.388741 8.429037 2.588444 11.501037 11.273481 10.628741 6.532741-0.654222 13.198222-0.312889 19.797334-0.047407a17.066667 17.066667 0 0 0 2.019555-0.085334l1.403259-0.104296c2.797037-0.170667 5.432889 0.161185 5.508741 4.987259 0.094815 5.546667-2.939259 5.82163-6.106074 5.56563l-1.46963-0.132741a18.906074 18.906074 0 0 0-2.085925-0.113778c-11.96563 0.237037-23.940741 0.094815-35.906371 0.094815h-37.148444c-3.678815 0-7.414519 0.758519-7.414519-5.110518 0-5.774222 3.602963-5.195852 7.338667-5.186371 5.783704 0.018963 11.557926 0 17.332148 0 15.265185 0 18.261333-4.219259 15.29363-19.389629-0.805926-4.124444-2.996148-4.16237-5.30963-4.020148l-1.28 0.075851h-0.625778c-7.841185-0.151704-15.691852-0.06637-23.533037-0.047407-3.441778 0.009481-6.409481 0.037926-6.551703-4.816593-0.151704-5.025185 2.901333-4.835556 6.324148-4.835555 8.248889 0.028444 16.516741-0.056889 24.765629 0.037926 3.593481 0.037926 6.352593 0.018963 6.162963-4.920889-0.170667-4.380444-1.099852-6.684444-6.219852-6.475852-7.831704 0.303407-15.691852 0.142222-23.523555 0.028444-3.166815-0.047407-6.807704 0.568889-7.016296-4.456296-0.227556-5.138963 2.654815-5.840593 6.959407-5.831111z m62.388148 38.485333c2.844444 0 5.688889-0.037926 8.533333 0.009481h1.289482c2.341926 0.018963 4.465778 0.246519 4.513185 3.944297 0.047407 3.963259-1.327407 5.793185-5.56563 5.669926-5.688889-0.180148-11.377778-0.104296-17.066666-0.018963-3.944296 0.06637-7.205926-0.018963-7.035259-5.413926 0.161185-5.233778 3.821037-4.020148 6.798222-4.171852 2.844444-0.132741 5.688889-0.028444 8.533333-0.018963z m-39.992889 4.693333c0 4.380444-2.152296 4.911407-4.683852 4.920889l-1.403259-0.028444c-0.474074-0.009481-0.948148-0.018963-1.422222 0-2.455704 0.056889-4.911407 0-7.376593 0-2.872889 0-5.745778-0.113778-8.618666 0.018963-4.096 0.199111-5.95437-1.384296-5.916445-5.556149 0.018963-3.356444 1.801481-3.915852 3.915852-4.010666l1.289482-0.018963h0.654222c5.328593-0.06637 10.666667-0.151704 15.995259 0.009481 3.309037 0.104296 7.585185-1.517037 7.566222 4.664889z m192.151704-57.268148c2.948741 2.692741 1.592889 4.67437-0.720593 6.912-2.512593 2.417778-4.731259 4.570074-7.945481 0.919704-16.497778-18.773333-38.561185-6.779259-57.931852-9.500445-2.427259-0.341333-5.594074 4.171852-8.38163 6.494815-2.901333 2.417778-4.759704 6.665481-9.86074 1.934222-4.807111-4.465778-1.488593-6.324148 1.118814-9.528889 6.068148-7.49037 13.24563-11.311407 23.381334-9.955555 5.660444 0.758519 11.52 0.142222 17.294222 0.142222 6.191407 0 12.553481 0.910222 18.526815-0.18963 12.126815-2.256593 17.540741 6.371556 24.519111 12.771556z m-140.8-4.882963l2.133333 2.133333c0.711111 0.711111 1.422222 1.422222 2.161778 2.123852 3.413333 3.252148 1.877333 5.18637-0.70163 7.717926-2.62637 2.588444-4.835556 4.096-7.917037 0.587852-11.150222-12.714667-24.841481-11.235556-38.53274-9.803852l-3.906371 0.398222c-5.195852 0.502519-10.363259 0.796444-15.350518 0.094815-2.673778-0.369778-6.504296 4.389926-9.14963 7.319704-3.489185 3.849481-5.973333 4.124444-9.889185 0.274963-4.465778-4.427852-0.123259-6.001778 1.896296-8.580741 5.840593-7.509333 13.008593-11.472593 23.172741-10.116741 6.049185 0.815407 12.306963 0.151704 18.469926 0.151704 5.755259 0 11.70963 0.948148 17.21837-0.18963 9.472-1.953185 15.03763 2.616889 20.385185 7.888593z" fill="#4679FF" p-id="10273"></path></svg>