<?xml version="1.0" standalone="no"?><!DOCTYPE svg PUBLIC "-//W3C//DTD SVG 1.1//EN" "http://www.w3.org/Graphics/SVG/1.1/DTD/svg11.dtd"><svg t="1730338462008" class="icon" viewBox="0 0 1024 1024" version="1.1" xmlns="http://www.w3.org/2000/svg" p-id="11267" xmlns:xlink="http://www.w3.org/1999/xlink" width="200" height="200"><path d="M272.64 802.133333a101.546667 101.546667 0 0 1-80.085333-38.869333l218.197333-233.685333 17.493333 17.066666 5.205334 4.736a123.306667 123.306667 0 0 0 70.954666 29.013334l7.594667 0.341333a123.562667 123.562667 0 0 0 72.277333-24.362667l6.272-4.992 5.205334-4.736 17.493333-17.066666 218.197333 233.685333a101.546667 101.546667 0 0 1-73.173333 38.613333l-6.912 0.256H272.64zM184.490667 308.565333l189.696 185.258667-0.554667 0.512-202.368 216.704A105.386667 105.386667 0 0 1 170.666667 699.434667l0.725333-340.736c0-15.573333 3.541333-30.421333 9.770667-43.690667l3.328-6.485333v0.042666z m655.018666 0l3.328 6.485334c5.205333 11.008 8.533333 23.125333 9.514667 35.925333l0.256 7.722667 0.725333 340.693333-0.128 5.888-0.469333 5.802667-202.325333-216.746667-0.597334-0.512 189.696-185.301333v0.042666z m-371.2 205.184l-4.522666-3.968-243.968-238.336c16.213333-10.112 34.986667-15.488 54.144-15.445333h476.032c17.408 0 33.792 4.352 48.128 11.946667l6.016 3.498666-243.925334 238.378667-4.565333 3.968c-10.88 8.704-24.021333 14.08-37.888 15.402667l-5.802667 0.341333a72.234667 72.234667 0 0 1-43.690666-15.786667h0.042666z" p-id="11268"></path></svg>