<?xml version="1.0" standalone="no"?><!DOCTYPE svg PUBLIC "-//W3C//DTD SVG 1.1//EN" "http://www.w3.org/Graphics/SVG/1.1/DTD/svg11.dtd"><svg t="1730338585123" class="icon" viewBox="0 0 1024 1024" version="1.1" xmlns="http://www.w3.org/2000/svg" p-id="15185" xmlns:xlink="http://www.w3.org/1999/xlink" width="200" height="200"><path d="M914.337109 34.133333c20.411733 0 38.0928 7.304533 53.0432 21.981867 15.018667 14.677333 22.459733 32.494933 22.459734 53.521067v804.727466c0 21.026133-7.509333 38.912-22.459734 53.521067-15.018667 14.677333-32.631467 21.981867-53.0432 21.981867H108.653909a71.68 71.68 0 0 1-52.565333-21.981867A72.840533 72.840533 0 0 1 34.106709 914.363733V109.636267c0-21.026133 7.304533-38.912 21.981867-53.521067A71.68 71.68 0 0 1 108.653909 34.133333h805.6832z m-580.949333 433.425067a78.6432 78.6432 0 1 0-41.096533 23.074133L385.611776 656.725333a98.304 98.304 0 1 0 114.2784-14.7456L574.778709 354.645333c5.7344-0.2048 11.400533-1.024 16.930134-2.4576l95.778133 148.821334a78.6432 78.6432 0 1 0 39.594667-25.6L631.917909 327.0656a78.6432 78.6432 0 1 0-102.468266 15.018667l-75.093334 287.880533a98.372267 98.372267 0 0 0-27.511466 3.549867L333.387776 467.626667z" fill="#FF6A00" p-id="15186"></path></svg>