<?xml version="1.0" standalone="no"?><!DOCTYPE svg PUBLIC "-//W3C//DTD SVG 1.1//EN" "http://www.w3.org/Graphics/SVG/1.1/DTD/svg11.dtd"><svg t="1730338636082" class="icon" viewBox="0 0 1024 1024" version="1.1" xmlns="http://www.w3.org/2000/svg" p-id="16177" xmlns:xlink="http://www.w3.org/1999/xlink" width="200" height="200"><path d="M44.16 0h935.68c24.32 0 44.16 19.84 44.16 44.16v935.68a44.16 44.16 0 0 1-44.16 44.16H44.16a44.16 44.16 0 0 1-44.16-44.16V44.16C0 19.84 19.84 0 44.16 0z" fill="#FFFFFF" p-id="16178"></path><path d="M254.592 288.256a314.88 314.88 0 0 1 446.4 0 316.8 316.8 0 0 1 0 447.68 315.072 315.072 0 0 1-446.4-0.192L53.12 533.568a30.592 30.592 0 0 1 0-43.2z m398.592 59.392a231.36 231.36 0 0 0-327.936 0L177.28 496.128a22.592 22.592 0 0 0 0 31.744l148.224 148.672a231.36 231.36 0 0 0 327.936 0 232.96 232.96 0 0 0-0.192-328.896z m-162.112 8.448c86.08 0 155.904 70.848 155.904 158.208 0 87.424-69.76 158.272-155.904 158.272-86.144 0-155.968-70.848-155.968-158.272 0-87.36 69.824-158.208 155.968-158.208zM966.208 492.8l-89.856-90.24a7.488 7.488 0 0 0-12.672 7.04 477.952 477.952 0 0 1 0 209.472c-1.664 7.488 7.424 12.352 12.672 7.04l89.856-90.176a30.656 30.656 0 0 0 0-43.136z" fill="#4FC4F9" p-id="16179"></path></svg>