<?xml version="1.0" standalone="no"?><!DOCTYPE svg PUBLIC "-//W3C//DTD SVG 1.1//EN" "http://www.w3.org/Graphics/SVG/1.1/DTD/svg11.dtd"><svg t="1730338716994" class="icon" viewBox="0 0 1024 1024" version="1.1" xmlns="http://www.w3.org/2000/svg" p-id="18084" xmlns:xlink="http://www.w3.org/1999/xlink" width="200" height="200"><path d="M753.240276 127.117241V25.423448h37.428965V282.482759h-34.957241v-21.892414c-12.711724 17.655172-31.77931 26.835862-56.496552 26.835862-26.835862 0-48.022069-9.533793-63.205517-28.601379-14.124138-17.655172-21.186207-40.606897-21.186207-68.502069 0-26.835862 6.708966-49.081379 20.833104-66.736552 14.830345-19.067586 35.663448-28.601379 61.793103-28.601379 22.245517 0 40.96 10.593103 55.790345 32.132413z m-13.064828 14.830345c-9.18069-11.29931-20.48-16.595862-34.251034-16.595862-18.361379 0-32.132414 6.002759-40.96 18.714483-7.768276 10.593103-11.652414 26.129655-11.652414 46.256552 0 20.126897 3.531034 35.663448 10.946207 46.962758 8.474483 13.064828 22.245517 19.773793 40.606896 19.773793 16.242759 0 28.601379-6.708966 37.782069-19.420689 7.768276-11.652414 11.652414-26.482759 11.652414-44.844138v-3.177931c0-19.773793-4.943448-35.663448-14.124138-47.668966z" p-id="18085"></path><path d="M440.143448 123.586207c15.889655-19.067586 37.782069-28.601379 66.030345-28.601379 23.304828 0 42.01931 5.296552 56.143448 15.889655 14.124138 11.29931 23.304828 28.248276 26.835862 50.846896h-37.075862c-2.471724-12.358621-7.415172-21.53931-15.183448-27.188965-7.768276-6.002759-18.008276-8.827586-30.72-8.827586-15.536552 0-27.542069 5.649655-36.369655 17.302069-9.18069 11.29931-13.417931 27.542069-13.417931 48.022069 0 20.48 4.237241 36.722759 13.064827 48.375172 8.121379 11.29931 20.126897 17.302069 36.369656 17.302069 27.895172 0 43.431724-14.124138 46.962758-41.666207h37.075862c-4.237241 24.364138-13.771034 42.725517-27.895172 54.731034-14.124138 11.652414-33.191724 17.655172-56.496552 17.655173-27.895172 0-49.434483-9.18069-64.971034-27.542069-15.183448-17.655172-22.598621-40.253793-22.598621-68.502069 0-27.542069 7.415172-50.14069 22.245517-67.795862zM848.083862 123.586207c15.889655-19.067586 37.782069-28.601379 66.030345-28.601379 23.304828 0 42.01931 5.296552 56.143448 15.889655 14.124138 11.29931 23.304828 28.248276 26.835862 50.846896h-37.075862c-2.471724-12.358621-7.415172-21.53931-15.183448-27.188965-7.768276-6.002759-18.008276-8.827586-30.72-8.827586-15.536552 0-27.542069 5.649655-36.369655 17.302069-9.18069 11.29931-13.417931 27.542069-13.417931 48.022069 0 20.48 4.237241 36.722759 13.064827 48.375172 8.121379 11.29931 20.126897 17.302069 36.369655 17.302069 27.895172 0 43.431724-14.124138 46.962759-41.666207h37.075862c-4.237241 24.364138-13.771034 42.725517-27.895172 54.731034-14.124138 11.652414-33.191724 17.655172-56.496552 17.655173-27.895172 0-49.434483-9.18069-64.971034-27.542069-15.183448-17.655172-22.598621-40.253793-22.598621-68.502069 0-27.542069 7.415172-50.14069 22.245517-67.795862zM385.588966 873.683862s-88.558345-71.468138-128.706207-207.483586c-0.706207-2.930759-3.954759-4.025379-6.497104-2.224552-10.134069 6.991448-32.873931 27.153655-31.426207 74.081104 0 0 3.601655 47.668966-7.23862 47.668965s-39.759448-33.015172-43.396414-121.008552c0-41.94869 11.475862-72.280276 18.961655-92.089379 3.636966-9.604414 6.355862-16.772414 6.355862-21.53931 0-7.344552-7.238621-14.653793-15.819034-23.375449-8.580414-8.721655-18.537931-18.785103-23.940414-31.638069-4.237241-10.028138-8.474483-25.070345-13.170759-41.736827-7.273931-25.847172-15.607172-55.437241-26.58869-75.564138-5.755586-10.451862-14.37131-21.645241-23.022344-32.873931-18.679172-24.187586-37.464276-48.587034-27.61269-66.100966 14.477241-25.670621 72.315586 10.981517 112.075034 43.99669 0 0 46.962759-7.344552 90.394483 14.653793 43.361103 21.998345 130.118621 73.304276 191.558621 161.297655 35.416276 50.740966 57.626483 112.428138 74.963862 160.485518 12.711724 35.310345 22.775172 63.276138 33.474207 74.151724 13.382621 13.559172 32.414897 20.374069 52.647724 27.612689 18.078897 6.461793 37.111172 13.27669 54.024828 25.52938 9.957517 7.20331 19.350069 13.135448 28.354207 18.820413 18.926345 11.970207 36.016552 22.775172 52.965517 41.666207 0 0-86.757517 0-122.915311 21.998345 0 0 18.078897 73.339586 108.438069 102.647173C800.909241 994.692414 811.784828 1024 811.784828 1024s-3.636966-43.99669-68.678621-84.321103c-65.076966-40.324414-66.877793-53.142069-66.877793-53.142069s75.917241-7.344552 112.039724-25.670621c0 0-36.157793-58.650483-101.199448-98.974897-20.48-13.241379-37.111172-18.679172-51.411862-23.304827-13.453241-4.413793-24.823172-8.121379-35.345656-17.054897-8.968828-7.556414-21.009655-36.369655-36.652138-73.833931-22.245517-53.21269-51.694345-123.798069-89.864827-175.421793-65.076966-87.993379-195.195586-194.312828-281.953104-172.314483 0 0-108.473379-87.993379-148.232827-36.652138 0 0-32.520828 36.652138 28.954483 98.974897 10.381241 10.522483 18.926345 34.639448 29.166344 63.488 14.689103 41.419034 32.838621 92.548414 64.794483 127.117241 0 0-25.317517 69.66731-21.680552 117.336276l0.423725 5.790897c3.531034 48.16331 9.074759 123.091862 64.617931 137.180689 42.548966 10.769655 42.089931-29.943172 41.736827-61.016275-0.141241-11.193379-0.247172-21.150897 1.659586-26.977104l0.741518 1.518345c6.355862 12.994207 52.541793 107.731862 131.566345 146.961655z" p-id="18086"></path><path d="M221.113379 428.279172c-3.636966-29.307586-28.954483-43.99669-28.954482-43.996689s18.114207-18.361379 36.193103 3.672276c18.043586 21.998345-7.238621 40.324414-7.238621 40.324413z" p-id="18087"></path></svg>