<?xml version="1.0" standalone="no"?><!DOCTYPE svg PUBLIC "-//W3C//DTD SVG 1.1//EN" "http://www.w3.org/Graphics/SVG/1.1/DTD/svg11.dtd"><svg t="1730339227192" class="icon" viewBox="0 0 1110 1024" version="1.1" xmlns="http://www.w3.org/2000/svg" p-id="27293" xmlns:xlink="http://www.w3.org/1999/xlink" width="216.796875" height="200"><path d="M556.882441 0C249.838644 0 0 249.842983 0 556.882441c0 195.662102 102.347932 367.238508 252.854237 466.575186l27.09261-18.058847c6.018169-3.011254 15.051932-9.033763 21.070102-12.040678 9.029424-3.011254 18.063186-9.033763 24.081356-12.040678 9.029424-3.011254 18.063186-6.022508 27.09261-12.040678 6.018169-3.011254 15.051932-6.022508 21.070102-9.033763 9.029424-3.006915 21.070102-6.018169 30.103864-9.029424 9.025085-3.011254 15.047593-3.011254 24.081356-6.018169 9.025085-3.011254 15.047593-3.011254 24.081356-6.022509 9.025085-3.011254 18.058847-3.011254 27.088271-3.011254 9.033763 0 21.074441-3.006915 30.103865-3.006915V602.033898h-30.103865v-60.20339h150.510644V939.172881c84.284746 12.040678 159.540068 42.144542 228.772882 84.284746 153.517559-99.336678 252.854237-270.913085 252.854237-466.575186C1113.764881 249.838644 863.917559 0 556.882441 0zM722.440678 556.882441c0-90.307254-75.255322-165.558237-165.558237-165.558238-90.307254 0-165.558237 75.250983-165.558238 165.558238 0 63.214644 36.122034 120.40678 90.302916 147.49939v33.10644c-69.232814-30.099525-120.40678-99.332339-120.40678-180.60583 0-108.366102 87.296-195.662102 195.662102-195.662102s195.662102 87.296 195.662101 195.662102c0 69.232814-36.122034 129.436203-90.307254 165.558237v-36.122034c36.122034-33.11078 60.20339-78.262237 60.20339-129.436203z m-60.20339 328.109559v-33.115119c123.418034-42.140203 210.714034-159.535729 210.714034-298.005695 0-171.580746-141.48122-313.057627-316.068881-313.057627-174.592 0-316.068881 141.476881-316.068882 316.068882 0 147.49939 102.347932 273.924339 240.81356 307.035118v30.103865c-153.517559-33.11078-270.913085-171.580746-270.913085-337.138983 0-192.650847 153.51322-346.168407 346.164068-346.168407s346.172746 153.51322 346.172745 346.164068c0 153.521898-102.343593 285.969356-240.813559 328.113898z" fill="#E44A49" p-id="27294" data-spm-anchor-id="a313x.search_index.0.i16.4b603a81D1vU0D" class="selected"></path></svg>