<?xml version="1.0" standalone="no"?><!DOCTYPE svg PUBLIC "-//W3C//DTD SVG 1.1//EN" "http://www.w3.org/Graphics/SVG/1.1/DTD/svg11.dtd"><svg t="1730339408961" class="icon" viewBox="0 0 1024 1024" version="1.1" xmlns="http://www.w3.org/2000/svg" p-id="30017" xmlns:xlink="http://www.w3.org/1999/xlink" width="200" height="200"><path d="M465.92 78.72c232.32 0 423.04 57.6 432.64 129.92l0.64 5.76v135.68c-4.48 73.6-197.12 132.48-433.28 132.48-230.4 0-418.56-56.32-432.64-126.72L32 350.08V214.4c0.64-74.88 194.56-135.68 433.92-135.68zM35.2 425.6c21.76 61.44 169.6 110.72 359.04 120.32-42.24 39.04-69.12 93.44-72.96 154.24l-0.64 13.44v-7.04C160.64 688.64 43.52 641.28 32 585.6V440.96c0-5.12 1.28-10.88 3.2-15.36z m634.88 215.04h-30.72v163.2h30.72c46.72 0 72.32-17.92 72.32-81.28 0-67.2-26.88-81.92-72.32-81.92z m1.92-38.4c69.76 0 117.12 19.84 117.12 120.32 0 92.8-46.72 120.32-117.12 120.32H593.92V602.24h78.08z m262.4-3.84c23.04 0 40.32 2.56 55.04 7.68v39.68a155.52 155.52 0 0 0-52.48-8.32c-47.36 0-69.12 20.48-69.12 84.48 0 67.84 21.12 84.48 67.2 84.48 21.12 0 38.4-2.56 56.96-9.6v39.04c-14.08 5.76-35.2 10.24-58.88 10.24-69.12 0-113.92-23.04-113.92-123.52 0-92.8 44.8-124.16 115.2-124.16z m-440.96 0c23.04 0 40.32 2.56 55.04 7.68v39.68a155.52 155.52 0 0 0-52.48-8.32c-47.36 0-69.12 20.48-69.12 84.48 0 67.84 21.12 84.48 67.2 84.48 21.12 0 38.4-2.56 56.96-9.6v39.04c-14.08 5.76-35.2 10.24-58.88 10.24-69.12 0-113.92-23.04-113.92-123.52 0.64-92.8 45.44-124.16 115.2-124.16z m-458.24 58.24c19.2 54.4 136.32 98.56 293.12 115.2a230.272 230.272 0 0 0 198.4 172.16c-19.84 0.64-40.32 1.28-61.44 1.28-229.76 0-418.56-56.96-432.64-128.64l-0.64-6.4V672c0-4.48 1.28-10.24 3.2-15.36z" p-id="30018"></path></svg>