<?xml version="1.0" standalone="no"?><!DOCTYPE svg PUBLIC "-//W3C//DTD SVG 1.1//EN" "http://www.w3.org/Graphics/SVG/1.1/DTD/svg11.dtd"><svg t="1730339609875" class="icon" viewBox="0 0 1024 1024" version="1.1" xmlns="http://www.w3.org/2000/svg" p-id="33718" xmlns:xlink="http://www.w3.org/1999/xlink" width="200" height="200"><path d="M832 0a192 192 0 0 1 192 192v640a192 192 0 0 1-192 192H192a192 192 0 0 1-192-192V192a192 192 0 0 1 192-192h640z m-59.2 382.72l-65.28 22.688 0.064-0.032a1073.728 1073.728 0 0 0-396.416 260.48A272.64 272.64 0 0 0 772.8 382.72zM290.88 636.352c-2.176 4.352-4.32 8.768-6.4 13.248L252.992 713.6H128l57.344 11.776a79.104 79.104 0 0 1 47.2 29.824l50.304-58.88c9.28-10.336 18.688-20.48 28.32-30.496a273.024 273.024 0 0 1-20.32-29.536z m234.368-411.968A272.64 272.64 0 0 0 290.88 636.288c27.776-56.128 59.392-99.84 100.48-134.4a87.36 87.36 0 0 0-54.72-53.952l-31.808-10.624h200.544c49.536-18.656 108.768-32.48 180.992-43.392l48.896-8.672 34.176-9.6a272.608 272.608 0 0 0-244.192-151.296z m369.376 116.128l-125.184 35.168c1.184 2.336 2.304 4.704 3.392 7.072l121.792-42.24z" fill="#3E71F9" p-id="33719"></path></svg>