<svg xmlns="http://www.w3.org/2000/svg" width="170.515" height="49.001" viewBox="0 0 170.515 49.001"><g id="Grupo_3" data-name="Grupo 3" transform="translate(4233.975 2905.858)"><g id="Grupo_1" data-name="Grupo 1" transform="translate(-4144.059 -2868.53)"><path id="Trazado_1" data-name="Trazado 1" d="M-2872.322-2329.7a3.092,3.092,0,0,1-3.177,3.28,2.5,2.5,0,0,1-1.989-.826v.723h-1.756v-8.755h1.834v3.073a2.452,2.452,0,0,1,1.911-.774A3.092,3.092,0,0,1-2872.322-2329.7Zm-1.859,0a1.6,1.6,0,0,0-1.627-1.756,1.61,1.61,0,0,0-1.627,1.756,1.6,1.6,0,0,0,1.627,1.756A1.61,1.61,0,0,0-2874.181-2329.7Z" transform="translate(2879.243 2335.822)" fill="#0051ff"></path><path id="Trazado_2" data-name="Trazado 2" d="M-2766.517-2299.094l-2.867,6.74a2.639,2.639,0,0,1-2.634,1.989,2.88,2.88,0,0,1-1.782-.568l.672-1.317a1.584,1.584,0,0,0,1.033.414c.516,0,.8-.233,1.033-.8l.026-.051-2.763-6.4h1.911l1.782,4.313,1.782-4.313Z" transform="translate(2780.798 2302.038)" fill="#0051ff"></path><path id="Trazado_3" data-name="Trazado 3" d="M-2598.325-2327.887l-2.711,8.264h-2.066l-1.808-5.6-1.885,5.6h-2.04l-2.712-8.264h1.989l1.859,5.811,1.937-5.811h1.782l1.885,5.862,1.937-5.862Z" transform="translate(2629.314 2328.92)" fill="#0051ff"></path><path id="Trazado_4" data-name="Trazado 4" d="M-2399.881-2342.418a1.063,1.063,0,0,1,1.136-1.033,1.011,1.011,0,0,1,1.136.981,1.053,1.053,0,0,1-1.136,1.059A1.044,1.044,0,0,1-2399.881-2342.418Zm.233,1.911h1.833v6.353h-1.833Z" transform="translate(2431.697 2343.451)" fill="#0051ff"></path><path id="Trazado_5" data-name="Trazado 5" d="M-2352.022-2294.425l.62-1.317a4.363,4.363,0,0,0,2.195.62c.853,0,1.163-.232,1.163-.568,0-1.033-3.848.026-3.848-2.505,0-1.214,1.085-2.066,2.944-2.066a5.541,5.541,0,0,1,2.454.542l-.62,1.317a3.522,3.522,0,0,0-1.833-.465c-.826,0-1.187.258-1.187.594,0,1.085,3.848.026,3.848,2.531,0,1.188-1.11,2.014-3,2.014A5.672,5.672,0,0,1-2352.022-2294.425Z" transform="translate(2387.015 2303.128)" fill="#0051ff"></path><path id="Trazado_6" data-name="Trazado 6" d="M-2241.653-2330.167v3.642h-1.833v-3.357c0-1.033-.465-1.5-1.291-1.5-.878,0-1.524.542-1.524,1.7v3.151h-1.833v-8.755h1.833v3.073a2.814,2.814,0,0,1,2.014-.749A2.463,2.463,0,0,1-2241.653-2330.167Z" transform="translate(2290.023 2335.822)" fill="#0051ff"></path><path id="Trazado_7" data-name="Trazado 7" d="M-2118.65-2297.37a3.092,3.092,0,0,1-3.177,3.28,2.453,2.453,0,0,1-1.911-.774v2.97h-1.834v-8.651h1.756v.723a2.5,2.5,0,0,1,1.988-.826A3.093,3.093,0,0,1-2118.65-2297.37Zm-1.86,0a1.6,1.6,0,0,0-1.627-1.756,1.61,1.61,0,0,0-1.627,1.756,1.6,1.6,0,0,0,1.627,1.756A1.61,1.61,0,0,0-2120.51-2297.37Z" transform="translate(2175.594 2303.491)" fill="#0051ff"></path><path id="Trazado_8" data-name="Trazado 8" d="M-2010.01-2297.37a3.273,3.273,0,0,1,3.486-3.28,3.274,3.274,0,0,1,3.486,3.28,3.273,3.273,0,0,1-3.486,3.28A3.273,3.273,0,0,1-2010.01-2297.37Zm5.113,0a1.6,1.6,0,0,0-1.627-1.756,1.61,1.61,0,0,0-1.627,1.756,1.6,1.6,0,0,0,1.627,1.756A1.61,1.61,0,0,0-2004.9-2297.37Z" transform="translate(2067.703 2303.491)" fill="#0051ff"></path><path id="Trazado_9" data-name="Trazado 9" d="M-1879.8-2297.479v3.641h-1.833v-3.357c0-1.033-.465-1.5-1.291-1.5-.878,0-1.524.542-1.524,1.7v3.151h-1.834v-6.353h1.756v.749a2.76,2.76,0,0,1,2.092-.827C-1880.907-2300.294-1879.8-2299.416-1879.8-2297.479Z" transform="translate(1952.184 2303.135)" fill="#0051ff"></path><path id="Trazado_10" data-name="Trazado 10" d="M-1762.241-2335.669v8.755H-1764v-.723a2.5,2.5,0,0,1-1.989.826,3.092,3.092,0,0,1-3.176-3.28,3.092,3.092,0,0,1,3.176-3.28,2.49,2.49,0,0,1,1.911.775v-3.073Zm-1.808,5.6a1.6,1.6,0,0,0-1.627-1.756,1.61,1.61,0,0,0-1.627,1.756,1.6,1.6,0,0,0,1.627,1.756A1.61,1.61,0,0,0-1764.048-2330.065Z" transform="translate(1842.84 2336.186)" fill="#0051ff"></path></g><path id="Trazado_11" data-name="Trazado 11" d="M-4233.975-2893.894h11.067a21.907,21.907,0,0,1,4.377.421,9.963,9.963,0,0,1,3.6,1.452,7.354,7.354,0,0,1,2.44,2.778,9.506,9.506,0,0,1,.905,4.4,10.145,10.145,0,0,1-.842,4.376,7.183,7.183,0,0,1-2.314,2.82,9.392,9.392,0,0,1-3.493,1.494,20.477,20.477,0,0,1-4.377.442h-4.8v11.615h-6.564Zm6.564,12.625h4.377a8.445,8.445,0,0,0,1.7-.169,4.519,4.519,0,0,0,1.473-.568,3.031,3.031,0,0,0,1.052-1.094,3.462,3.462,0,0,0,.4-1.746,2.955,2.955,0,0,0-.526-1.831,3.5,3.5,0,0,0-1.346-1.073,5.762,5.762,0,0,0-1.831-.484,18.8,18.8,0,0,0-1.936-.105h-3.367Z" transform="translate(0 -11.17)" fill="#0051ff"></path><path id="Trazado_12" data-name="Trazado 12" d="M-3876.917-2743.321a10.072,10.072,0,0,1-3.83,2.988,11.478,11.478,0,0,1-4.8,1.052,12.892,12.892,0,0,1-4.44-.758,10.68,10.68,0,0,1-3.619-2.167,10.158,10.158,0,0,1-2.42-3.387,10.714,10.714,0,0,1-.884-4.419,10.719,10.719,0,0,1,.884-4.419,10.171,10.171,0,0,1,2.42-3.388,10.7,10.7,0,0,1,3.619-2.167,12.9,12.9,0,0,1,4.44-.757,10.109,10.109,0,0,1,3.977.757,8.293,8.293,0,0,1,3.03,2.167,9.889,9.889,0,0,1,1.915,3.388,13.67,13.67,0,0,1,.673,4.419v1.978h-14.645a5,5,0,0,0,1.641,2.883,4.643,4.643,0,0,0,3.114,1.073,4.741,4.741,0,0,0,2.63-.695,7.074,7.074,0,0,0,1.873-1.788Zm-5.345-9.006a3.657,3.657,0,0,0-1.052-2.735,3.742,3.742,0,0,0-2.82-1.136,4.739,4.739,0,0,0-1.852.336,4.658,4.658,0,0,0-1.368.863,3.778,3.778,0,0,0-.884,1.22,4,4,0,0,0-.358,1.452Z" transform="translate(-314.696 -135.483)" fill="#0051ff"></path><path id="Trazado_13" data-name="Trazado 13" d="M-3537.41-2760.238h6.313v3.282h.084a7.759,7.759,0,0,1,2.4-2.841,6.065,6.065,0,0,1,3.493-.947q.546,0,1.094.042a5.447,5.447,0,0,1,1.01.168v5.765a9.637,9.637,0,0,0-1.326-.316,8.6,8.6,0,0,0-1.367-.105,6.711,6.711,0,0,0-2.862.505,3.8,3.8,0,0,0-1.62,1.41,5.36,5.36,0,0,0-.737,2.167,21.1,21.1,0,0,0-.168,2.778v8.543h-6.313Z" transform="translate(-650.333 -135.483)" fill="#0051ff"></path><path id="Trazado_14" data-name="Trazado 14" d="M-3298.9-2754.22a4.469,4.469,0,0,0-3.661-1.726,3.441,3.441,0,0,0-1.557.379,1.339,1.339,0,0,0-.757,1.3,1.171,1.171,0,0,0,.778,1.115,10.26,10.26,0,0,0,1.978.631l2.567.589a9.677,9.677,0,0,1,2.567.989,5.753,5.753,0,0,1,1.978,1.831,5.463,5.463,0,0,1,.778,3.093,5.729,5.729,0,0,1-.863,3.261,6.613,6.613,0,0,1-2.209,2.062,9.492,9.492,0,0,1-3.03,1.094,18.007,18.007,0,0,1-3.324.316,16.092,16.092,0,0,1-4.335-.61,8.091,8.091,0,0,1-3.7-2.167l3.829-4.25a6.358,6.358,0,0,0,1.957,1.662,5.28,5.28,0,0,0,2.5.568,5.851,5.851,0,0,0,1.978-.316,1.164,1.164,0,0,0,.884-1.157,1.284,1.284,0,0,0-.778-1.2,8.577,8.577,0,0,0-1.978-.673q-1.2-.274-2.567-.59a10.606,10.606,0,0,1-2.567-.947,5.361,5.361,0,0,1-1.978-1.788,5.455,5.455,0,0,1-.779-3.093,6.234,6.234,0,0,1,.737-3.114,6.472,6.472,0,0,1,1.936-2.146,8.384,8.384,0,0,1,2.757-1.241,12.633,12.633,0,0,1,3.156-.4,14.824,14.824,0,0,1,4.082.589,7.581,7.581,0,0,1,3.493,2.1Z" transform="translate(-861.07 -135.483)" fill="#0051ff"></path><path id="Trazado_15" data-name="Trazado 15" d="M-3020.029-2901.646a3.527,3.527,0,0,1,1.073-2.588,3.528,3.528,0,0,1,2.588-1.073,3.529,3.529,0,0,1,2.588,1.073,3.527,3.527,0,0,1,1.073,2.588,3.527,3.527,0,0,1-1.073,2.588,3.527,3.527,0,0,1-2.588,1.073,3.527,3.527,0,0,1-2.588-1.073A3.527,3.527,0,0,1-3020.029-2901.646Zm.505,6.439h6.313v20.452h-6.312Z" transform="translate(-1133.374 -0.515)" fill="#0051ff"></path><path id="Trazado_16" data-name="Trazado 16" d="M-2868.386-2754.22a4.47,4.47,0,0,0-3.661-1.726,3.44,3.44,0,0,0-1.557.379,1.339,1.339,0,0,0-.757,1.3,1.172,1.172,0,0,0,.778,1.115,10.26,10.26,0,0,0,1.978.631l2.567.589a9.673,9.673,0,0,1,2.567.989,5.753,5.753,0,0,1,1.978,1.831,5.463,5.463,0,0,1,.779,3.093,5.728,5.728,0,0,1-.863,3.261,6.611,6.611,0,0,1-2.209,2.062,9.489,9.489,0,0,1-3.03,1.094,18.009,18.009,0,0,1-3.324.316,16.093,16.093,0,0,1-4.335-.61,8.091,8.091,0,0,1-3.7-2.167l3.83-4.25a6.344,6.344,0,0,0,1.957,1.662,5.276,5.276,0,0,0,2.5.568,5.849,5.849,0,0,0,1.978-.316,1.164,1.164,0,0,0,.884-1.157,1.284,1.284,0,0,0-.779-1.2,8.575,8.575,0,0,0-1.978-.673q-1.2-.274-2.567-.59a10.6,10.6,0,0,1-2.567-.947,5.359,5.359,0,0,1-1.978-1.788,5.455,5.455,0,0,1-.779-3.093,6.232,6.232,0,0,1,.737-3.114A6.467,6.467,0,0,1-2878-2759.1a8.378,8.378,0,0,1,2.756-1.241,12.631,12.631,0,0,1,3.156-.4,14.823,14.823,0,0,1,4.082.589,7.577,7.577,0,0,1,3.493,2.1Z" transform="translate(-1263.009 -135.483)" fill="#0051ff"></path><path id="Trazado_17" data-name="Trazado 17" d="M-2597.071-2833.328h-5.555v6.817a12.764,12.764,0,0,0,.084,1.536,3.088,3.088,0,0,0,.379,1.2,1.908,1.908,0,0,0,.9.779,4,4,0,0,0,1.62.273,10.92,10.92,0,0,0,1.326-.1,2.244,2.244,0,0,0,1.241-.484v5.26a9.544,9.544,0,0,1-2.188.5,20.115,20.115,0,0,1-2.23.127,12.139,12.139,0,0,1-2.945-.337,6.709,6.709,0,0,1-2.357-1.073,5.025,5.025,0,0,1-1.578-1.915,6.543,6.543,0,0,1-.568-2.861v-9.721h-4.04v-5.05h4.04v-6.06h6.313v6.06h5.555Z" transform="translate(-1513.409 -57.343)" fill="#0051ff"></path><path id="Trazado_18" data-name="Trazado 18" d="M-2328.294-2893.894h6.565v29.795h-6.565Z" transform="translate(-1779.198 -11.17)" fill="#0051ff"></path><g id="Grupo_2" data-name="Grupo 2" transform="translate(-4097.578 -2905.858)"><path id="Trazado_19" data-name="Trazado 19" d="M-2163.418-2881.564h-.046a8.834,8.834,0,0,1-8.834-8.834,8.834,8.834,0,0,1,8.834-8.834,8.833,8.833,0,0,1,8.017,5.124l7,.048a15.485,15.485,0,0,0-15.019-11.8,15.478,15.478,0,0,0-15.461,15.461,15.478,15.478,0,0,0,15.461,15.461h.046Z" transform="translate(2178.925 2905.858)" fill="#0051ff"></path><path id="Trazado_20" data-name="Trazado 20" d="M-1906.84-2691.742l-.865-.887a15.359,15.359,0,0,0,2.241-8,15.527,15.527,0,0,0-.124-1.925l-6.726-.046a8.858,8.858,0,0,1,.223,1.97,8.837,8.837,0,0,1-7.052,8.654v6.7a15.368,15.368,0,0,0,6.731-2.461l4.941,5.214h.555a4.23,4.23,0,0,0,1.875-.515,5.236,5.236,0,0,0,2.538-3.335l.21-.724Z" transform="translate(1936.386 2716.095)" fill="#05d8ff"></path></g></g></svg>