<?xml version="1.0" standalone="no"?><!DOCTYPE svg PUBLIC "-//W3C//DTD SVG 1.1//EN" "http://www.w3.org/Graphics/SVG/1.1/DTD/svg11.dtd"><svg t="1730339946463" class="icon" viewBox="0 0 1024 1024" version="1.1" xmlns="http://www.w3.org/2000/svg" p-id="37307" xmlns:xlink="http://www.w3.org/1999/xlink" width="200" height="200"><path d="M862.5405222 555.22310982v-0.35614167h0.25493458c0.2000694 0 0.30127647-0.08659007 0.3012765-0.2586042 0-0.17076238-0.10003472-0.25610083-0.30010422-0.25610078H862.44048738v0.87084665h0.10003482z m0.25008676-0.44273178h-0.25008676v-0.34152486h0.25008676c0.06955531 0 0.1207451 0.01336526 0.15489993 0.0426723 0.03414875 0.02563152 0.05118965 0.06830378 0.05118962 0.12683847 0 0.05861407-0.0170347 0.10128638-0.0500173 0.12934174-0.03415482 0.02805537-0.08534452 0.04267231-0.15607225 0.04267235z m0.48219866 0.44281113v-0.40623846h0.50376977v0.40623846h0.10003473V554.35226305h-0.10003473v0.37809766H863.27280762v-0.37809766h-0.10003479v0.87084677h0.10003479z m2.33245013-0.00007935v-0.0865169h-0.53791871v-0.31964221h0.48790131v-0.08659009h-0.48790131v-0.29150744h0.51720844v-0.08659013H864.96730446v0.87084677z m0.20999726 0V554.50723627h0.00366954l0.49525241 0.71603232h0.10245257V554.35226305h-0.10002864v0.70868109h-0.0036023l-0.49282249-0.70868109h-0.10488254v0.87084677z m0.817862 0V554.35233636h-0.09878913v0.87077346z m0.23172112 0l0.25860415-0.3731765 0.25977643 0.37325585h0.12324833l-0.32331777-0.45250086 0.30010416-0.41842514h-0.12308962l-0.2366422 0.33910071-0.235476-0.33918015h-0.12316899l0.297607 0.41842524-0.32081456 0.45250085zM862.49144491 554.21260277l0.02649248-0.0697141h0.11425473l0.02657178 0.0697141h0.03095559l-0.09793449-0.24883513h-0.03305585l-0.09799548 0.24883518h0.03071124z m0.13175976-0.09378254H862.52700426l0.04767274-0.12442052h0.00148364l0.04704406 0.12442052z m0.13473911 0.09378254v-0.10175649h0.07284032c0.05712434 0 0.08604065-0.02477049 0.0860405-0.07392701 0-0.04877181-0.02852549-0.07315161-0.08573531-0.07315163H862.72934497v0.24883518h0.02860497z m0.07142991-0.12652705h-0.07143603v-0.09761082h0.07143603c0.01984942 0 0.03453968 0.00390761 0.04423529 0.0121869 0.00976899 0.00735124 0.01469015 0.01953804 0.01469018 0.03626747 0 0.01672334-0.00492114 0.0289162-0.01429947 0.03696348-0.00976899 0.00804725-0.02438592 0.01219292-0.04454664 0.01219297z m0.12934172 0.12652705l0.02649228-0.0697141h0.11426081l0.02657179 0.0697141h0.03094333l-0.09792218-0.24883513h-0.03313515l-0.09792841 0.24883518h0.03071136z m0.13168623-0.09378254H862.99426849l0.0476728-0.12442052h0.00140422l0.0470501 0.12442052z m0.19795699 0.09863042c0.02657175 0 0.04954726-0.00766255 0.06869445-0.02266405 0.02055765-0.01602115 0.03345281-0.0386853 0.03907623-0.06760164H863.36854397a0.08213915 0.08213915 0 0 1-0.02961841 0.04923585c-0.01391473 0.01039179-0.03063807 0.01563037-0.05056699 0.01563042-0.02922764 0-0.05118965-0.00976899-0.06650876-0.02891625-0.01469015-0.01813373-0.02164442-0.04291038-0.02164432-0.07393925 0-0.03101661 0.00734506-0.05572 0.02196188-0.07454987 0.01563037-0.02024625 0.03797708-0.03032672 0.06689338-0.03032667 0.01953804 0 0.03595001 0.00453649 0.04947398 0.01391478a0.06385271 0.06385271 0 0 1 0.02657174 0.04181139h0.02750581a0.08768915 0.08768915 0 0 0-0.03344663-0.05924304c-0.01883583-0.01461082-0.04220219-0.02188267-0.06971408-0.02188251-0.03829455 0-0.06830378 0.01282183-0.08924608 0.03931416-0.01914726 0.02375092-0.02860489 0.05399824-0.02860496 0.09096785s0.00906681 0.06689946 0.02790284 0.08987494c0.02055158 0.02547879 0.05017002 0.03837398 0.0888552 0.03837389z m0.16880852-0.00484783v-0.11605596h0.14387941v0.11605596h0.02860487v-0.24883518h-0.02860487v0.10800859h-0.14395876v-0.10800859h-0.0285255v0.24883518h0.0285255z m0.41186178 0v-0.02477669h-0.15372156v-0.09127927h0.13942216v-0.02477664h-0.13942216v-0.08330532h0.14778082v-0.02469726h-0.1763064v0.24883518h0.1822532z" fill="#ffffff" p-id="37308"></path><path d="M765.54749855 61.88668055c-2.64735327 7.83864751-4.23576519 15.40842309-7.73523518 22.02680623-58.50237003 111.188836-34.25013251 215.49455345 7.73523518 330.60064489 15.8841194 43.41659309 40.98020089 91.97070604 40.98020081 139.9374375 0 33.51797386-13.76623682 66.55611499-16.67832534 100.76488259-10.2709033 121.45560273-40.76923986 176.57432438-193.78625703 229.78612459-153.07079148 53.21180005-347.49406779-23.18915974-358.61295137-182.72114776-3.70629454-54.37415358 51.67716249-161.48854747-27.74343464-143.11426146-25.09608142 5.82417712 51.67716249-119.66036627 68.67399766-144.65303546l0.57910841-1.05894128c9.95653005-13.44359069 15.99166816-31.66069012 15.99166822-51.7268004 0-29.65035628-13.23676618-55.32968261-32.56244485-67.4040952 1.48499969-17.62971797 10.43222633-33.51383737 14.61421721-38.22529884 23.6152182-26.31634575 51.30487849-33.78270917 81.64602842-23.93372796 29.06711127 9.42705938 61.41859509 20.33084556 98.1588942 32.71963151-11.22229583 11.22643228-25.72896427 29.12088563-36.37215157 40.45486663a46.85815231 46.85815231 0 0 0-9.10441328 14.24193307 5983.01831561 5983.01831561 0 0 0-88.5291468 234.82023208c-48.07428016 135.70167235 45.85298537 268.23065727 176.6280988 281.88934547 81.64602845 8.57907906 165.62503683-54.16319264 185.00035338-134.00984816 6.46119653-26.57694459 22.18399281-54.84984988 18.53147265-80.37198972-8.4715304-59.56544781-8.4715304-90.32851971-18.53147265-135.12256373-15.72693283-69.89012541-67.24277221-146.66336933-59.72263441-226.66307499 8.20679502-88.26441148 51.462065-153.49684991 127.60242598-197.60010027a12.02063825 12.02063825 0 0 1 4.65768711-1.48086314c1.58841197-0.16132307 3.17682387 0.26473538 8.57907909 0.84384381z" fill="#EF2F24" p-id="37309"></path><path d="M277.26801291 261.97694735l-73.91492967 38.54380856c49.24077023-16.25640351 83.60258796-7.14785372 102.98204096 27.47869929 19.37945299 34.57691522 9.69179476 12.55010897-29.12088564-66.02250785z m339.390685-134.32835781c-5.82417712 30.28737559-11.22643228 60.7319378-17.62971795 90.9117648a322.34007546 322.34007546 0 0 0 17.62971795 194.47291411c12.33501149 30.02264029 19.80137487 62.15902673 27.90475772 93.71630461 3.33401053 12.97203086 2.53980452 27.00300303 4.12821648 47.65235822-34.46936644-64.33068368-67.56128189-120.77308199-95.56945184-179.64773599-32.14052287-67.66883058-19.27604074-133.95607383 18.26673727-196.11923697 11.64835424-19.21812988 26.52730672-36.42592592 39.92125948-54.53547674l5.34848089 3.54910796m-5.40225518 491.61349607c-5.29470646-7.88828535-10.37431553-15.8841194-16.0413061-23.50766939-19.06094331-25.57591417-35.47453334-54.00600599-58.08458453-75.9252636-80.47953839-77.83218516-82.17136254-167.36649894-44.68649539-264.20585303 3.44155922-9.00100107 7.83864751-17.47253135 10.58941296-23.45389508 2.96586293 38.22116237 1.85314727 79.04831307 10.48600075 117.64175948 7.88828535 35.21393452 25.83651303 68.19830129 40.23976919 101.81968736 19.85514926 46.49000475 40.87265204 92.55395106 60.62438917 139.09359368 3.28023611 7.73109874 2.53980452 17.15402171 3.70629447 25.83651299l-6.83348052 2.64735324m-94.45673622-79.57778365c29.91509156 32.56244484 53.0546134 71.37098867 79.20963614 107.42876701l-6.72593181 5.55944179c-36.95539657-25.94406172-77.72463644-48.02464231-109.49287533-79.26341044-20.54180654-20.16952249-32.29770951-52.62855506-39.71029856-81.64189196-6.51083437-25.25740448-1.37745101-53.47653534-1.37745097-80.47953844 14.08474651 50.61822113 43.10221996 90.32851971 78.09692053 128.39663204z" fill="#EF2F24" p-id="37310"></path><path d="M808.64144547 589.557955c0 188.17304079-121.88166112 340.71436163-307.88304495 340.71436161-186.05929472 0-297.40531719-152.5413208-297.40531728-340.71436161 0-11.85931522 0.52947067-23.56144377 1.48499966-35.10224928h118.33668977a238.79126192 238.79126192 0 0 0-5.29470644 50.61822114c0 116.48354249 81.85285287 210.994053 198.39016962 210.99405301 116.48354249 0 182.2950893-100.59942295 182.29508934-217.08296547 0-15.35464878-1.16235353-30.28737559-3.4374227-44.52930868h111.9292675c1.05894126 11.54080553 1.58841197 23.24293415 1.58841196 35.10224928z" fill="#EF2F24" p-id="37311"></path></svg>