<?xml version="1.0" standalone="no"?><!DOCTYPE svg PUBLIC "-//W3C//DTD SVG 1.1//EN" "http://www.w3.org/Graphics/SVG/1.1/DTD/svg11.dtd"><svg t="1730340001925" class="icon" viewBox="0 0 1024 1024" version="1.1" xmlns="http://www.w3.org/2000/svg" p-id="39204" xmlns:xlink="http://www.w3.org/1999/xlink" width="200" height="200"><path d="M728.974544 0a432.776831 432.776831 0 0 0-120.601429 17.983462l3.072098-0.768267-2.687964 0.8643a451.231729 451.231729 0 0 0-72.54012-7.039537h-0.416145C485.531878 10.175658 442.366331 22.399057 407.551807 42.6815c-34.306226-11.899408-105.465987-32.409809-180.469993-28.314325-52.220815 2.84802-109.210318 18.721658-151.448513 63.324796C33.524121 122.266007 11.253108 191.253862 15.956804 285.136672c1.279475 25.88633 8.671135 68.124524 20.894534 122.841237S66.289933 526.728513 87.764548 585.124565c21.470735 58.461045 44.9572 110.937949 81.691421 146.583792 18.333644 17.887429 43.613703 32.893856 73.372409 31.646392 20.894534-0.8643 39.806319-10.015602 56.093191-23.550487 7.935849 10.463758 16.414917 15.007397 24.158699 19.230925a117.074385 117.074385 0 0 0 29.01857 11.35619c17.63134 4.383584 47.773209 10.271691 83.099911 4.255539a157.306549 157.306549 0 0 0 37.346312-11.519155c0.480167 14.079075 1.024356 27.87102 1.567575 41.82205 1.759642 44.189903 2.84802 85.019608 16.126817 120.825507 2.143775 5.856096 7.96786 35.965954 31.00617 62.556528 23.03831 26.622586 68.188547 43.229569 119.578043 32.222593 36.254054-7.775793 82.395666-21.758835 113.017702-65.372538 30.302895-43.101525 43.933814-104.922768 46.621778-205.172881 0.672234-5.40794 1.503553-10.015602 2.335843-14.335164l7.199593 0.640223h0.8643c38.68593 1.759642 80.668035-3.743362 115.737678-20.063215 31.070192-14.367175 54.556657-28.926417 71.675819-54.748725 4.25554-6.402225 8.959235-14.111086 10.23968-27.422863s-6.367304-34.1452-19.038859-43.741748c-25.375122-19.294948-41.341883-11.931419-58.461045-8.416016a258.965152 258.965152 0 0 1-50.941341 6.208219h-0.320111c49.309743-83.0679 84.699497-171.28668 104.860686-249.362785 11.931419-46.076619 18.654726-88.570903 19.198914-125.721268s-2.463887-70.044222-24.735869-98.522483C909.480428 25.59823 811.65831 1.023386 735.98304 0.194007c-2.335842-0.032011-4.703695-0.097003-7.039537-0.160056z m-1.98372 27.294819c71.579786-0.672234 163.062731 19.422993 228.724339 103.322212 14.751308 18.846792 19.166904 46.429712 18.654726 80.379935-0.544189 33.918212-6.81546 74.523839-18.302604 119.033853-22.271013 86.171039-64.349152 186.6462-123.607564 276.81766a31.277779 31.277779 0 0 0 6.527359 3.584276l0.224078 0.064022c12.383455 5.11984 40.573616 9.506334 96.858875-2.047742 14.175108-2.976065 24.541863-4.991795 35.29372 3.201112a22.171099 22.171099 0 0 1 7.839816 16.927095c0 0.416145 0 0.832289-0.032012 1.280445v-0.064022a29.827578 29.827578 0 0 1-5.600006 14.431197l0.064022-0.097003c-10.879902 16.350895-32.350637 31.838459-59.868564 44.574036-24.347856 11.359099-59.293334 17.279217-90.267493 17.63134-15.520545 0.160056-29.854739-1.024356-42.014117-4.83174l-0.768267-0.29101c-4.703695 45.213289-15.487564 134.521418-22.527101 175.25509-5.632018 32.861845-15.487564 58.973223-34.302346 78.492248-18.78277 19.551037-45.341334 31.326281-81.116191 39.006041-44.285936 9.506334-76.571581-0.736256-97.403063-18.270592-20.76649-17.503295-30.301925-40.701661-35.997965-54.90878-3.935428-9.823535-5.98414-22.527102-7.935849-39.518219s-3.42422-37.757607-4.383584-61.18102c-0.928323-23.838588-1.439531-51.805641-1.439531-79.899768q0-14.638785 0.194007-29.214517v1.471542a130.285279 130.285279 0 0 1-65.43656 32.318626l-0.768267 0.128044c-29.406584 4.991795-55.645036 0.097003-71.292656-3.839395a96.232232 96.232232 0 0 1-22.687157-8.82731l0.512178 0.256089c-7.263615-3.871406-14.175108-8.287971-18.78277-16.927095a23.776506 23.776506 0 0 1-2.910103-11.455132 25.31207 25.31207 0 0 1 0.512178-4.959785l-0.032011 0.160056a26.082277 26.082277 0 0 1 9.247335-14.079075l0.064023-0.032011c8.447057-6.879482 19.615059-10.719847 36.473281-14.207119 30.686059-6.305222 41.373894-10.623813 47.901254-15.774695 5.535985-4.447606 11.807255-13.407811 22.911235-26.526552-0.032011-0.416145-0.097003-1.024356-0.128044-1.631598v-0.128044a125.542782 125.542782 0 0 1-57.404678-15.617549l0.640223 0.320111c-6.402225 6.751437-39.070063 41.309872-78.939435 89.243137-16.767039 20.063215-35.29372 31.58237-54.812746 32.382648-19.551037 0.8643-37.214388-8.991246-52.220816-23.550488-29.982784-29.150495-53.917405-79.259546-74.779928-135.928937C93.040563 517.093164 76.113468 453.992446 64.082135 400.236067 52.018791 346.477747 44.88322 303.120134 43.858864 282.224629c-4.479617-88.826992 16.286872-148.696526 51.933686-186.454133 35.677854-37.757607 84.571452-52.06173 132.215647-54.780735 85.531786-4.895762 166.775052 24.929876 183.189968 31.326281 31.646392-21.502746 72.444086-34.910557 123.388337-34.048197a317.944195 317.944195 0 0 1 73.916598 9.759513l-2.175787-0.480167 0.864301-0.388014a261.19138 261.19138 0 0 1 29.534628-8.735157l1.983719-0.388013c26.398508-6.463337 56.829447-10.367724 88.123718-10.783869h0.29101z m6.463337 28.606306h-6.243139a375.028761 375.028761 0 0 0-75.164062 8.639123l2.463887-0.448155c53.149138 23.550488 93.307579 59.804542 121.593773 95.994573a356.147047 356.147047 0 0 1 47.389076 79.579657l0.896311 2.335843a194.179485 194.179485 0 0 1 9.631469 28.158149 56.196015 56.196015 0 0 1 1.695619 10.079624 18.742029 18.742029 0 0 1-0.512178 6.143226c0 0.128045-0.224078 0.416145-0.256089 0.544189 1.280445 37.374444-7.96786 62.716584-9.087279 98.394439-0.8643 25.854319 5.760062 56.221236 7.39166 89.371181 1.535564 31.138094-2.207798 65.372538-22.431069 98.943477 1.69562 2.047742 3.232154 4.095484 4.863751 6.143226 53.50126-84.251341 92.056235-177.494898 112.634539-256.978522 11.006977-42.778504 16.863073-81.563377 17.375251-112.282416 0.416145-30.71807-5.279896-52.989082-12.575522-62.30044-57.240742-73.214293-134.740646-91.869019-199.665028-92.317174zM529.113569 66.812068c-50.429162 0.128045-86.624045 15.35952-114.042058 38.173752-28.286194 23.582499-47.261031 55.901125-59.740519 88.952126-14.815331 39.26213-19.871148 77.214714-21.88688 103.0021l0.544189-0.352122a220.832141 220.832141 0 0 1 56.669392-22.014924c21.406712-4.895762 44.510014-6.431326 65.404549 1.663609s38.173752 27.166775 44.445992 56.093191c30.046806 138.969024-9.343368 190.611699-23.838588 229.619681a358.323804 358.323804 0 0 0-13.438852 40.353418l-0.672234 2.880031a47.947815 47.947815 0 0 1 5.503974-1.119419c10.23968-0.8643 18.270592 2.55992 23.039279 4.607662 14.591253 6.047193 24.606855 18.78277 30.046806 33.277989a59.560093 59.560093 0 0 1 3.040087 12.125426 14.162498 14.162498 0 0 1 0.864301 4.895762v0.512178c-0.704245 21.310679-1.088378 46.397701-1.088379 71.547775q0 46.36763 1.791653 92.315235l-0.128044-4.415595c0.992345 22.943246 2.431875 43.166517 4.25554 59.133278 1.823664 15.902739 4.447606 28.033985 6.111214 32.126559 5.471962 13.66293 13.438852 31.518348 27.87102 43.677725 14.431197 12.125426 35.102624 20.223271 72.924253 12.125426 32.766782-7.039537 52.989082-16.79905 66.524938-30.847084 13.470863-14.047064 21.534757-33.56318 26.718619-63.484851 7.711771-44.798114 23.262388-174.7109 25.119033-199.1577-0.8643-18.430648 1.887686-32.606726 7.775793-43.389625a50.281717 50.281717 0 0 1 23.550488-21.534757 81.117161 81.117161 0 0 1 10.974966-3.967439c-3.807384-5.439951-7.199593-9.95158-10.751858-14.335164l0.388013 0.480167a188.881159 188.881159 0 0 1-27.936981-45.661445l-0.480167-1.247464c-4.351573-8.924314-7.999871-15.679631-11.871278-22.303024l0.896312 1.663609c-5.664029-10.23968-12.831611-23.03928-20.351315-37.406455-15.007397-28.798372-31.358292-63.708929-39.838331-97.691163-8.447057-33.951193-9.695491-69.115899 11.999322-93.914821 19.198915-22.014924 52.893049-31.138094 103.514278-26.014375-1.503553-4.479617-2.399864-8.191938-4.895762-14.175108a333.400718 333.400718 0 0 0-44.9572-75.96434l0.544189 0.704245c-42.875507-54.812746-112.282416-109.178307-219.540056-110.937949z m-283.377029 2.208768c-5.40794 0-10.847891 0.160056-16.22285 0.480167-43.101525 2.463887-83.835197 14.975386-112.985692 45.853511-29.183476 30.878125-48.38239 81.531366-44.186993 165.366562 0.800278 15.870728 7.711771 60.31672 19.583049 113.145747 11.807255 52.829027 28.574294 114.970381 48.733543 169.879161 20.19126 54.90878 44.638059 102.682959 67.836424 125.305124 11.67921 11.295077 21.854868 15.870728 31.070192 15.487564 9.247335-0.416145 20.383326-5.760062 34.014245-22.110957 26.75063-32.190581 51.993827-60.636831 78.076104-88.283773l-0.832289 0.896312a149.437632 149.437632 0 0 1-49.692906-135.222753l-0.097004 0.832289a531.540852 531.540852 0 0 0 4.479618-84.315363c-0.512178-22.687157-2.143775-37.789618-2.143776-47.22999v-1.024356l-0.032011-0.256089v-0.256089a420.867722 420.867722 0 0 1 26.206441-146.743848l-0.960334 2.910103c11.931419-31.742426 29.726695-63.997029 56.413303-90.107437-26.206441-8.607113-72.700175-21.758835-123.033304-24.222722a311.624423 311.624423 0 0 0-16.158828-0.416144h-0.032011zM774.66897 294.384977c-28.958428 0.388014-45.213289 7.839816-53.75735 17.631339-12.063344 13.854997-13.215744 38.173752-5.723201 68.124525 7.455682 29.982784 22.911235 63.516862 37.406455 91.386912 7.263615 13.95103 14.303153 26.494541 19.967182 36.702209 5.723201 10.23968 9.887558 17.503295 12.447477 23.678533a139.183402 139.183402 0 0 0 7.583727 15.455553c11.231055-23.678532 13.215744-46.94189 12.063344-71.164611-1.503553-29.982784-8.447057-60.668842-7.423671-91.739035 1.152401-36.318076 8.319982-59.932586 8.959235-88.027683a240.872076 240.872076 0 0 0-31.550359-2.047742z m-351.277476 4.895762a121.316344 121.316344 0 0 0-27.102753 3.328187l0.832289-0.160056a198.30892 198.30892 0 0 0-50.205084 19.679082l0.992345-0.512178a104.384399 104.384399 0 0 0-15.103431 9.887557l0.224078-0.160055-0.928323 0.8643c0.256089 6.239259 1.503553 21.34075 2.015731 43.554531a562.123117 562.123117 0 0 1-4.767718 88.923025c-10.207669 72.956264 42.749402 133.369017 104.957689 133.465051 3.616287-14.975386 9.603338-30.174851 15.583598-46.173623 17.311228-46.685801 51.421507-80.732057 22.687157-213.588897-4.703695-21.758835-13.983041-30.556074-26.782641-35.485787a61.791172 61.791172 0 0 0-20.958557-3.584276c-0.480167 0-0.960334 0-1.471541 0.032011h0.064022z m337.770721 8.705086h2.143775a39.118565 39.118565 0 0 1 7.67976 0.928322 17.848627 17.848627 0 0 1 5.888107 2.335842 7.178252 7.178252 0 0 1 3.201113 4.639673v0.032012l-0.032011 0.352122v0.416145a9.95255 9.95255 0 0 1-1.535564 5.375928l0.032011-0.032011a28.033985 28.033985 0 0 1-4.703695 6.402225 28.917686 28.917686 0 0 1-16.286873 9.021317l-0.160055 0.032012a21.946051 21.946051 0 0 1-3.007106 0.194006 25.193725 25.193725 0 0 1-14.559242-4.639673l0.064022 0.064023a26.521702 26.521702 0 0 1-5.503973-4.991796l-0.032011-0.032011a11.166062 11.166062 0 0 1-2.687965-5.343918v-0.064022a4.074143 4.074143 0 0 1-0.032011-0.640223 7.253915 7.253915 0 0 1 1.823664-4.799728 16.699137 16.699137 0 0 1 4.895762-3.807384l0.097004-0.032011a48.002137 48.002137 0 0 1 15.902739-4.959785 35.600251 35.600251 0 0 1 6.815459-0.416144z m-333.643226 7.165641a54.692462 54.692462 0 0 1 7.071548 0.54419 46.806085 46.806085 0 0 1 16.76704 5.215873 19.601479 19.601479 0 0 1 5.664029 4.511628l0.032011 0.032012a9.454922 9.454922 0 0 1 2.367853 6.27127c0 0.352122-0.032011 0.704245-0.064022 1.024356V332.721694a13.037258 13.037258 0 0 1-3.201113 6.596232 27.102753 27.102753 0 0 1-6.014211 5.471962l-0.097004 0.064022a27.085292 27.085292 0 0 1-15.775664 5.023807 24.436129 24.436129 0 0 1-3.456231-0.224078h0.128044a31.138094 31.138094 0 0 1-17.887429-9.700341l-0.032011-0.032011a30.209772 30.209772 0 0 1-4.959784-6.847471l-0.064022-0.160055a11.67145 11.67145 0 0 1-1.823664-6.335293c0-0.448156 0.032011-0.8643 0.064022-1.279475v0.064022c0.640223-4.607662 4.447606-7.007526 8.159927-8.319982a35.945583 35.945583 0 0 1 11.714131-1.923578c0.512178 0 0.992345 0 1.503553 0.032011h-0.064022z m386.539185 313.295792l-0.128044 0.032011c-6.27127 2.27182-11.423121 3.201113-15.775665 5.11984a19.497685 19.497685 0 0 0-10.143646 9.021317l-0.064022 0.097003c-2.687964 4.895762-4.991795 13.598908-4.319562 28.414239a22.019774 22.019774 0 0 0 6.175237 2.944053l0.160055 0.032012c7.295626 2.207798 19.551037 3.679339 33.181957 3.456231 27.230797-0.29101 60.700853-6.655404 78.492248-14.938525a168.572525 168.572525 0 0 0 40.413561-26.398508l-0.194007 0.160056h-0.032011c-59.420408 12.287422-93.019479 8.991246-113.625914 0.512178a56.589849 56.589849 0 0 1-14.271141-8.575102l0.097003 0.064023z m-342.638352 3.99945h-0.896312c-2.27182 0.224078-5.535985 0.992345-11.903288 8.031883-14.847342 16.638995-20.063215 27.102753-32.286615 36.861295-12.255411 9.727502-28.15815 14.938525-59.932586 21.470735-10.079624 2.047742-15.838717 4.319562-19.679082 6.143226a11.817925 11.817925 0 0 0 2.976065 2.271819 69.71053 69.71053 0 0 0 15.455553 6.047193c13.66293 3.42422 36.093999 7.39166 59.516442 3.42422 23.422443-3.999451 47.773209-15.229535 68.57268-44.381969 3.584276-5.023807 3.967439-12.447477 1.024356-20.447349-2.976065-7.96786-9.506334-14.847342-14.111086-16.767039a27.124093 27.124093 0 0 0-8.575102-2.619092h-0.160055z" fill="#336791" p-id="39205"></path></svg>