<?xml version="1.0" standalone="no"?><!DOCTYPE svg PUBLIC "-//W3C//DTD SVG 1.1//EN" "http://www.w3.org/Graphics/SVG/1.1/DTD/svg11.dtd"><svg t="1730340092304" class="icon" viewBox="0 0 1434 1024" version="1.1" xmlns="http://www.w3.org/2000/svg" p-id="41027" xmlns:xlink="http://www.w3.org/1999/xlink" width="280.078125" height="200"><path d="M0.9216 319.0784h404.2752l48.5376-89.7024c20.992-36.6592 37.4784-63.2832 49.4592-79.872a673.792 673.792 0 0 1 71.68-81.92C597.8112 45.9776 663.7568 0 748.3392 0c84.48 0 130.8672 43.7248 159.744 67.584 28.672 23.8592 53.76 59.392 71.8848 81.92 18.2272 22.528 65.4336 102.8096 78.2336 125.952 8.6016 15.36 17.6128 31.744 27.136 49.2544H1434.5216v83.7632h-208.1792c-45.1584 0-94.8224 10.5472-84.992 30.8224 9.6256 20.2752 11.4688 20.8896 40.448 79.872 19.3536 39.424 36.7616 75.5712 52.224 108.4416 16.0768 20.2752 34.9184 30.4128 56.7296 30.4128h135.8848v92.4672a4664.0128 4664.0128 0 0 0-333.1072 3.4816c-144.5888 7.4752-189.1328 12.4928-290.816 31.0272-101.376 18.432-189.5424 57.344-246.5792 82.3296-56.9344 25.088-146.6368 71.4752-193.536 91.4432-47.104 20.0704-83.968 30.5152-133.7344 43.4176-33.1776 8.6016-109.1584 12.8-227.9424 12.4928v-96.256c73.728 1.3312 126.5664 0 158.72-3.8912 48.2304-5.8368 109.568-28.16 173.6704-65.024 64.1024-36.864 198.0416-103.1168 252.928-122.0608 54.9888-18.8416 122.88-40.96 168.0384-52.224 45.1584-11.264 108.2368-21.1968 146.2272-25.2928 25.2928-2.8672 94.208-8.3968 207.0528-16.7936-71.68-148.5824-116.5312-239.5136-134.656-272.5888-27.2384-49.664-66.8672-114.7904-99.9424-158.208-32.9728-43.3152-69.8368-85.4016-124.6208-85.4016s-96.256 32.5632-125.8496 70.144c-29.4912 37.5808-152.3712 256.3072-168.7552 283.3408-16.4864 26.9312-84.5824 130.9696-141.1072 173.2608-56.5248 42.3936-97.5872 61.8496-115.4048 66.8672-17.8176 5.12-45.056 12.8-68.8128 16.896-15.7696 2.7648-58.368 4.608-127.488 5.4272v-94.3104c51.2 0 87.04-1.8432 107.8272-5.4272 31.232-5.3248 116.3264-54.4768 149.504-90.624 33.1776-36.1472 64.9216-86.6304 70.4512-97.5872 5.632-10.8544-7.8848-24.9856-34.816-29.696-26.8288-4.8128-76.5952-6.7584-109.3632-6.7584H0.9216v-89.3952z" fill="#188FFF" p-id="41028"></path></svg>