<?xml version="1.0" standalone="no"?><!DOCTYPE svg PUBLIC "-//W3C//DTD SVG 1.1//EN" "http://www.w3.org/Graphics/SVG/1.1/DTD/svg11.dtd"><svg t="1730340154613" class="icon" viewBox="0 0 1024 1024" version="1.1" xmlns="http://www.w3.org/2000/svg" p-id="42928" xmlns:xlink="http://www.w3.org/1999/xlink" width="200" height="200"><path d="M659.968 260.096l-144.896-83.456-144.896 83.456-144.896 81.92v335.872l144.896 83.456 144.896 83.456 140.288-80.896v172.544l148.992 80.896V343.552l-144.384-83.456z m-4.608 331.776l-140.288 80.896-140.288-80.896V429.568l140.288-80.896L655.36 429.568v162.304z" fill="#DC244D" p-id="42929"></path><path d="M515.072 512v160.768l-140.288-80.896V429.568zM370.176 761.344l144.896 83.968v172.032l-438.784-253.44 2.56-507.904 146.944 86.016v335.872z" fill="#B1BFE8" p-id="42930"></path><path d="M655.36 429.568v162.304l-140.288 80.896V512zM515.072 845.312l140.288-81.408v172.544l-140.288 80.896zM951.296 256v676.864l-146.432 84.48V343.552l-1.536-1.024z" fill="#24376C" p-id="42931"></path><path d="M515.072 348.672L655.36 429.568 515.072 512 374.784 429.568zM951.296 256l-147.968 87.04-143.36-82.944-144.896-83.456-144.896 83.456-143.36 82.944-147.968-87.04L515.072 4.096z" fill="#7589BE" p-id="42932"></path></svg>