<?xml version="1.0" standalone="no"?><!DOCTYPE svg PUBLIC "-//W3C//DTD SVG 1.1//EN" "http://www.w3.org/Graphics/SVG/1.1/DTD/svg11.dtd"><svg t="1730340356978" class="icon" viewBox="0 0 1024 1024" version="1.1" xmlns="http://www.w3.org/2000/svg" p-id="48668" xmlns:xlink="http://www.w3.org/1999/xlink" width="200" height="200"><path d="M512 1024c-80.64-74.88-77.355-159.701-77.355-159.701h154.71S592.64 949.12 512 1024z m0-939.179c-68.053 89.856-200.235 294.102-200.235 524.416 0 66.646 12.502 122.454 25.131 161.835h350.208c12.63-39.381 25.13-95.19 25.13-161.835 0-230.314-132.18-434.56-200.234-524.416z m253.867 524.416c0 151.723-58.155 251.862-58.155 251.862l-62.208-36.395H378.496l-62.208 36.395s-58.155-100.139-58.155-251.862C258.133 275.03 511.915 0.085 512 0c0.085 0.085 253.867 275.03 253.867 609.237z m35.114 99.627c0 58.155-25.813 121.387-43.605 148.053H880.64l-13.653-83.84-66.006-64.213zM157.013 773.12l-13.653 83.84h123.264c-17.835-26.667-43.605-89.899-43.605-148.053l-66.006 64.213zM463.66 531.115a11.947 11.947 0 1 0 0 23.808 11.947 11.947 0 0 0 0-23.808z m38.186 0a11.947 11.947 0 1 0 0 23.808 11.947 11.947 0 0 0 0-23.808z m38.187 0a11.947 11.947 0 1 0 0 23.808 11.947 11.947 0 0 0 0-23.808z m130.475 150.698a61.653 61.653 0 1 1-115.2-30.677l-15.403-21.035a94.677 94.677 0 0 1-99.627-14.72l-17.194 14.934a36.907 36.907 0 1 1-36.054-29.184c4.438 0 8.619 0.896 12.544 2.346l18.304-15.914a94.592 94.592 0 0 1 8.278-101.974l-19.243-20.906c-1.408 0.17-2.773 0.426-4.181 0.426a31.36 31.36 0 1 1 30.549-24.49l19.413 21.12a94.592 94.592 0 0 1 95.872-1.536l16.427-16.427a48.81 48.81 0 1 1 30.293 30.293l-15.061 15.062a94.635 94.635 0 0 1-5.888 115.37l14.037 19.158c6.443-2.262 13.312-3.584 20.523-3.584a61.739 61.739 0 0 1 61.61 61.738z m-168.662-63.957a74.837 74.837 0 1 0 0-149.632 74.837 74.837 0 0 0 0 149.632z" fill="#D7730F" p-id="48669"></path></svg>