<?xml version="1.0" standalone="no"?><!DOCTYPE svg PUBLIC "-//W3C//DTD SVG 1.1//EN" "http://www.w3.org/Graphics/SVG/1.1/DTD/svg11.dtd"><svg t="1730340421787" class="icon" viewBox="0 0 1024 1024" version="1.1" xmlns="http://www.w3.org/2000/svg" p-id="51407" xmlns:xlink="http://www.w3.org/1999/xlink" width="200" height="200"><path d="M764.342857 239.542857c-12.8-98.742857-96.914286-173.714286-199.314286-173.714286-85.942857 0-159.085714 53.028571-188.342857 128h-12.8c-60.342857 0-111.542857 42.057143-124.342857 98.742858-76.8 21.942857-131.657143 93.257143-131.657143 175.542857 0 100.571429 82.285714 182.857143 182.857143 182.857143H713.142857c111.542857-5.485714 201.142857-96.914286 201.142857-210.285715-1.828571-95.085714-64-173.714286-149.942857-201.142857zM290.742857 493.714286h-25.6l-9.142857-25.6h-45.714286L201.142857 493.714286H177.371429l43.885714-111.542857h23.771428l45.714286 111.542857z m-42.057143-45.714286l-14.628571-42.057143-14.628572 42.057143h29.257143z m60.342857 45.714286l-27.428571-111.542857h23.771429l16.457142 76.8 20.114286-76.8h27.428572l20.114285 78.628571 16.457143-78.628571h21.942857L402.285714 493.714286h-23.771428l-21.942857-84.114286-21.942858 84.114286h-25.6z m128-36.571429l21.942858-1.828571c1.828571 7.314286 3.657143 12.8 7.314285 16.457143 3.657143 3.657143 9.142857 5.485714 16.457143 5.485714s12.8-1.828571 16.457143-5.485714c3.657143-3.657143 5.485714-7.314286 5.485714-10.971429 0-1.828571 0-5.485714-1.828571-7.314286-1.828571-1.828571-3.657143-3.657143-7.314286-5.485714-1.828571-1.828571-9.142857-1.828571-18.285714-5.485714-12.8-3.657143-20.114286-7.314286-25.6-10.971429-7.314286-5.485714-10.971429-14.628571-10.971429-21.942857 0-5.485714 1.828571-10.971429 5.485715-16.457143 3.657143-5.485714 7.314286-9.142857 14.628571-10.971428s12.8-3.657143 21.942857-3.657143c14.628571 0 25.6 3.657143 31.085714 9.142857s10.971429 14.628571 10.971429 25.6l-21.942857 1.828571c-1.828571-5.485714-3.657143-9.142857-5.485714-12.8-3.657143-1.828571-7.314286-3.657143-14.628572-3.657143s-10.971429 1.828571-14.628571 3.657143c-1.828571 1.828571-3.657143 3.657143-3.657143 7.314286 0 1.828571 1.828571 5.485714 3.657143 7.314286 3.657143 1.828571 9.142857 5.485714 20.114285 7.314285 10.971429 1.828571 20.114286 5.485714 23.771429 7.314286 5.485714 3.657143 9.142857 7.314286 12.8 10.971429 3.657143 5.485714 3.657143 10.971429 3.657143 18.285714s-1.828571 12.8-5.485714 18.285714c-3.657143 5.485714-9.142857 9.142857-14.628572 12.8s-14.628571 3.657143-23.771428 3.657143c-14.628571 0-25.6-3.657143-32.914286-9.142857-9.142857-7.314286-14.628571-16.457143-14.628572-29.257143z m96.914286 67.657143v-14.628571h89.6v14.628571h-89.6z m95.085714-67.657143l21.942858-1.828571c1.828571 7.314286 3.657143 12.8 7.314285 16.457143 3.657143 3.657143 9.142857 5.485714 16.457143 5.485714s12.8-1.828571 16.457143-5.485714c3.657143-3.657143 5.485714-7.314286 5.485714-10.971429 0-1.828571 0-5.485714-1.828571-7.314286-1.828571-1.828571-3.657143-3.657143-7.314286-5.485714-1.828571-1.828571-9.142857-1.828571-18.285714-5.485714-12.8-3.657143-20.114286-7.314286-25.6-10.971429-7.314286-5.485714-10.971429-14.628571-10.971429-21.942857 0-5.485714 1.828571-10.971429 5.485715-16.457143s7.314286-9.142857 14.628571-10.971428 12.8-3.657143 21.942857-3.657143c14.628571 0 25.6 3.657143 31.085714 9.142857s10.971429 14.628571 10.971429 25.6l-21.942857 1.828571c-1.828571-5.485714-3.657143-9.142857-5.485714-12.8-3.657143-1.828571-7.314286-3.657143-14.628572-3.657143s-10.971429 1.828571-14.628571 3.657143c-1.828571 1.828571-3.657143 3.657143-3.657143 7.314286 0 1.828571 1.828571 5.485714 3.657143 7.314286 3.657143 1.828571 9.142857 5.485714 20.114285 7.314285s20.114286 5.485714 23.771429 7.314286c5.485714 3.657143 9.142857 7.314286 12.8 10.971429 3.657143 5.485714 3.657143 10.971429 3.657143 18.285714s-1.828571 12.8-5.485714 18.285714-9.142857 9.142857-14.628572 12.8c-7.314286 1.828571-14.628571 3.657143-23.771428 3.657143-14.628571 0-25.6-3.657143-32.914286-9.142857s-14.628571-16.457143-14.628572-29.257143z m104.228572 5.485714l20.114286-1.828571c0 5.485714 1.828571 9.142857 5.485714 12.8s7.314286 3.657143 10.971428 3.657143c3.657143 0 7.314286-1.828571 10.971429-5.485714 3.657143-3.657143 3.657143-7.314286 3.657143-12.8 0-5.485714-1.828571-9.142857-3.657143-12.8-3.657143-3.657143-7.314286-5.485714-10.971429-5.485715-3.657143 0-5.485714 0-9.142857 1.828572l1.828572-18.285715c5.485714 0 10.971429-1.828571 12.8-3.657142s5.485714-5.485714 5.485714-10.971429c0-3.657143-1.828571-7.314286-3.657143-9.142857s-5.485714-3.657143-9.142857-3.657143-7.314286 1.828571-9.142857 3.657143-3.657143 5.485714-5.485714 10.971428l-20.114286-3.657142c1.828571-7.314286 3.657143-12.8 5.485714-16.457143 3.657143-3.657143 7.314286-7.314286 10.971429-9.142857 5.485714-1.828571 10.971429-3.657143 16.457143-3.657143 10.971429 0 18.285714 3.657143 25.6 10.971428 5.485714 5.485714 7.314286 10.971429 7.314285 18.285715 0 9.142857-5.485714 18.285714-16.457143 23.771428 7.314286 1.828571 10.971429 3.657143 14.628572 9.142857 3.657143 5.485714 5.485714 10.971429 5.485714 18.285715 0 9.142857-3.657143 18.285714-10.971428 25.6s-16.457143 10.971429-27.428572 10.971428-18.285714-3.657143-25.6-9.142857c0-5.485714-3.657143-12.8-5.485714-23.771429z" p-id="51408"></path><path d="M96.914286 919.771429l56.685714-146.285715h20.114286l60.342857 146.285715h-21.942857l-16.457143-43.885715H133.485714l-16.457143 43.885715H96.914286zM138.971429 859.428571h49.371428l-14.628571-40.228571c-5.485714-12.8-7.314286-21.942857-10.971429-31.085714-1.828571 9.142857-3.657143 18.285714-7.314286 27.428571L138.971429 859.428571zM268.8 919.771429l-38.4-146.285715h20.114286l21.942857 96.914286c1.828571 10.971429 3.657143 20.114286 5.485714 29.257143 3.657143-16.457143 5.485714-25.6 7.314286-27.428572l27.428571-98.742857h23.771429l21.942857 74.971429c5.485714 18.285714 9.142857 36.571429 10.971429 51.2 1.828571-9.142857 3.657143-20.114286 7.314285-32.914286l23.771429-95.085714H420.571429l-40.228572 146.285714h-18.285714l-32.914286-109.714286c-1.828571-9.142857-3.657143-14.628571-5.485714-16.457142-1.828571 7.314286-3.657143 12.8-3.657143 16.457142l-31.085714 111.542858h-20.114286zM429.714286 872.228571l18.285714-1.828571c0 7.314286 3.657143 12.8 5.485714 18.285714 3.657143 5.485714 7.314286 9.142857 14.628572 10.971429s14.628571 3.657143 21.942857 3.657143c7.314286 0 14.628571-1.828571 20.114286-3.657143 5.485714-1.828571 9.142857-5.485714 12.8-9.142857 3.657143-3.657143 3.657143-7.314286 3.657142-12.8 0-5.485714-1.828571-9.142857-3.657142-12.8-1.828571-3.657143-7.314286-5.485714-12.8-9.142857-3.657143-1.828571-12.8-3.657143-25.6-7.314286s-23.771429-5.485714-29.257143-9.142857c-7.314286-3.657143-12.8-9.142857-16.457143-12.8s-5.485714-10.971429-5.485714-18.285715 1.828571-14.628571 5.485714-20.114285c3.657143-7.314286 10.971429-10.971429 18.285714-14.628572s16.457143-5.485714 27.428572-5.485714 20.114286 1.828571 29.257142 5.485714c9.142857 3.657143 14.628571 9.142857 20.114286 14.628572s7.314286 14.628571 7.314286 23.771428l-18.285714 1.828572c-1.828571-9.142857-3.657143-16.457143-10.971429-21.942857-5.485714-5.485714-14.628571-7.314286-25.6-7.314286-10.971429 0-20.114286 1.828571-25.6 7.314286-5.485714 3.657143-7.314286 9.142857-7.314286 16.457142 0 5.485714 1.828571 9.142857 5.485715 12.8 3.657143 3.657143 12.8 7.314286 29.257142 10.971429s27.428571 7.314286 32.914286 9.142857c9.142857 3.657143 14.628571 9.142857 18.285714 14.628572 3.657143 5.485714 5.485714 12.8 5.485715 20.114285 0 7.314286-1.828571 14.628571-7.314286 21.942857-3.657143 7.314286-10.971429 12.8-20.114286 16.457143-9.142857 3.657143-18.285714 5.485714-27.428571 5.485715-12.8 0-23.771429-1.828571-32.914286-5.485715-9.142857-3.657143-16.457143-9.142857-21.942857-18.285714-1.828571-5.485714-5.485714-14.628571-5.485714-23.771429zM554.057143 960v-12.8h118.857143v12.8h-118.857143zM682.057143 872.228571l18.285714-1.828571c0 7.314286 3.657143 12.8 5.485714 18.285714s7.314286 9.142857 14.628572 10.971429c7.314286 3.657143 14.628571 3.657143 21.942857 3.657143 7.314286 0 14.628571-1.828571 20.114286-3.657143 5.485714-1.828571 9.142857-5.485714 12.8-9.142857 3.657143-3.657143 3.657143-7.314286 3.657143-12.8 0-5.485714-1.828571-9.142857-3.657143-12.8s-7.314286-3.657143-12.8-5.485715c-3.657143-1.828571-12.8-3.657143-25.6-7.314285s-23.771429-5.485714-29.257143-9.142857c-7.314286-3.657143-12.8-9.142857-16.457143-12.8-3.657143-5.485714-5.485714-10.971429-5.485714-18.285715s1.828571-14.628571 5.485714-20.114285c3.657143-7.314286 10.971429-10.971429 18.285714-14.628572s16.457143-5.485714 27.428572-5.485714 20.114286 1.828571 29.257143 5.485714c9.142857 3.657143 14.628571 9.142857 18.285714 14.628572 3.657143 7.314286 7.314286 14.628571 7.314286 23.771428l-18.285715 1.828572c-1.828571-9.142857-3.657143-16.457143-10.971428-21.942858s-14.628571-7.314286-25.6-7.314285c-10.971429 0-20.114286 1.828571-25.6 7.314285-5.485714 3.657143-7.314286 9.142857-7.314286 16.457143 0 5.485714 1.828571 9.142857 5.485714 12.8 3.657143 3.657143 12.8 7.314286 29.257143 10.971429 16.457143 3.657143 27.428571 7.314286 32.914286 9.142857 9.142857 3.657143 14.628571 9.142857 18.285714 14.628571 3.657143 5.485714 5.485714 12.8 5.485714 20.114286 0 7.314286-1.828571 14.628571-7.314285 21.942857-3.657143 7.314286-10.971429 12.8-20.114286 16.457143-9.142857 3.657143-18.285714 5.485714-27.428571 5.485714-12.8 0-23.771429-1.828571-32.914286-5.485714-9.142857-3.657143-16.457143-9.142857-21.942857-18.285714-1.828571-9.142857-3.657143-18.285714-3.657143-27.428572zM817.371429 881.371429l18.285714-1.828572c1.828571 10.971429 5.485714 18.285714 10.971428 21.942857s10.971429 7.314286 18.285715 7.314286c9.142857 0 16.457143-3.657143 21.942857-9.142857 5.485714-5.485714 9.142857-12.8 9.142857-21.942857s-1.828571-14.628571-7.314286-20.114286-12.8-7.314286-20.114285-7.314286c-3.657143 0-7.314286 0-12.8 1.828572l1.828571-16.457143h3.657143c7.314286 0 14.628571-1.828571 20.114286-5.485714 5.485714-3.657143 9.142857-10.971429 9.142857-18.285715s-1.828571-12.8-7.314286-16.457143-10.971429-9.142857-18.285714-9.142857-12.8 1.828571-18.285715 7.314286c-5.485714 3.657143-7.314286 10.971429-9.142857 20.114286l-18.285714-3.657143c1.828571-12.8 7.314286-21.942857 14.628571-27.428572 7.314286-7.314286 18.285714-9.142857 29.257143-9.142857 7.314286 0 14.628571 1.828571 21.942857 5.485715s12.8 7.314286 14.628572 14.628571 5.485714 12.8 5.485714 18.285714c0 5.485714-1.828571 12.8-5.485714 16.457143s-9.142857 9.142857-14.628572 12.8c9.142857 1.828571 14.628571 5.485714 20.114286 12.8 5.485714 5.485714 7.314286 14.628571 7.314286 23.771429 0 12.8-5.485714 23.771429-14.628572 32.914285s-21.942857 12.8-34.742857 12.8-23.771429-3.657143-32.914285-10.971428c-5.485714-9.142857-10.971429-20.114286-12.8-31.085714z" p-id="51409"></path></svg>