<?xml version="1.0" standalone="no"?><!DOCTYPE svg PUBLIC "-//W3C//DTD SVG 1.1//EN" "http://www.w3.org/Graphics/SVG/1.1/DTD/svg11.dtd"><svg t="1730340509619" class="icon" viewBox="0 0 1024 1024" version="1.1" xmlns="http://www.w3.org/2000/svg" p-id="53512" xmlns:xlink="http://www.w3.org/1999/xlink" width="200" height="200"><path d="M926.418824 513.204706c37.285647 0 67.463529 30.177882 67.463529 67.463529v327.68a67.463529 67.463529 0 0 1-67.463529 67.46353H97.581176A67.463529 67.463529 0 0 1 30.117647 908.348235V580.668235c0-37.285647 30.177882-67.463529 67.463529-67.463529h828.837648zM199.258353 602.473412a118.061176 118.061176 0 0 0-30.960941 4.21647 86.558118 86.558118 0 0 0-27.768471 12.890353 68.728471 68.728471 0 0 0-19.877647 21.805177 60.355765 60.355765 0 0 0-7.589647 30.84047c0 10.541176 1.987765 19.516235 6.023529 26.925177a57.042824 57.042824 0 0 0 15.661177 18.55247c6.445176 4.999529 13.733647 9.035294 21.925647 12.107295 8.192 3.132235 16.564706 5.782588 25.178353 7.951058 8.432941 2.349176 16.685176 4.517647 24.877176 6.445177 8.131765 1.927529 15.480471 4.216471 21.925647 6.746353a47.344941 47.344941 0 0 1 15.661177 9.697882c3.975529 3.915294 6.023529 8.975059 6.023529 15.179294a22.287059 22.287059 0 0 1-4.577882 14.396236 31.683765 31.683765 0 0 1-11.264 8.854588 50.597647 50.597647 0 0 1-14.576941 4.336941 100.954353 100.954353 0 0 1-14.456471 1.204706 77.101176 77.101176 0 0 1-19.395764-2.469647 48.188235 48.188235 0 0 1-16.323765-7.408941 36.683294 36.683294 0 0 1-11.14353-13.071059 42.285176 42.285176 0 0 1-4.21647-19.696941H105.411765c-0.240941 14.215529 2.349176 26.503529 7.710117 36.743529 5.421176 10.360471 12.649412 18.853647 21.805177 25.539765 9.155765 6.625882 19.696941 11.565176 31.623529 14.697411 11.986824 3.132235 24.274824 4.698353 36.984471 4.698353 15.661176 0 29.515294-1.807059 41.502117-5.481411 11.926588-3.674353 21.925647-8.794353 29.997177-15.36a63.849412 63.849412 0 0 0 18.251294-23.43153 70.475294 70.475294 0 0 0 6.144-29.334588 56.500706 56.500706 0 0 0-8.252235-31.804235 68.788706 68.788706 0 0 0-19.516236-19.877647 85.895529 85.895529 0 0 0-22.768941-10.842353 219.437176 219.437176 0 0 0-17.889882-4.638118c-14.456471-3.614118-26.142118-6.686118-35.056941-9.035294a129.927529 129.927529 0 0 1-20.961883-7.107765 23.070118 23.070118 0 0 1-10.24-7.770353 20.720941 20.720941 0 0 1-2.529882-10.962823 21.684706 21.684706 0 0 1 3.252706-12.288 28.069647 28.069647 0 0 1 8.192-8.07153 32.828235 32.828235 0 0 1 11.143529-4.517647 59.392 59.392 0 0 1 12.288-1.264941c6.264471 0 12.047059 0.542118 17.28753 1.626353a41.622588 41.622588 0 0 1 14.034823 5.421177 28.551529 28.551529 0 0 1 9.818353 10.721882c2.469647 4.517647 3.915294 10.24 4.397177 17.106823h49.031529c0-13.372235-2.529882-24.696471-7.589647-34.093176a66.138353 66.138353 0 0 0-20.48-23.070118 86.558118 86.558118 0 0 0-29.515294-13.071059 146.672941 146.672941 0 0 0-34.755765-4.035764z m308.826353 5.481412h-162.032941v230.52047h50.597647v-95.232h96.557176v-39.393882H396.709647V650.541176h111.375059v-42.586352z m216.786823 0H535.973647v42.586352h69.089882v187.934118h50.718118V650.541176h69.089882v-42.586352z m147.034353 0H768v230.52047h50.718118v-82.642823h53.248c14.456471 0 26.684235-2.108235 36.803764-6.324706a63.668706 63.668706 0 0 0 38.550589-40.357647 87.642353 87.642353 0 0 0 0-54.693647 63.849412 63.849412 0 0 0-38.550589-40.237177 96.015059 96.015059 0 0 0-36.743529-6.26447z m-13.854117 39.393882c5.782588 0 11.444706 0.421647 16.805647 1.264941 5.360941 0.903529 10.059294 2.529882 14.155294 4.999529 4.096 2.469647 7.408941 6.023529 9.878588 10.541177a36.864 36.864 0 0 1 3.674353 17.709176c0 7.348706-1.204706 13.251765-3.674353 17.769412a27.286588 27.286588 0 0 1-9.878588 10.480941 39.092706 39.092706 0 0 1-14.155294 4.99953c-5.421176 0.903529-11.023059 1.325176-16.865883 1.325176h-39.333647v-69.089882h39.393883zM510.735059 60.235294c24.696471 0 44.694588 17.287529 44.694588 44.333177v225.701647l57.223529-62.765177c8.673882-8.613647 18.371765-15.540706 31.563295-15.540706 26.925176 0 46.983529 20.720941 46.983529 44.333177a44.092235 44.092235 0 0 1-13.191529 31.623529L545.129412 477.665882c-10.842353 8.613647-21.202824 13.251765-34.334118 13.251765a46.983529 46.983529 0 0 1-33.852235-13.251765L341.172706 327.981176c-5.180235-8.613647-10.300235-18.432-10.300235-31.683764 0-23.612235 20.600471-44.333176 44.15247-44.333177 13.191529 0 25.780706 6.866824 34.334118 15.540706l57.223529 62.704941V104.568471c0-27.105882 18.371765-44.333176 44.152471-44.333177z" fill="#2A8FF7" p-id="53513"></path></svg>