<svg width="279" height="62" viewBox="0 0 279 62" fill="none" xmlns="http://www.w3.org/2000/svg">
<path fill-rule="evenodd" clip-rule="evenodd" d="M274.938 18.3085H274.202V19.1911H274.938C275.28 19.1911 275.499 19.0395 275.499 18.7587C275.499 18.46 275.294 18.3085 274.938 18.3085ZM273.297 17.4927H274.956C275.86 17.4927 276.459 17.9741 276.459 18.7275C276.459 19.1956 276.221 19.5433 275.86 19.7617L276.509 20.68V20.8628H275.568L274.938 19.9802H274.202V20.8628H273.297V17.4927ZM277.925 19.2401C277.925 17.4392 276.696 16.0706 274.814 16.0706C272.968 16.0706 271.74 17.3723 271.74 19.2401C271.74 21.0233 272.968 22.4097 274.814 22.4097C276.696 22.4097 277.925 21.0411 277.925 19.2401ZM278.697 19.2401C278.697 21.3576 277.245 23.1274 274.819 23.1274C272.411 23.1274 270.972 21.3443 270.972 19.2401C270.972 17.1227 272.407 15.3529 274.819 15.3529C277.245 15.3573 278.697 17.1227 278.697 19.2401ZM61.2694 26.7784L53.7816 31.0045L61.2694 35.2171C63.1607 36.2826 63.8049 38.6363 62.713 40.4819C61.6212 42.3185 59.209 42.9471 57.3268 41.8861L43.9137 34.33C43.0183 33.8218 42.397 33.0283 42.1229 32.1323C41.9904 31.7222 41.931 31.2987 41.9447 30.8796C41.9538 30.5765 41.9995 30.2734 42.0817 29.9702C42.3513 29.0296 42.9772 28.1871 43.9091 27.6566L57.3176 20.1094C59.1999 19.0485 61.6166 19.677 62.7039 21.5226C63.8049 23.3637 63.1607 25.713 61.2694 26.7784ZM54.1791 47.2534L40.7752 39.7107C40.0533 39.3005 39.2584 39.1445 38.4909 39.2069C36.4442 39.3496 34.8407 41.0168 34.8407 43.0452V58.1484C34.8407 60.2793 36.5996 62 38.7833 62C40.967 62 42.7305 60.2748 42.7305 58.1484V49.7007L50.2365 53.9268C52.1233 54.9967 54.5354 54.3637 55.6227 52.5226C56.71 50.6815 56.0704 48.3188 54.1791 47.2534ZM38.7102 32.48L33.1366 37.9097C32.9767 38.0702 32.6707 38.1995 32.4377 38.1995H32.0356H31.2133H30.8021C30.5783 38.1995 30.2631 38.0702 30.1032 37.9097L24.5296 32.48C24.3697 32.3284 24.2418 32.0208 24.2418 31.8024V31.4012V30.5988V30.202C24.2418 29.9791 24.3697 29.6716 24.5296 29.5155L30.0986 24.0858C30.2585 23.9254 30.5737 23.8005 30.7976 23.8005H31.2087H32.0311H32.4377C32.6661 23.8005 32.9767 23.9254 33.1366 24.0858L38.7102 29.5155C38.8701 29.6716 38.998 29.9791 38.998 30.202V30.5988V31.4012V31.8024C38.998 32.0164 38.8701 32.324 38.7102 32.48ZM34.2559 30.9733C34.2559 30.7548 34.1189 30.4472 33.959 30.2867L32.3463 28.7176C32.1864 28.5615 31.8757 28.4323 31.6473 28.4323H31.5834C31.3595 28.4323 31.0443 28.5615 30.889 28.7176L29.2763 30.2867C29.1164 30.4472 28.993 30.7548 28.993 30.9733V31.0357C28.993 31.2541 29.1164 31.5572 29.2763 31.7133L30.889 33.2869C31.0488 33.4429 31.3595 33.5722 31.5834 33.5722H31.6473C31.8712 33.5722 32.1864 33.4429 32.3463 33.2869L33.959 31.7133C34.1189 31.5572 34.2559 31.2541 34.2559 31.0357V30.9733ZM9.06072 14.7377L22.4692 22.2893C23.1911 22.695 23.9905 22.8555 24.758 22.7931C26.8002 22.646 28.4083 20.9787 28.4083 18.9504V3.84714C28.4083 1.72519 26.6403 0 24.4657 0C22.2819 0 20.5185 1.72519 20.5185 3.84714V12.2993L13.0079 8.06428C11.1257 6.99885 8.71352 7.63187 7.62165 9.47297C6.52978 11.323 7.17394 13.6723 9.06072 14.7377ZM38.4909 22.7931C39.2584 22.8555 40.0579 22.695 40.7752 22.2893L54.1791 14.7377C56.0659 13.6723 56.71 11.3185 55.6227 9.47297C54.5354 7.63187 52.1233 7.00331 50.2365 8.06428L42.7305 12.2993V3.84714C42.7305 1.72519 40.967 0 38.7833 0C36.5996 0 34.8407 1.72519 34.8407 3.84714V18.9504C34.8361 20.9787 36.4442 22.646 38.4909 22.7931ZM24.758 39.2069C23.986 39.1445 23.1865 39.3005 22.4692 39.7107L9.06072 47.2534C7.17394 48.3188 6.52978 50.6815 7.61708 52.5226C8.70895 54.3592 11.1211 54.9922 13.0033 53.9268L20.5139 49.7007V58.1484C20.5139 60.2793 22.2774 62 24.4611 62C26.6357 62 28.4037 60.2748 28.4037 58.1484V43.0452C28.4083 41.0168 26.8002 39.3496 24.758 39.2069ZM21.1215 32.1323C21.254 31.7222 21.3088 31.2987 21.2997 30.8796C21.286 30.5765 21.2449 30.2734 21.1581 29.9702C20.8931 29.0296 20.2627 28.1871 19.3215 27.6566L5.92217 20.1094C4.03082 19.0485 1.61866 19.677 0.535926 21.5226C-0.560511 23.3637 0.0882144 25.713 1.97957 26.7784L9.46732 31.0045L1.975 35.2171C0.083646 36.2826 -0.560511 38.6363 0.531357 40.4819C1.61866 42.3185 4.02625 42.9471 5.9176 41.8861L19.317 34.33C20.2261 33.8263 20.8383 33.0283 21.1215 32.1323ZM187.428 9.56212H187.058C187.008 9.56212 186.962 9.56658 186.912 9.57104C186.866 9.56658 186.821 9.56212 186.77 9.56212C185.82 9.56212 184.893 9.66911 184.029 9.94996C183.179 10.2263 182.394 10.681 181.786 11.3765L181.781 11.372V11.3765V11.3809C181.151 12.063 180.74 12.8788 180.484 13.806C180.233 14.7377 180.128 15.7853 180.119 16.98V19.2892H177.51C176.605 19.2936 175.884 20.0024 175.884 20.8584C175.879 21.3175 176.062 21.741 176.359 22.0486C176.66 22.3473 177.071 22.5479 177.528 22.5702H180.119V41.3556L180.114 41.4002C180.114 41.8415 180.301 42.2472 180.607 42.537C180.909 42.8223 181.334 42.9917 181.795 42.9917C182.672 42.9872 183.394 42.2873 183.399 41.3957V22.5613H186.204C186.656 22.539 187.072 22.3517 187.369 22.0531C187.675 21.7544 187.862 21.3353 187.862 20.8806V20.8182C187.853 19.9712 187.127 19.2803 186.222 19.2803H183.399V16.98C183.417 15.9636 183.527 15.2013 183.682 14.6485C183.833 14.0913 184.043 13.7436 184.226 13.5252C184.408 13.3335 184.646 13.173 185.03 13.0437C185.418 12.9189 185.957 12.8431 186.683 12.8431H186.77C186.811 12.8431 186.857 12.8342 186.898 12.8342C186.948 12.8342 186.999 12.8431 187.049 12.8431H187.259H187.414C188.346 12.8431 189.096 12.1076 189.096 11.2026C189.109 10.2932 188.36 9.56212 187.428 9.56212ZM245.265 21.7455C245.594 21.429 245.772 21.0055 245.772 20.5864C245.772 20.1763 245.594 19.7617 245.261 19.463H245.265C245.261 19.4541 245.256 19.4541 245.256 19.4541C245.256 19.4452 245.247 19.4452 245.247 19.4452H245.242C244.923 19.1376 244.516 18.9727 244.091 18.9727C243.666 18.9727 243.246 19.1465 242.931 19.4541L230.02 31.7311V11.1001C230.02 10.213 229.257 9.48634 228.321 9.48634C227.868 9.48634 227.457 9.66911 227.16 9.96333C226.868 10.2531 226.671 10.6588 226.671 11.1001V41.3066C226.671 41.7479 226.868 42.1536 227.16 42.4389C227.457 42.7242 227.868 42.9159 228.321 42.9159C229.257 42.9159 230.02 42.1982 230.02 41.311V36.3227L234.223 32.2259L242.794 42.3141C242.954 42.5459 243.173 42.7064 243.392 42.7911C243.639 42.8802 243.881 42.9159 244.096 42.9159C244.393 42.9159 244.808 42.8535 245.174 42.5726L245.192 42.5592L245.215 42.537C245.558 42.2071 245.754 41.7657 245.754 41.32C245.754 40.941 245.612 40.5577 245.347 40.2501V40.2456L236.622 29.8989L245.256 21.7499H245.265V21.7455ZM221.952 19.6681C222.258 19.9579 222.446 20.3724 222.446 20.8227V41.3066C222.446 41.7479 222.254 42.1536 221.961 42.4389C221.664 42.7242 221.253 42.9159 220.796 42.9159C220.344 42.9159 219.924 42.7242 219.631 42.4389C219.334 42.1536 219.143 41.7479 219.143 41.3066V39.3095C217.064 41.4983 214.145 42.9159 210.915 42.9159C207.699 42.9159 204.807 41.5696 202.733 39.4075C200.654 37.2588 199.379 34.2988 199.379 31.0669C199.379 27.8349 200.654 24.8704 202.733 22.7217C204.807 20.5641 207.699 19.2223 210.915 19.2223C214.145 19.2223 217.064 20.5953 219.143 22.7752V20.8272C219.143 20.3769 219.33 19.9623 219.636 19.6726C219.942 19.3873 220.353 19.2223 220.796 19.2223C221.235 19.2223 221.651 19.3873 221.952 19.6681ZM219.143 31.0669C219.143 28.6462 218.206 26.4753 216.708 24.9061C215.214 23.3458 213.158 22.3963 210.915 22.3919C208.69 22.3919 206.643 23.3458 205.131 24.9061C203.633 26.4753 202.682 28.6418 202.682 31.0669C202.682 33.4875 203.633 35.6406 205.131 37.1964C206.634 38.7522 208.685 39.6884 210.915 39.6884C213.167 39.6884 215.218 38.7522 216.712 37.2009C218.206 35.6451 219.143 33.4875 219.143 31.0669ZM86.2544 30.4918C84.9204 29.8766 83.4083 29.4264 81.9007 28.936C80.5119 28.4769 79.1048 28.089 78.0997 27.5764C77.5926 27.3133 77.1997 27.0325 76.9439 26.7204C76.6835 26.4084 76.5555 26.0874 76.551 25.655C76.5555 25.0621 76.7292 24.5851 77.0261 24.1572C77.4784 23.5242 78.2367 23.0293 79.0636 22.7128C79.8814 22.3919 80.7677 22.2403 81.4027 22.2403C83.2758 22.2448 84.459 22.851 85.3682 23.484C85.8159 23.8005 86.1951 24.126 86.556 24.389C86.7387 24.5272 86.9123 24.652 87.1133 24.7456C87.3006 24.8348 87.5245 24.9106 87.7666 24.9106C87.9219 24.9106 88.0727 24.8838 88.2143 24.8259C88.3651 24.7679 88.493 24.6832 88.6164 24.5807C88.7351 24.4692 88.8402 24.3355 88.9133 24.1884C88.9773 24.0368 89.0092 23.8763 89.0092 23.7248C89.0092 23.4395 88.9179 23.172 88.7808 22.9179C88.5295 22.4766 88.1458 22.0531 87.657 21.6251C86.9306 20.9921 85.9712 20.3947 84.9387 19.94C83.9017 19.4853 82.7915 19.1777 81.7362 19.1777C79.2829 19.1777 77.2362 19.7216 75.7515 20.7202C74.9748 21.2417 74.2942 21.8123 73.8145 22.6014C73.3256 23.3904 73.0515 24.3667 73.015 25.6372C73.015 25.6951 73.015 25.7486 73.015 25.8066C73.0104 27.037 73.417 28.0534 74.0566 28.8513C75.0251 30.0505 76.4642 30.7637 77.8758 31.2719C79.2829 31.7801 80.6946 32.0833 81.5809 32.373C82.8327 32.7787 84.1621 33.22 85.1352 33.804C85.6194 34.1027 86.0077 34.4236 86.2727 34.7758C86.5286 35.1369 86.6747 35.5114 86.6839 35.9839V36.0196C86.6793 36.7061 86.4737 37.241 86.1311 37.7002C85.6149 38.3867 84.7605 38.886 83.8514 39.2069C82.9469 39.519 82.0012 39.6483 81.3981 39.6483C79.2601 39.6483 77.8302 39.1445 76.7885 38.6408C76.2677 38.3867 75.8474 38.137 75.4637 37.9231C75.2764 37.8205 75.0982 37.7269 74.9109 37.6556C74.7282 37.5843 74.5363 37.5352 74.317 37.5352C74.1845 37.5352 74.0383 37.5575 73.9013 37.611C73.7642 37.669 73.6409 37.7447 73.5358 37.8428C73.3942 37.9766 73.2662 38.1326 73.1794 38.3064C73.0926 38.4803 73.0515 38.6675 73.0515 38.8592C73.0515 39.1757 73.1703 39.461 73.3439 39.724C73.6134 40.103 74.0109 40.4373 74.5043 40.7761C75.016 41.1104 75.6236 41.4359 76.3225 41.7613C77.8804 42.479 79.8723 42.8535 81.389 42.8758H81.3936C83.7509 42.8758 85.7839 42.3453 87.4971 41.1149V41.1104H87.5016C89.1783 39.8801 90.2199 38.0479 90.2199 35.9794C90.2199 34.8427 89.9458 33.8798 89.4707 33.0907C88.7488 31.9005 87.5793 31.1114 86.2544 30.4918ZM194.24 9.48634C193.787 9.48634 193.372 9.66911 193.075 9.96333C192.778 10.2531 192.586 10.6588 192.586 11.1001V41.3066C192.586 41.7479 192.773 42.1536 193.075 42.4389C193.372 42.7242 193.787 42.9159 194.24 42.9159C195.176 42.9159 195.935 42.1982 195.939 41.311V11.1001C195.935 10.2085 195.181 9.48634 194.24 9.48634ZM270.255 30.3046V30.4651C270.255 30.9108 270.049 31.3121 269.739 31.5751C269.433 31.8425 269.03 31.9807 268.596 31.9852H250.067C250.537 36.3985 254.151 39.6572 258.459 39.6884H259.551C260.976 39.6928 262.365 39.2114 263.589 38.4179C264.814 37.6288 265.874 36.5278 266.618 35.3152C266.774 35.0567 266.993 34.8605 267.23 34.7402C267.477 34.6109 267.738 34.5485 268.003 34.5485C268.295 34.5485 268.587 34.6242 268.843 34.7714L268.861 34.7803L268.88 34.7936C269.346 35.128 269.634 35.6317 269.634 36.189C269.634 36.4743 269.556 36.7596 269.401 37.0226L269.396 37.0315L269.391 37.0359C268.354 38.6408 266.943 40.1074 265.266 41.1684C263.585 42.2338 261.639 42.907 259.551 42.907H258.441C255.188 42.8847 252.25 41.5429 250.131 39.3986C248.015 37.2633 246.713 34.33 246.713 31.1025C246.713 27.8215 248.025 24.8481 250.158 22.695C252.292 20.5463 255.252 19.2134 258.532 19.2134C261.662 19.2134 264.476 20.4304 266.559 22.4186C268.642 24.4068 270.004 27.1707 270.246 30.2778L270.255 30.3046ZM266.637 28.78C265.695 25.0621 262.351 22.4141 258.532 22.4186C254.617 22.4186 251.318 25.0086 250.295 28.78H266.637ZM103.861 19.2624C101.276 19.2624 98.9137 20.2476 97.1549 21.8168V20.8806C97.1503 20.4482 96.9904 20.047 96.698 19.7528C96.4193 19.463 96.0036 19.2669 95.5513 19.2669C95.0808 19.2669 94.6559 19.4497 94.3635 19.7483C94.0711 20.0426 93.8975 20.4482 93.8975 20.8806V41.7925L93.966 41.8594L93.9706 41.8683C93.9889 41.9351 94.0346 42.0154 94.0803 42.0867C94.3041 42.4746 94.6742 42.7688 95.131 42.898L95.195 42.9159H95.5513C95.7889 42.9159 96.0264 42.8668 96.2549 42.7643C96.4422 42.6752 96.6203 42.5325 96.762 42.3497H96.7665C96.7848 42.3319 96.7894 42.3096 96.8076 42.2918C96.8168 42.2873 96.8214 42.2829 96.8259 42.2739C96.9127 42.1625 96.9858 42.051 97.0315 41.9441C97.0772 41.8192 97.1092 41.6989 97.132 41.6097L97.1457 41.5518V28.994C97.1914 27.1974 97.9498 25.5748 99.165 24.3934C100.371 23.2121 102.025 22.4855 103.852 22.4855C105.712 22.4855 107.37 23.2166 108.572 24.3934C109.778 25.5703 110.509 27.1885 110.509 28.9761V41.3066C110.509 41.7568 110.705 42.1759 111.002 42.4612C111.308 42.7465 111.724 42.9159 112.158 42.9159C112.601 42.9159 113.012 42.7465 113.318 42.4612C113.624 42.1759 113.812 41.7568 113.812 41.3066V28.9761C113.825 23.6579 109.371 19.2714 103.861 19.2624ZM136.7 22.7351C138.787 24.8927 140.053 27.8527 140.058 31.0669C140.053 34.2765 138.783 37.2366 136.7 39.3942C134.63 41.5518 131.738 42.9114 128.522 42.9114C125.333 42.9114 122.437 41.5473 120.358 39.3942C118.28 37.2366 116.991 34.2765 116.991 31.0669C116.991 27.8572 118.28 24.8927 120.358 22.7351C122.437 20.582 125.333 19.2179 128.522 19.2179C131.738 19.2223 134.63 20.582 136.7 22.7351ZM136.745 31.0669C136.745 28.6685 135.8 26.4931 134.297 24.9239C132.784 23.3503 130.742 22.3919 128.518 22.3919C126.297 22.3919 124.246 23.3548 122.738 24.9239C121.235 26.4931 120.29 28.6685 120.29 31.0669C120.29 33.4652 121.235 35.6184 122.738 37.1786C124.246 38.7433 126.297 39.6884 128.518 39.6884C130.738 39.6884 132.794 38.7433 134.297 37.1786C135.8 35.6184 136.745 33.4652 136.745 31.0669ZM172.398 19.4006L172.389 19.3962C172.389 19.3962 172.384 19.3917 172.38 19.3917C172.192 19.3115 171.982 19.2669 171.786 19.2669C171.461 19.2714 171.151 19.365 170.881 19.5299C170.607 19.6993 170.374 19.949 170.237 20.261V20.2699L163.928 37.1117L159.067 25.8244L159.058 25.82C158.921 25.5035 158.679 25.2627 158.4 25.0889C158.121 24.9195 157.797 24.8259 157.454 24.8259C157.125 24.8259 156.815 24.9284 156.545 25.0933C156.276 25.2627 156.033 25.5035 155.896 25.82L155.892 25.8244L151.022 37.1206L144.685 20.2833H144.681C144.571 19.9579 144.343 19.7038 144.078 19.5344C143.804 19.365 143.488 19.2714 143.159 19.2669C142.949 19.2669 142.739 19.307 142.538 19.3917H142.529L142.52 19.4006C141.931 19.6681 141.57 20.2476 141.565 20.8762C141.565 21.0723 141.606 21.2685 141.684 21.4646L149.482 41.8995V41.9084C149.542 42.06 149.628 42.2115 149.756 42.3586C149.848 42.4656 149.98 42.5548 150.122 42.6261C150.149 42.6484 150.186 42.6841 150.25 42.7197C150.314 42.7599 150.401 42.7866 150.483 42.8C150.62 42.8446 150.807 42.9114 151.054 42.9114C151.369 42.9114 151.661 42.8 151.926 42.635C152.173 42.4745 152.392 42.2338 152.511 41.9262L152.529 41.9129L157.463 30.4071L162.402 41.8638H162.407C162.521 42.1714 162.722 42.4077 162.95 42.5771C163.197 42.7554 163.471 42.8668 163.759 42.9114H163.964C164.161 42.9114 164.353 42.8758 164.513 42.8133C164.682 42.7509 164.819 42.6662 164.933 42.5815C165.198 42.3854 165.403 42.1135 165.531 41.8103V41.8014L173.28 21.4557C173.357 21.2596 173.394 21.0679 173.394 20.8673C173.394 20.2521 173.019 19.6592 172.398 19.4006Z" fill="#29B5E8"/>
</svg>
