<?xml version="1.0" standalone="no"?><!DOCTYPE svg PUBLIC "-//W3C//DTD SVG 1.1//EN" "http://www.w3.org/Graphics/SVG/1.1/DTD/svg11.dtd"><svg t="1730340977005" class="icon" viewBox="0 0 1024 1024" version="1.1" xmlns="http://www.w3.org/2000/svg" p-id="62869" xmlns:xlink="http://www.w3.org/1999/xlink" width="200" height="200"><path d="M0 0v1024h1024V0H0z" fill="#FEFFFF" p-id="62870"></path><path d="M486.4 117.76l5.12 5.12-5.12-5.12z" fill="#FEEAAB" p-id="62871"></path><path d="M363.52 455.68c-8.40192-40.8576 24.85248-55.9104 56.32-73.24672 65.50528-36.08064 129.3568-75.18208 194.56-111.78496 18.09408-10.15808 68.80768-27.3408 72.08448-50.80576 2.52416-18.09408-24.02304-28.3648-36.24448-35.57888-37.632-22.21056-83.74784-60.17024-128-65.52064-34.62656-4.18304-63.55456 16.30208-92.16 32.70144L266.24 245.76c-21.26336 12.14976-72.41216 30.5664-68.70016 61.45024 2.6624 22.12864 27.38688 37.44768 43.10016 50.176C281.14944 390.21056 320.03584 426.91584 363.52 455.68z" fill="#FBC003" p-id="62872"></path><path d="M532.48 117.76l5.12 5.12-5.12-5.12m-66.56 10.24l5.12 5.12-5.12-5.12m87.04 0l5.12 5.12-5.12-5.12m-97.28 5.12l5.12 5.12-5.12-5.12m107.52 0l5.12 5.12-5.12-5.12m-133.12 15.36l5.12 5.12-5.12-5.12m158.72 0l5.12 5.12-5.12-5.12m-168.96 5.12l5.12 5.12-5.12-5.12m179.2 0l5.12 5.12-5.12-5.12m-189.44 5.12l5.12 5.12-5.12-5.12m-15.36 10.24l5.12 5.12-5.12-5.12m230.4 0l5.12 5.12-5.12-5.12m-240.64 5.12l5.12 5.12-5.12-5.12m-15.36 10.24l5.12 5.12-5.12-5.12m281.6 0l5.12 5.12-5.12-5.12m-291.84 5.12l5.12 5.12-5.12-5.12m302.08 0l5.12 5.12-5.12-5.12m-337.92 20.48l5.12 5.12-5.12-5.12m-15.36 10.24l5.12 5.12-5.12-5.12m-10.24 5.12l5.12 5.12-5.12-5.12m-10.24 5.12l5.12 5.12-5.12-5.12m-10.24 5.12l5.12 5.12-5.12-5.12m430.08 0l5.12 5.12-5.12-5.12z" fill="#FEEAAB" p-id="62873"></path><path d="M711.68 235.52l5.12 5.12-5.12-5.12z" fill="#7CACB6" p-id="62874"></path><path d="M849.92 711.68c28.672-36.05504 15.36-104.59648 15.36-148.48 0-65.69472 22.26176-181.48864-7.45984-240.64-14.5664-28.98432-42.65984-41.984-69.34016-57.1904-17.52064-9.984-35.328-25.80992-56.2432-27.5456-25.56928-2.12992-39.99744 25.23648-51.7376 43.776-28.38528 44.84096-59.97056 87.72096-87.54176 133.12-11.69408 19.2512-24.3456 39.2704-10.65472 60.96384 61.4144 97.28 200.28928 140.47744 267.61728 235.99616z" fill="#337F8D" p-id="62875"></path><path d="M740.69504 237.22496l3.40992 1.71008-3.40992-1.71008z" fill="#7CACB6" p-id="62876"></path><path d="M660.48 240.64l5.12 5.12-5.12-5.12m-399.36 5.12l5.12 5.12-5.12-5.12m389.12 0l5.12 5.12-5.12-5.12z" fill="#FEEAAB" p-id="62877"></path><path d="M701.44 245.76l5.12 5.12-5.12-5.12m56.32 0l5.12 5.12-5.12-5.12z" fill="#7CACB6" p-id="62878"></path><path d="M250.88 250.88l5.12 5.12-5.12-5.12z" fill="#FEEAAB" p-id="62879"></path><path d="M696.32 250.88l5.12 5.12-5.12-5.12m71.68 0l5.12 5.12-5.12-5.12z" fill="#7CACB6" p-id="62880"></path><path d="M240.64 256l5.12 5.12-5.12-5.12m450.56 0l5.12 5.12-5.12-5.12z" fill="#FEEAAB" p-id="62881"></path><path d="M773.12 256l5.12 5.12-5.12-5.12z" fill="#7CACB6" p-id="62882"></path><path d="M778.24 256l5.12 5.12-5.12-5.12m-153.6 5.12l5.12 5.12-5.12-5.12z" fill="#FEEAAB" p-id="62883"></path><path d="M691.2 261.12l5.12 5.12-5.12-5.12m92.16 0l5.12 5.12-5.12-5.12z" fill="#7CACB6" p-id="62884"></path><path d="M225.28 266.24l5.12 5.12-5.12-5.12m389.12 0l5.12 5.12-5.12-5.12z" fill="#FEEAAB" p-id="62885"></path><path d="M686.08 266.24l5.12 5.12-5.12-5.12m102.4 0l5.12 5.12-5.12-5.12z" fill="#7CACB6" p-id="62886"></path><path d="M793.6 266.24l5.12 5.12-5.12-5.12M215.04 271.36l5.12 5.12-5.12-5.12m389.12 0l5.12 5.12-5.12-5.12m76.8 0l5.12 5.12-5.12-5.12z" fill="#FEEAAB" p-id="62887"></path><path d="M803.84 271.36l5.12 5.12-5.12-5.12z" fill="#7CACB6" p-id="62888"></path><path d="M204.8 276.48l5.12 5.12-5.12-5.12m609.28 0l5.12 5.12-5.12-5.12M199.68 281.6l5.12 5.12-5.12-5.12z" fill="#FEEAAB" p-id="62889"></path><path d="M675.84 281.6l5.12 5.12-5.12-5.12m143.36 0l5.12 5.12-5.12-5.12z" fill="#7CACB6" p-id="62890"></path><path d="M194.56 286.72l5.12 5.12-5.12-5.12m384 0l5.12 5.12-5.12-5.12m92.16 0l5.12 5.12-5.12-5.12m158.72 0l5.12 5.12-5.12-5.12M184.32 291.84l5.12 5.12-5.12-5.12z" fill="#FEEAAB" p-id="62891"></path><path d="M670.72 291.84l5.12 5.12-5.12-5.12m163.84 0l5.12 5.12-5.12-5.12M179.2 296.96l5.12 5.12-5.12-5.12z" fill="#7CACB6" p-id="62892"></path><path d="M665.6 296.96l5.12 5.12-5.12-5.12z" fill="#FEEAAB" p-id="62893"></path><path d="M839.68 296.96l5.12 5.12-5.12-5.12M174.08 302.08v20.48h5.12l-5.12-20.48z" fill="#7CACB6" p-id="62894"></path><path d="M552.96 302.08l5.12 5.12-5.12-5.12z" fill="#FEEAAB" p-id="62895"></path><path d="M665.6 302.08l5.12 5.12-5.12-5.12m179.2 0l5.12 5.12-5.12-5.12z" fill="#7CACB6" p-id="62896"></path><path d="M168.96 307.2l5.12 5.12-5.12-5.12z" fill="#FEEAAB" p-id="62897"></path><path d="M660.48 307.2l5.12 5.12-5.12-5.12z" fill="#7CACB6" p-id="62898"></path><path d="M849.92 307.2l5.12 5.12-5.12-5.12z" fill="#FEEAAB" p-id="62899"></path><path d="M168.96 312.32c-29.6704 81.408-10.24 195.38944-10.24 281.6 0 34.8672-7.54176 80.34816 8.04864 112.61952 16.1024 33.32608 87.552 79.488 125.06624 80.96256 25.32352 0.99328 38.84032-21.12 50.92864-39.98208 27.6992-43.23328 57.30304-85.30432 85.0176-128.4608 10.94656-17.03936 27.0592-40.20736 17.42336-60.97408-14.3872-30.98112-56.05888-55.0912-81.68448-76.3904C297.32352 426.6752 226.68288 376.23808 168.96 312.32z" fill="#337F8D" p-id="62900"></path><path d="M194.56 312.32l5.12 5.12-5.12-5.12m343.04 0l5.12 5.12-5.12-5.12m117.76 0l5.12 5.12-5.12-5.12z" fill="#FEEAAB" p-id="62901"></path><path d="M163.84 317.44l5.12 5.12-5.12-5.12m691.2 0l5.12 5.12-5.12-5.12z" fill="#7CACB6" p-id="62902"></path><path d="M199.68 322.56l5.12 5.12-5.12-5.12m317.44 0l5.12 5.12-5.12-5.12z" fill="#FEEAAB" p-id="62903"></path><path d="M158.72 327.68l5.12 5.12-5.12-5.12m20.48 0l5.12 5.12-5.12-5.12z" fill="#7CACB6" p-id="62904"></path><path d="M204.8 327.68l5.12 5.12-5.12-5.12m302.08 0l5.12 5.12-5.12-5.12z" fill="#FEEAAB" p-id="62905"></path><path d="M645.12 327.68l5.12 5.12-5.12-5.12m215.04 0l5.12 5.12-5.12-5.12M184.32 332.8l5.12 5.12-5.12-5.12m5.12 5.12l5.12 5.12-5.12-5.12z" fill="#7CACB6" p-id="62906"></path><path d="M491.52 337.92l5.12 5.12-5.12-5.12z" fill="#FEEAAB" p-id="62907"></path><path d="M640 337.92l5.12 5.12-5.12-5.12m-445.44 5.12l5.12 5.12-5.12-5.12z" fill="#7CACB6" p-id="62908"></path><path d="M225.28 343.04l5.12 5.12-5.12-5.12m256 0l5.12 5.12-5.12-5.12z" fill="#FEEAAB" p-id="62909"></path><path d="M634.88 343.04l5.12 5.12-5.12-5.12m-435.2 5.12l5.12 5.12-5.12-5.12z" fill="#7CACB6" p-id="62910"></path><path d="M230.4 348.16l5.12 5.12-5.12-5.12m240.64 0l5.12 5.12-5.12-5.12m-317.44 5.12v322.56h5.12V455.68l-5.12-102.4m56.32 0l5.12 5.12-5.12-5.12m25.6 0l5.12 5.12-5.12-5.12m225.28 0l5.12 5.12-5.12-5.12z" fill="#FEEAAB" p-id="62911"></path><path d="M629.76 353.28l5.12 5.12-5.12-5.12m-414.72 5.12l5.12 5.12-5.12-5.12z" fill="#7CACB6" p-id="62912"></path><path d="M624.64 358.4l5.12 5.12-5.12-5.12z" fill="#FEEAAB" p-id="62913"></path><path d="M220.16 363.52l5.12 5.12-5.12-5.12z" fill="#7CACB6" p-id="62914"></path><path d="M250.88 363.52l5.12 5.12-5.12-5.12m194.56 0l5.12 5.12-5.12-5.12z" fill="#FEEAAB" p-id="62915"></path><path d="M225.28 368.64l5.12 5.12-5.12-5.12z" fill="#7CACB6" p-id="62916"></path><path d="M256 368.64l5.12 5.12-5.12-5.12m179.2 0l5.12 5.12-5.12-5.12z" fill="#FEEAAB" p-id="62917"></path><path d="M619.52 368.64l5.12 5.12-5.12-5.12m-389.12 5.12l5.12 5.12-5.12-5.12z" fill="#7CACB6" p-id="62918"></path><path d="M261.12 373.76l5.12 5.12-5.12-5.12m168.96 0l5.12 5.12-5.12-5.12z" fill="#FEEAAB" p-id="62919"></path><path d="M235.52 378.88l5.12 5.12-5.12-5.12z" fill="#7CACB6" p-id="62920"></path><path d="M419.84 378.88l5.12 5.12-5.12-5.12m-174.08 5.12l5.12 5.12-5.12-5.12m25.6 0l5.12 5.12-5.12-5.12m138.24 0l5.12 5.12-5.12-5.12z" fill="#FEEAAB" p-id="62921"></path><path d="M609.28 384l5.12 5.12-5.12-5.12m-358.4 5.12l5.12 5.12-5.12-5.12z" fill="#7CACB6" p-id="62922"></path><path d="M281.6 389.12l5.12 5.12-5.12-5.12m117.76 0l5.12 5.12-5.12-5.12z" fill="#FEEAAB" p-id="62923"></path><path d="M604.16 389.12l5.12 5.12-5.12-5.12m-348.16 5.12l5.12 5.12-5.12-5.12z" fill="#7CACB6" p-id="62924"></path><path d="M286.72 394.24l5.12 5.12-5.12-5.12m102.4 0l5.12 5.12-5.12-5.12m-122.88 5.12l5.12 5.12-5.12-5.12m25.6 0l5.12 5.12-5.12-5.12m92.16 0l5.12 5.12-5.12-5.12z" fill="#FEEAAB" p-id="62925"></path><path d="M599.04 399.36l5.12 5.12-5.12-5.12z" fill="#7CACB6" p-id="62926"></path><path d="M373.76 404.48l5.12 5.12-5.12-5.12z" fill="#FEEAAB" p-id="62927"></path><path d="M593.92 404.48l5.12 5.12-5.12-5.12z" fill="#7CACB6" p-id="62928"></path><path d="M276.48 409.6l5.12 5.12-5.12-5.12m30.72 0l5.12 5.12-5.12-5.12z" fill="#FEEAAB" p-id="62929"></path><path d="M281.6 414.72l5.12 5.12-5.12-5.12z" fill="#7CACB6" p-id="62930"></path><path d="M312.32 414.72l5.12 5.12-5.12-5.12z" fill="#FEEAAB" p-id="62931"></path><path d="M588.8 414.72l5.12 5.12-5.12-5.12m-302.08 5.12l5.12 5.12-5.12-5.12z" fill="#7CACB6" p-id="62932"></path><path d="M317.44 419.84l5.12 5.12-5.12-5.12m40.96 0l5.12 5.12-5.12-5.12z" fill="#FEEAAB" p-id="62933"></path><path d="M291.84 424.96l5.12 5.12-5.12-5.12z" fill="#7CACB6" p-id="62934"></path><path d="M322.56 424.96l5.12 5.12-5.12-5.12z" fill="#FEEAAB" p-id="62935"></path><path d="M583.68 424.96l5.12 5.12-5.12-5.12z" fill="#7CACB6" p-id="62936"></path><path d="M302.08 430.08l5.12 5.12-5.12-5.12m25.6 0l5.12 5.12-5.12-5.12z" fill="#FEEAAB" p-id="62937"></path><path d="M578.56 430.08l5.12 5.12-5.12-5.12m-271.36 5.12l5.12 5.12-5.12-5.12z" fill="#7CACB6" p-id="62938"></path><path d="M337.92 435.2l5.12 5.12-5.12-5.12m235.52 0l5.12 5.12-5.12-5.12z" fill="#FEEAAB" p-id="62939"></path><path d="M312.32 440.32l5.12 5.12-5.12-5.12z" fill="#7CACB6" p-id="62940"></path><path d="M343.04 440.32l5.12 5.12-5.12-5.12z" fill="#FEEAAB" p-id="62941"></path><path d="M573.44 440.32l5.12 5.12-5.12-5.12m-256 5.12l5.12 5.12-5.12-5.12z" fill="#7CACB6" p-id="62942"></path><path d="M348.16 445.44l5.12 5.12-5.12-5.12m10.24 0l5.12 5.12-5.12-5.12m-5.12 5.12l5.12 5.12-5.12-5.12m215.04 0v15.36h5.12l-5.12-15.36m-235.52 5.12l5.12 5.12-5.12-5.12m30.72 0l5.12 5.12-5.12-5.12z" fill="#FEEAAB" p-id="62943"></path><path d="M337.92 460.8l5.12 5.12-5.12-5.12m5.12 5.12l5.12 5.12-5.12-5.12m230.4 0l5.12 5.12-5.12-5.12z" fill="#7CACB6" p-id="62944"></path><path d="M573.44 471.04l5.12 5.12-5.12-5.12m-215.04 5.12l5.12 5.12-5.12-5.12z" fill="#FEEAAB" p-id="62945"></path><path d="M578.56 476.16l5.12 5.12-5.12-5.12m-215.04 5.12l5.12 5.12-5.12-5.12z" fill="#7CACB6" p-id="62946"></path><path d="M583.68 481.28l5.12 5.12-5.12-5.12z" fill="#FEEAAB" p-id="62947"></path><path d="M368.64 486.4l5.12 5.12-5.12-5.12m220.16 0l5.12 5.12-5.12-5.12m-215.04 5.12l5.12 5.12-5.12-5.12m225.28 0l5.12 5.12-5.12-5.12m10.24 10.24l5.12 5.12-5.12-5.12m-215.04 5.12l5.12 5.12-5.12-5.12m225.28 0l5.12 5.12-5.12-5.12z" fill="#7CACB6" p-id="62948"></path><path d="M399.36 512l5.12 5.12-5.12-5.12m220.16 0l5.12 5.12-5.12-5.12z" fill="#FEEAAB" p-id="62949"></path><path d="M404.48 517.12l5.12 5.12-5.12-5.12m225.28 0l5.12 5.12-5.12-5.12z" fill="#7CACB6" p-id="62950"></path><path d="M414.72 522.24l5.12 5.12-5.12-5.12z" fill="#FEEAAB" p-id="62951"></path><path d="M634.88 522.24l5.12 5.12-5.12-5.12z" fill="#7CACB6" p-id="62952"></path><path d="M419.84 527.36l5.12 5.12-5.12-5.12z" fill="#FEEAAB" p-id="62953"></path><path d="M640 527.36l5.12 5.12-5.12-5.12m-215.04 5.12l5.12 5.12-5.12-5.12m220.16 0l5.12 5.12-5.12-5.12m-215.04 5.12l5.12 5.12-5.12-5.12m225.28 0l5.12 5.12-5.12-5.12m-220.16 5.12l5.12 5.12-5.12-5.12m5.12 5.12l5.12 5.12-5.12-5.12m225.28 0l5.12 5.12-5.12-5.12m-220.16 5.12l5.12 5.12-5.12-5.12m225.28 0l5.12 5.12-5.12-5.12z" fill="#7CACB6" p-id="62954"></path><path d="M675.84 558.08l5.12 5.12-5.12-5.12m-225.28 5.12v15.36h5.12l-5.12-15.36m230.4 0l5.12 5.12-5.12-5.12z" fill="#FEEAAB" p-id="62955"></path><path d="M686.08 563.2l5.12 5.12-5.12-5.12m-25.6 5.12l10.24 10.24-5.12 10.24v5.12h5.12l10.24-5.12-20.48-20.48m30.72 0l5.12 5.12-5.12-5.12m5.12 5.12l5.12 5.12-5.12-5.12z" fill="#7CACB6" p-id="62956"></path><path d="M665.6 578.56l5.12 5.12-5.12-5.12z" fill="#337F8D" p-id="62957"></path><path d="M701.44 578.56l5.12 5.12-5.12-5.12m-256 5.12l5.12 5.12-5.12-5.12z" fill="#7CACB6" p-id="62958"></path><path d="M670.72 583.68c-32.61952 73.9584-171.8016 123.8784-240.64 162.25792-21.83168 12.17536-82.5088 33.25952-90.38848 58.77248-5.0176 16.2304 18.10944 27.12064 28.9536 33.51552 37.44256 22.08768 84.352 61.29152 127.99488 67.05152 80.52736 10.624 187.96544-84.38272 256-122.38848 19.84512-11.0848 70.89152-30.22336 73.41056-56.07424 1.98656-20.41856-18.85184-35.53792-32.47104-47.11424-38.26176-32.52224-77.83424-73.43616-122.85952-96.02048z" fill="#337F8D" p-id="62959"></path><path d="M706.56 583.68l5.12 5.12-5.12-5.12m-266.24 5.12l5.12 5.12-5.12-5.12m245.76 0l5.12 5.12-5.12-5.12m30.72 0l5.12 5.12-5.12-5.12m-25.6 5.12l5.12 5.12-5.12-5.12m30.72 0l5.12 5.12-5.12-5.12m-286.72 5.12l5.12 5.12-5.12-5.12z" fill="#7CACB6" p-id="62960"></path><path d="M660.48 599.04l5.12 5.12-5.12-5.12z" fill="#FEEAAB" p-id="62961"></path><path d="M696.32 599.04l5.12 5.12-5.12-5.12m30.72 0l5.12 5.12-5.12-5.12z" fill="#7CACB6" p-id="62962"></path><path d="M732.16 604.16l5.12 5.12-5.12-5.12z" fill="#FEEAAB" p-id="62963"></path><path d="M430.08 609.28l5.12 5.12-5.12-5.12m225.28 0l5.12 5.12-5.12-5.12m51.2 0l5.12 5.12-5.12-5.12z" fill="#7CACB6" p-id="62964"></path><path d="M737.28 609.28l5.12 5.12-5.12-5.12z" fill="#FEEAAB" p-id="62965"></path><path d="M742.4 609.28l5.12 5.12-5.12-5.12m-92.16 5.12l5.12 5.12-5.12-5.12m97.28 0l5.12 5.12-5.12-5.12z" fill="#7CACB6" p-id="62966"></path><path d="M640 619.52l5.12 5.12-5.12-5.12z" fill="#FEEAAB" p-id="62967"></path><path d="M645.12 619.52l5.12 5.12-5.12-5.12m76.8 0l5.12 5.12-5.12-5.12m30.72 0l5.12 5.12-5.12-5.12m-332.8 5.12l5.12 5.12-5.12-5.12m215.04 0l5.12 5.12-5.12-5.12m92.16 0l5.12 5.12-5.12-5.12m30.72 0l5.12 5.12-5.12-5.12z" fill="#7CACB6" p-id="62968"></path><path d="M624.64 629.76l5.12 5.12-5.12-5.12z" fill="#FEEAAB" p-id="62969"></path><path d="M629.76 629.76l5.12 5.12-5.12-5.12m102.4 0l5.12 5.12-5.12-5.12m30.72 0l5.12 5.12-5.12-5.12m-353.28 5.12l5.12 5.12-5.12-5.12m204.8 0l5.12 5.12-5.12-5.12m128 0l5.12 5.12-5.12-5.12m30.72 0l5.12 5.12-5.12-5.12z" fill="#7CACB6" p-id="62970"></path><path d="M409.6 640l5.12 5.12-5.12-5.12z" fill="#FEEAAB" p-id="62971"></path><path d="M604.16 640l5.12 5.12-5.12-5.12m143.36 0l5.12 5.12-5.12-5.12m30.72 0l5.12 5.12-5.12-5.12m-373.76 5.12l5.12 5.12-5.12-5.12m194.56 0l5.12 5.12-5.12-5.12m153.6 0l5.12 5.12-5.12-5.12m30.72 0l5.12 5.12-5.12-5.12m-194.56 5.12l5.12 5.12-5.12-5.12m168.96 0l5.12 5.12-5.12-5.12m30.72 0l5.12 5.12-5.12-5.12z" fill="#7CACB6" p-id="62972"></path><path d="M399.36 655.36l5.12 5.12-5.12-5.12m179.2 0l5.12 5.12-5.12-5.12z" fill="#FEEAAB" p-id="62973"></path><path d="M583.68 655.36l5.12 5.12-5.12-5.12m179.2 0l5.12 5.12-5.12-5.12m30.72 0l5.12 5.12-5.12-5.12m-399.36 5.12l5.12 5.12-5.12-5.12m179.2 0l5.12 5.12-5.12-5.12m-10.24 5.12l5.12 5.12-5.12-5.12m215.04 0l5.12 5.12-5.12-5.12m30.72 0l5.12 5.12-5.12-5.12m-256 5.12l5.12 5.12-5.12-5.12m230.4 0l5.12 5.12-5.12-5.12z" fill="#7CACB6" p-id="62974"></path><path d="M814.08 670.72l5.12 5.12-5.12-5.12z" fill="#FEEAAB" p-id="62975"></path><path d="M384 675.84l5.12 5.12-5.12-5.12m158.72 0l5.12 5.12-5.12-5.12m245.76 0l5.12 5.12-5.12-5.12z" fill="#7CACB6" p-id="62976"></path><path d="M384 680.96l5.12 5.12-5.12-5.12m148.48 0l5.12 5.12-5.12-5.12z" fill="#FEEAAB" p-id="62977"></path><path d="M537.6 680.96l5.12 5.12-5.12-5.12m256 0l5.12 5.12-5.12-5.12z" fill="#7CACB6" p-id="62978"></path><path d="M798.72 680.96l5.12 5.12-5.12-5.12m25.6 0l5.12 5.12-5.12-5.12z" fill="#FEEAAB" p-id="62979"></path><path d="M378.88 686.08l5.12 5.12-5.12-5.12m148.48 0l5.12 5.12-5.12-5.12z" fill="#7CACB6" p-id="62980"></path><path d="M803.84 686.08l5.12 5.12-5.12-5.12z" fill="#FEEAAB" p-id="62981"></path><path d="M160.42496 694.61504l1.71008 3.40992-1.71008-3.40992M373.76 691.2l5.12 5.12-5.12-5.12m143.36 0l5.12 5.12-5.12-5.12m291.84 0l5.12 5.12-5.12-5.12z" fill="#7CACB6" p-id="62982"></path><path d="M834.56 691.2l5.12 5.12-5.12-5.12z" fill="#FEEAAB" p-id="62983"></path><path d="M860.16 691.2l5.12 5.12-5.12-5.12m-353.28 5.12l5.12 5.12-5.12-5.12m307.2 0l5.12 5.12-5.12-5.12m25.6 0l5.12 5.12-5.12-5.12z" fill="#7CACB6" p-id="62984"></path><path d="M860.16 696.32l5.12 5.12-5.12-5.12z" fill="#FEEAAB" p-id="62985"></path><path d="M368.64 701.44l5.12 5.12-5.12-5.12m133.12 0l5.12 5.12-5.12-5.12m317.44 0l5.12 5.12-5.12-5.12m25.6 0v20.48h5.12l-5.12-20.48m10.24 0l5.12 5.12-5.12-5.12z" fill="#7CACB6" p-id="62986"></path><path d="M163.84 706.56l5.12 5.12-5.12-5.12z" fill="#FEEAAB" p-id="62987"></path><path d="M363.52 706.56l5.12 5.12-5.12-5.12z" fill="#7CACB6" p-id="62988"></path><path d="M486.4 706.56l5.12 5.12-5.12-5.12z" fill="#FEEAAB" p-id="62989"></path><path d="M491.52 706.56l5.12 5.12-5.12-5.12z" fill="#7CACB6" p-id="62990"></path><path d="M824.32 706.56l5.12 5.12-5.12-5.12m30.72 0l5.12 5.12-5.12-5.12z" fill="#FEEAAB" p-id="62991"></path><path d="M481.28 711.68l5.12 5.12-5.12-5.12m343.04 0l5.12 5.12-5.12-5.12m-465.92 5.12l5.12 5.12-5.12-5.12m112.64 0l5.12 5.12-5.12-5.12m-117.76 5.12l5.12 5.12-5.12-5.12z" fill="#7CACB6" p-id="62992"></path><path d="M839.68 721.92l5.12 5.12-5.12-5.12m-660.48 5.12l5.12 5.12-5.12-5.12z" fill="#FEEAAB" p-id="62993"></path><path d="M455.68 727.04l5.12 5.12-5.12-5.12z" fill="#7CACB6" p-id="62994"></path><path d="M834.56 727.04l5.12 5.12-5.12-5.12z" fill="#FEEAAB" p-id="62995"></path><path d="M348.16 732.16l5.12 5.12-5.12-5.12m97.28 0l5.12 5.12-5.12-5.12m378.88 0l5.12 5.12-5.12-5.12m-629.76 5.12l5.12 5.12-5.12-5.12z" fill="#7CACB6" p-id="62996"></path><path d="M435.2 737.28l5.12 5.12-5.12-5.12z" fill="#FEEAAB" p-id="62997"></path><path d="M440.32 737.28l5.12 5.12-5.12-5.12m-240.64 5.12l5.12 5.12-5.12-5.12m143.36 0l5.12 5.12-5.12-5.12m87.04 0l5.12 5.12-5.12-5.12m-220.16 5.12l5.12 5.12-5.12-5.12m128 0l5.12 5.12-5.12-5.12m81.92 0l5.12 5.12-5.12-5.12m389.12 0l5.12 5.12-5.12-5.12z" fill="#7CACB6" p-id="62998"></path><path d="M220.16 752.64l5.12 5.12-5.12-5.12z" fill="#FEEAAB" p-id="62999"></path><path d="M409.6 752.64l5.12 5.12-5.12-5.12m384 0l5.12 5.12-5.12-5.12z" fill="#7CACB6" p-id="63000"></path><path d="M798.72 752.64l5.12 5.12-5.12-5.12z" fill="#FEEAAB" p-id="63001"></path><path d="M230.4 757.76l5.12 5.12-5.12-5.12z" fill="#7CACB6" p-id="63002"></path><path d="M332.8 757.76l5.12 5.12-5.12-5.12z" fill="#FEEAAB" p-id="63003"></path><path d="M399.36 757.76l5.12 5.12-5.12-5.12m389.12 0l5.12 5.12-5.12-5.12z" fill="#7CACB6" p-id="63004"></path><path d="M235.52 762.88l5.12 5.12-5.12-5.12z" fill="#FEEAAB" p-id="63005"></path><path d="M240.64 762.88l5.12 5.12-5.12-5.12m87.04 0l5.12 5.12-5.12-5.12z" fill="#7CACB6" p-id="63006"></path><path d="M389.12 762.88l5.12 5.12-5.12-5.12z" fill="#FEEAAB" p-id="63007"></path><path d="M394.24 762.88l5.12 5.12-5.12-5.12m384 0l5.12 5.12-5.12-5.12z" fill="#7CACB6" p-id="63008"></path><path d="M783.36 762.88l5.12 5.12-5.12-5.12z" fill="#FEEAAB" p-id="63009"></path><path d="M245.76 768l5.12 5.12-5.12-5.12m138.24 0l5.12 5.12-5.12-5.12m389.12 0l5.12 5.12-5.12-5.12m-517.12 5.12l5.12 5.12-5.12-5.12m117.76 0l5.12 5.12-5.12-5.12m389.12 0l5.12 5.12-5.12-5.12m-496.64 5.12l5.12 5.12-5.12-5.12m51.2 0l5.12 5.12-5.12-5.12z" fill="#7CACB6" p-id="63010"></path><path d="M363.52 778.24l5.12 5.12-5.12-5.12z" fill="#FEEAAB" p-id="63011"></path><path d="M752.64 778.24l5.12 5.12-5.12-5.12m-481.28 5.12l5.12 5.12-5.12-5.12m40.96 0l5.12 5.12-5.12-5.12m46.08 0l5.12 5.12-5.12-5.12m389.12 0l5.12 5.12-5.12-5.12z" fill="#7CACB6" p-id="63012"></path><path d="M281.6 788.48l5.12 5.12-5.12-5.12z" fill="#FEEAAB" p-id="63013"></path><path d="M286.72 788.48v5.12h20.48l-20.48-5.12m61.44 0l5.12 5.12-5.12-5.12m384 0l5.12 5.12-5.12-5.12z" fill="#7CACB6" p-id="63014"></path><path d="M737.28 788.48l5.12 5.12-5.12-5.12z" fill="#FEEAAB" p-id="63015"></path><path d="M337.92 793.6l5.12 5.12-5.12-5.12m389.12 0l5.12 5.12-5.12-5.12m-394.24 5.12l5.12 5.12-5.12-5.12m384 0l5.12 5.12-5.12-5.12m-10.24 5.12l5.12 5.12-5.12-5.12m-5.12 5.12l5.12 5.12-5.12-5.12m-368.64 5.12l5.12 5.12-5.12-5.12m358.4 0l5.12 5.12-5.12-5.12m-353.28 5.12l5.12 5.12-5.12-5.12m343.04 0l5.12 5.12-5.12-5.12m-332.8 5.12l5.12 5.12-5.12-5.12m322.56 0l5.12 5.12-5.12-5.12z" fill="#7CACB6" p-id="63016"></path><path d="M353.28 829.44l5.12 5.12-5.12-5.12z" fill="#FEEAAB" p-id="63017"></path><path d="M665.6 829.44l5.12 5.12-5.12-5.12m-302.08 5.12l5.12 5.12-5.12-5.12m291.84 0l5.12 5.12-5.12-5.12m-281.6 5.12l5.12 5.12-5.12-5.12m271.36 0l5.12 5.12-5.12-5.12m-261.12 5.12l5.12 5.12-5.12-5.12m250.88 0l5.12 5.12-5.12-5.12z" fill="#7CACB6" p-id="63018"></path><path d="M640 844.8l5.12 5.12-5.12-5.12z" fill="#FEEAAB" p-id="63019"></path><path d="M389.12 849.92l5.12 5.12-5.12-5.12m240.64 0l5.12 5.12-5.12-5.12m-230.4 5.12l5.12 5.12-5.12-5.12m220.16 0l5.12 5.12-5.12-5.12z" fill="#7CACB6" p-id="63020"></path><path d="M404.48 860.16l5.12 5.12-5.12-5.12m209.92 0l5.12 5.12-5.12-5.12z" fill="#FEEAAB" p-id="63021"></path><path d="M414.72 865.28l5.12 5.12-5.12-5.12m189.44 0l5.12 5.12-5.12-5.12z" fill="#7CACB6" p-id="63022"></path><path d="M424.96 870.4l5.12 5.12-5.12-5.12z" fill="#FEEAAB" p-id="63023"></path><path d="M430.08 870.4l5.12 5.12-5.12-5.12m158.72 0l5.12 5.12-5.12-5.12z" fill="#7CACB6" p-id="63024"></path><path d="M593.92 870.4l5.12 5.12-5.12-5.12z" fill="#FEEAAB" p-id="63025"></path><path d="M435.2 875.52l5.12 5.12-5.12-5.12m148.48 0l5.12 5.12-5.12-5.12m-138.24 5.12l5.12 5.12-5.12-5.12m128 0l5.12 5.12-5.12-5.12z" fill="#7CACB6" p-id="63026"></path><path d="M450.56 885.76l5.12 5.12-5.12-5.12m117.76 0l5.12 5.12-5.12-5.12z" fill="#FEEAAB" p-id="63027"></path><path d="M460.8 890.88l5.12 5.12-5.12-5.12m97.28 0l5.12 5.12-5.12-5.12z" fill="#7CACB6" p-id="63028"></path><path d="M476.16 901.12l5.12 5.12-5.12-5.12z" fill="#FEEAAB" p-id="63029"></path><path d="M481.28 901.12l5.12 5.12-5.12-5.12m56.32 0l5.12 5.12-5.12-5.12z" fill="#7CACB6" p-id="63030"></path><path d="M542.72 901.12l5.12 5.12-5.12-5.12m-46.08 5.12v5.12h30.72l-30.72-5.12z" fill="#FEEAAB" p-id="63031"></path></svg>