<?xml version="1.0" standalone="no"?><!DOCTYPE svg PUBLIC "-//W3C//DTD SVG 1.1//EN" "http://www.w3.org/Graphics/SVG/1.1/DTD/svg11.dtd"><svg t="1730341052417" class="icon" viewBox="0 0 1536 1024" version="1.1" xmlns="http://www.w3.org/2000/svg" p-id="65989" xmlns:xlink="http://www.w3.org/1999/xlink" width="300" height="200"><path d="M0 0m86.730048 0l1127.490631 0q86.730048 0 86.730048 86.730048l0 693.840388q0 86.730048-86.730048 86.730049l-1127.490631 0q-86.730048 0-86.730048-86.730049l0-693.840388q0-86.730048 86.730048-86.730048Z" fill="#FFFFFF" fill-opacity=".5" p-id="65990"></path><path d="M650.692189 130.095073c40.264425 0 73.048383 32.133483 73.048383 71.617337 0 11.470049-2.862092 22.940098-8.152624 32.805641l59.193258 44.991213c7.697292-5.26885 16.695534-8.022529 25.737142-8.02253 24.848159 0 45.099625 19.731086 45.099625 44.058865 0 24.327779-20.251466 44.080547-45.099625 44.080547-24.869841 0-45.099625-19.731086-45.099626-44.080547 0-5.507358 1.084126-10.776209 2.862092-15.611409l-59.193258-44.96953a74.479429 74.479429 0 0 1-35.407542 16.977407v68.863659c26.170792 5.962691 45.966926 28.924471 45.966925 56.461261C709.668622 429.161962 683.259322 455.332755 650.475364 455.332755c-32.567133 0-59.193258-25.932284-59.193258-58.065768 0-27.53679 19.600991-50.520253 45.988608-56.461261v-68.863659a74.479429 74.479429 0 0 1-35.407543-16.977407l-59.193258 44.96953c1.756283 4.8352 2.862092 10.104051 2.862092 15.611409 0 24.327779-20.229784 44.080547-45.099625 44.080547-24.848159 0-45.099625-19.731086-45.099625-44.080547 0-24.327779 20.685117-44.058865 45.533275-44.058865 9.692083 0 18.495183 2.970504 25.97565 8.02253l59.193258-44.991213a70.85845 70.85845 0 0 1-8.152625-32.805641C577.665488 161.968366 610.210939 130.095073 650.692189 130.095073z" fill="#029A8E" p-id="65991"></path><path d="M177.146124 567.214517v36.209795h25.585364v19.080611H177.146124v65.047536c0 3.035552 0.650475 5.203803 1.951426 6.721579 1.300951 1.300951 3.252377 2.168251 6.071104 2.168251h14.744108V715.5229h-18.430136c-9.540305 0-16.695534-2.601901-21.032036-7.588879-4.336502-4.770153-6.287929-11.491731-6.287929-20.381562v-65.047536h-20.815211v-19.080611h20.815211V576.754822l22.983463-9.540305z m94.622483 33.174244c16.478709 0 28.620916 4.119677 36.42662 12.359032 6.721579 7.155229 10.190781 17.562835 10.190781 31.222817V715.5229h-21.248862v-15.828234c-4.336502 5.637453-9.75713 10.190781-16.261884 13.443158-7.372054 3.469202-16.045059 5.420628-26.019015 5.420628-11.708557 0-20.815212-3.035552-27.319965-8.88983a27.970441 27.970441 0 0 1-10.624431-22.766638c0-12.575857 4.986978-22.332987 14.960934-29.054566 9.106655-6.504754 22.116162-9.75713 38.594871-10.190781l25.151714-0.650475v-4.553328c0-15.611409-8.45618-23.417113-25.368539-23.417113-7.155229 0-13.009507 1.300951-17.34601 3.902852-5.203803 3.035552-8.45618 7.588879-9.75713 13.876808l-22.766638-1.951426c2.385076-12.142207 8.45618-21.248862 17.996485-26.886315 8.239355-5.203803 19.514261-7.588879 33.391069-7.588879z m23.850763 63.312935l-23.633938 0.650475c-21.032037 0.43365-31.439643 7.805704-31.439643 21.682513 0 4.336502 1.734601 7.805704 5.420629 10.62443 3.469202 2.818727 8.239355 4.336502 14.093632 4.336503 9.75713 0 17.996485-3.035552 24.934889-8.88983 6.938404-5.854278 10.624431-13.226332 10.624431-21.899337v-6.504754z m49.067525-106.027484h22.983463v62.445635c9.106655-13.226332 20.381561-19.731086 34.258369-19.731086 16.045059 0 28.620916 5.854278 37.944396 17.562834 8.45618 10.841256 12.792682 24.501239 12.792683 40.979948 0 17.129185-4.336502 31.222817-13.009508 42.064074-9.540305 11.708557-22.332987 17.562835-38.811696 17.562835-15.394584 0-26.886315-5.637453-34.69202-16.478709V715.5229h-21.465687v-157.848688z m52.038029 61.361509c-8.673005 0-15.611409 3.252377-20.815211 10.190781-6.071103 7.372054-8.88983 17.129185-8.88983 29.271391v1.951426c0 11.274906 2.385076 20.381561 7.155229 27.536791 5.420628 7.805704 13.226332 11.925382 23.200288 11.925381 11.274906 0 19.514261-4.119677 24.934889-12.142206 4.336502-6.938404 6.721579-16.478709 6.721578-28.837742 0-12.359032-2.385076-21.899337-7.155229-28.40409-5.420628-7.805704-13.876808-11.491731-25.151714-11.491732z m80.138565-61.361509h22.983463V715.5229h-22.983463v-157.848688z m99.089081 42.714549c18.21331 0 32.306943 6.071103 41.847248 18.64696 8.673005 11.274906 13.226332 26.886315 13.443157 46.834226h-84.995447c0.8673 10.841256 3.686027 19.297436 8.88983 25.151714 5.203803 5.637453 12.359032 8.673005 21.465687 8.673005 8.022529 0 14.527283-1.951426 19.514261-5.637453 3.902852-3.035552 7.155229-8.022529 10.19078-14.527283h22.983463c-2.601901 10.407606-7.588879 19.297436-15.394583 26.23584-9.75713 8.45618-22.116162 12.792682-37.077096 12.792682-16.478709 0-29.705042-5.203803-39.245347-15.394584-10.407606-10.841256-15.611409-25.368539-15.611409-43.798674 0-16.695534 4.770153-30.572342 14.744109-41.847249 9.540305-11.491731 22.766638-17.129185 39.245347-17.129184z m0.650475 18.863785c-8.673005 0-15.394584 2.385076-20.598387 7.588879-4.770153 4.986978-8.022529 12.142207-9.32348 21.682513h60.494209c-2.168251-19.514261-12.359032-29.271391-30.572342-29.271392z m116.109852-18.863785c29.054566 0 45.099625 11.708557 47.701527 35.342494h-22.332988c-1.734601-6.071103-4.336502-10.190781-8.022529-12.575857-3.902852-2.601901-9.973956-3.902852-17.77966-3.902852-6.938404 0-12.142207 0.8673-15.611409 3.035552-4.119677 2.168251-6.071103 5.637453-6.071103 9.973955 0 3.902852 3.035552 7.155229 9.106655 9.973956 3.902852 1.734601 11.274906 3.902852 22.549813 6.721579 12.792682 3.035552 22.332987 6.721579 28.40409 10.624431 8.88983 5.637453 13.443158 13.443158 13.443158 23.417113 0 23.633938-16.695534 35.55932-49.869778 35.55932-30.789167 0-47.267876-13.226332-49.869778-39.245347h22.549813c1.300951 7.588879 4.119677 13.009507 8.022529 16.045059 3.902852 2.818727 9.973956 4.336502 18.646961 4.336502 17.77966 0 26.886315-5.203803 26.886315-15.177758 0-5.420628-3.469202-9.75713-9.973956-12.792682-3.469202-1.734601-11.058081-3.902852-22.549812-6.504754-13.226332-3.035552-22.549813-6.287929-27.753616-9.757131-8.673005-5.420628-13.009507-13.009507-13.009507-22.549812 0-10.190781 4.119677-18.21331 12.575857-23.850763 8.45618-5.854278 19.514261-8.673005 32.957418-8.673005z m104.834946-33.174244v36.209795h25.585365v19.080611h-25.585365v65.047536c0 3.035552 0.650475 5.203803 1.951426 6.721579 1.300951 1.300951 3.252377 2.168251 6.071104 2.168251h14.744108V715.5229h-18.430135c-9.540305 0-16.695534-2.601901-21.032037-7.588879-4.336502-4.770153-6.287929-11.491731-6.287928-20.381562v-65.047536h-20.815212v-19.080611h20.815212V576.754822l22.983462-9.540305z m95.706609 33.174244c16.912359 0 30.572342 5.637453 40.763123 16.912359 9.973956 11.058081 15.177758 25.151714 15.177758 42.280899 0 16.912359-4.986978 31.005992-14.960933 41.847248-10.407606 11.274906-24.067588 17.129185-40.979948 17.129185-16.912359 0-30.572342-5.854278-40.979948-17.129185-9.973956-10.841256-14.960933-24.934889-14.960933-41.847248 0-17.129185 4.986978-31.222817 15.177758-42.280899 10.190781-11.274906 23.850763-16.912359 40.763123-16.912359z m0 18.863785c-10.624431 0-18.863786 4.119677-24.718064 12.575857-5.203803 7.155229-7.588879 16.478709-7.588879 27.753616s2.385076 20.381561 7.588879 27.53679c5.854278 8.239355 14.093633 12.575857 24.718064 12.575857 10.624431 0 18.863786-4.336502 24.934889-12.575857 5.203803-7.372054 7.805704-16.478709 7.805704-27.53679 0-11.274906-2.601901-20.598387-7.805704-27.753616-6.071103-8.45618-14.310458-12.575857-24.934889-12.575857z m129.8132-18.863785c5.637453 0 10.624431 0.8673 14.527283 2.818726v22.983463c-5.637453-1.734601-11.058081-2.385076-16.261884-2.385076-6.938404 0-13.226332 2.818727-18.64696 8.456179-5.854278 6.071103-8.673005 14.093633-8.673005 23.850764V715.5229h-22.983463v-112.098588h22.983463v16.91236c2.818727-6.071103 6.504754-10.624431 10.841256-13.659983 5.203803-4.336502 11.274906-6.287929 18.21331-6.287928z m76.105618 0c18.21331 0 32.306943 6.071103 41.847248 18.64696 8.673005 11.274906 13.226332 26.886315 13.443157 46.834226h-84.995447c0.8673 10.841256 3.686027 19.297436 8.88983 25.151714 5.203803 5.637453 12.359032 8.673005 21.465687 8.673005 8.022529 0 14.527283-1.951426 19.514261-5.637453 3.902852-3.035552 7.155229-8.022529 10.19078-14.527283h22.983463c-2.601901 10.407606-7.588879 19.297436-15.394583 26.23584-9.75713 8.45618-22.116162 12.792682-37.077096 12.792682-16.478709 0-29.705042-5.203803-39.245347-15.394584-10.407606-10.841256-15.611409-25.368539-15.611409-43.798674 0-16.695534 4.770153-30.572342 14.744109-41.847249 9.540305-11.491731 22.766638-17.129185 39.245347-17.129184z m0.650475 18.863785c-8.673005 0-15.394584 2.385076-20.598387 7.588879-4.770153 4.986978-8.022529 12.142207-9.32348 21.682513h60.494209c-2.168251-19.514261-12.359032-29.271391-30.572342-29.271392z" fill="#0F1114" p-id="65992"></path></svg>