<?xml version="1.0" standalone="no"?><!DOCTYPE svg PUBLIC "-//W3C//DTD SVG 1.1//EN" "http://www.w3.org/Graphics/SVG/1.1/DTD/svg11.dtd"><svg t="1730341013594" class="icon" viewBox="0 0 1067 1024" version="1.1" xmlns="http://www.w3.org/2000/svg" p-id="64985" xmlns:xlink="http://www.w3.org/1999/xlink" width="208.3984375" height="200"><path d="M600.487595 69.628226A69.628226 69.628226 0 1 1 530.875919 0a69.628226 69.628226 0 0 1 69.628227 69.628226M1067.527986 403.221412a69.628226 69.628226 0 1 1-69.628227-69.628226 69.628226 69.628226 0 0 1 69.628227 69.628226m-179.854989 551.133811a69.628226 69.628226 0 1 1-69.628226-69.628227 69.628226 69.628226 0 0 1 69.628226 69.628227m-568.561555 0a69.628226 69.628226 0 1 1-69.628227-69.628227 69.628226 69.628226 0 0 1 69.628227 69.628227m-179.854989-551.133811a69.628226 69.628226 0 1 1-69.628227-69.628226 69.628226 69.628226 0 0 1 69.628227 69.628226m77.35734 455.488096l-0.57927 0.182057a10.128946 10.128946 0 0 1-12.628081-6.71953L103.159671 524.288794a10.128946 10.128946 0 0 1 6.719529-12.61153l0.57927-0.182056a10.145496 10.145496 0 0 1 12.61153 6.719529l100.246772 327.883241a10.145496 10.145496 0 0 1-6.719529 12.628081m505.272195 87.254578v0.59582a10.145496 10.145496 0 0 1-10.112395 10.112396H368.912091a10.145496 10.145496 0 0 1-10.112395-10.112396v-0.59582a10.145496 10.145496 0 0 1 10.112395-10.112395h342.878053a10.145496 10.145496 0 0 1 10.112395 10.112395m165.770458-538.704336a9.930339 9.930339 0 0 1-9.930339 9.847586H188.808844a9.930339 9.930339 0 1 1 0-19.695172h689.016567a9.930339 9.930339 0 0 1 9.930339 9.930339m-160.54048 480.959415a9.930339 9.930339 0 0 1-13.753519 2.184675L155.989074 485.428068a9.930339 9.930339 0 0 1 11.585395-15.938194L724.931293 874.482197a9.930339 9.930339 0 0 1 2.168124 13.753519" fill="#1D499E" p-id="64986"></path><path d="M498.238205 177.2731a9.930339 9.930339 0 0 1 6.388518 12.379823L295.179325 846.064877a9.930339 9.930339 0 1 1-18.768341-5.991305l209.447399-656.411953a9.930339 9.930339 0 0 1 12.379822-6.388519m68.85035 0a9.930339 9.930339 0 0 0-6.388518 12.379823L770.147436 846.064877a9.930339 9.930339 0 1 0 18.76834-5.991305L579.468378 183.661619a9.930339 9.930339 0 0 0-12.379823-6.388519" fill="#1D499E" p-id="64987"></path><path d="M907.666079 476.358359a9.930339 9.930339 0 0 1-2.101921 13.77007l-555.271452 407.938323a9.930339 9.930339 0 0 1-11.585396-15.871992l555.172149-407.954874a9.930339 9.930339 0 0 1 13.77007 2.118473m-55.163033 382.318048l0.57927 0.182057a10.128946 10.128946 0 0 0 12.61153-6.71953l100.246772-327.883241a10.128946 10.128946 0 0 0-6.71953-12.61153l-0.579269-0.182056a10.145496 10.145496 0 0 0-12.611531 6.719529L845.766967 846.064877a10.145496 10.145496 0 0 0 6.702979 12.628081M619.553846 131.974204l0.347562-0.479966a10.145496 10.145496 0 0 1 14.134182-2.234326l277.387468 201.536228a10.128946 10.128946 0 0 1 2.234326 14.117632l-0.347562 0.479967a10.128946 10.128946 0 0 1-14.134182 2.234326L621.788172 146.091836a10.145496 10.145496 0 0 1-2.234326-14.134182m-170.040504 0l-0.347562-0.479967a10.145496 10.145496 0 0 0-14.134182-2.234326L157.644131 330.77959a10.128946 10.128946 0 0 0-2.234327 14.117632l0.347562 0.479966a10.145496 10.145496 0 0 0 14.117632 2.234326l277.387467-201.536228a10.145496 10.145496 0 0 0 2.234327-14.134183" fill="#1D499E" p-id="64988"></path></svg>